<?xml version="1.0" encoding="utf-8"?>
<!-- Generator: Adobe Illustrator 15.0.2, SVG Export Plug-In . SVG Version: 6.00 Build 0)  -->
<!DOCTYPE svg PUBLIC "-//W3C//DTD SVG 1.1//EN" "http://www.w3.org/Graphics/SVG/1.1/DTD/svg11.dtd">
<svg version="1.1" id="Calque_1" xmlns="http://www.w3.org/2000/svg" xmlns:xlink="http://www.w3.org/1999/xlink" x="0px" y="0px"
	 width="228px" height="720px" viewBox="0 0 228 720" enable-background="new 0 0 228 720" xml:space="preserve">
<rect fill="#F6481C" width="228" height="720"/>
<g>
	
		<image overflow="visible" opacity="0.45" enable-background="new    " width="1079" height="850" xlink:href="4693CAB1.png"  transform="matrix(0.2389 0 0 0.2389 -14.7881 -8.2695)">
	</image>
	<g>
		<rect fill="#F6481C" width="228" height="172.389"/>
	</g>
</g>
<g>
	<g>
		<g>
			<defs>
				<rect id="SVGID_1_" x="8.354" y="5.626" width="111.512" height="104.096"/>
			</defs>
			<clipPath id="SVGID_2_">
				<use xlink:href="#SVGID_1_"  overflow="visible"/>
			</clipPath>
			<g clip-path="url(#SVGID_2_)">
				<g>
					<defs>
						<rect id="SVGID_3_" x="8.354" y="5.626" width="111.512" height="104.096"/>
					</defs>
					<clipPath id="SVGID_4_">
						<use xlink:href="#SVGID_3_"  overflow="visible"/>
					</clipPath>
					<path clip-path="url(#SVGID_4_)" fill="#FFFFFF" d="M30.65,21.575c5.192,0.015,11.584,1.42,11.584,6.593v12.36h-9.16v-5.332
						c-0.006-0.017-2.224,0.785-3.927,1.31c-1.147,0.315-2.015,0.963-2.084,2.132c-0.09,0.985,1.028,1.89,1.018,1.891h-8.968
						c-0.011-0.001-1.999-0.718-1.938-2.861c0.184-4.085,3.365-5.588,11.196-6.493c4.22-0.521,4.696-0.928,4.702-1.988
						c-0.006-0.869-0.52-1.854-2.909-1.891c-3.444,0.002-3.203,2.333-3.199,2.327h-8.773C18.174,29.618,18.277,21.584,30.65,21.575
						 M58.416,21.77c-3.046,0.445-4.115,2.963-4.12,2.957v-2.618h-8.53v18.42h9.306v-8.823c0.011-1.558,0.447-2.257,1.019-2.811
						c0.643-0.66,1.769-1.123,3.005-1.114h2.617v-5.672C61.71,22.101,60.368,21.484,58.416,21.77 M76.981,17.746h-9.209v4.362h-3.83
						v5.672h3.83v7.513c0.008,1.62-0.026,2.942,1.163,4.215c1.04,1.064,2.403,1.015,4.023,1.021h4.022V27.78h5.526v-5.672H76.98
						L76.981,17.746L76.981,17.746z M97.099,21.721c15.446,0.171,12.948,14.135,12.94,14.154h-16.48v4.653h-6.737
						c0.021-0.001-2.765-2.507-2.714-7.465C84.207,21.512,96.612,21.711,97.099,21.721 M101.12,31.221
						c-0.01-0.016,0.386-3.774-4.021-3.78c-4.25-0.021-3.784,3.765-3.782,3.78H101.12"/>
				</g>
				<g>
					<defs>
						<rect id="SVGID_5_" x="8.354" y="5.626" width="111.512" height="104.096"/>
					</defs>
					<clipPath id="SVGID_6_">
						<use xlink:href="#SVGID_5_"  overflow="visible"/>
					</clipPath>
					<g clip-path="url(#SVGID_6_)">
						<g enable-background="new    ">
							<path d="M19.17,46.481h5.37l5.952,9.576l5.952-9.576h5.37v22.645h-4.949V54.343l-6.373,9.672h-0.129l-6.308-9.575v14.687
								H19.17V46.481z"/>
						</g>
					</g>
				</g>
				<g>
					<defs>
						<rect id="SVGID_7_" x="8.354" y="5.626" width="111.512" height="104.096"/>
					</defs>
					<clipPath id="SVGID_8_">
						<use xlink:href="#SVGID_7_"  overflow="visible"/>
					</clipPath>
					<g clip-path="url(#SVGID_8_)">
						<g enable-background="new    ">
							<path d="M55.272,46.32h1.035l10.74,22.806H65.85l-3.073-6.6H48.77l-3.105,6.6h-1.132L55.272,46.32z M62.292,61.524
								l-6.534-13.91l-6.502,13.91H62.292z"/>
						</g>
					</g>
				</g>
				<g>
					<defs>
						<rect id="SVGID_9_" x="8.354" y="5.626" width="111.512" height="104.096"/>
					</defs>
					<clipPath id="SVGID_10_">
						<use xlink:href="#SVGID_9_"  overflow="visible"/>
					</clipPath>
					<g clip-path="url(#SVGID_10_)">
						<g enable-background="new    ">
							<path d="M68.212,65.826l2.944-3.525c2.038,1.682,4.173,2.749,6.761,2.749c2.038,0,3.267-0.809,3.267-2.135v-0.064
								c0-1.262-0.776-1.909-4.561-2.879c-4.561-1.165-7.505-2.427-7.505-6.923v-0.064c0-4.108,3.3-6.826,7.925-6.826
								c3.3,0,6.114,1.035,8.411,2.879l-2.588,3.753c-2.005-1.391-3.979-2.232-5.887-2.232s-2.912,0.874-2.912,1.974v0.064
								c0,1.488,0.971,1.974,4.885,2.977c4.594,1.196,7.182,2.847,7.182,6.793v0.064c0,4.497-3.429,7.02-8.314,7.02
								C74.391,69.449,70.93,68.253,68.212,65.826z"/>
						</g>
					</g>
				</g>
				<g>
					<defs>
						<rect id="SVGID_11_" x="8.354" y="5.626" width="111.512" height="104.096"/>
					</defs>
					<clipPath id="SVGID_12_">
						<use xlink:href="#SVGID_11_"  overflow="visible"/>
					</clipPath>
					<g clip-path="url(#SVGID_12_)">
						<g enable-background="new    ">
							<path d="M92.928,46.481h4.981l-2.394,8.961h9.058l2.394-8.961h4.982l-6.082,22.645h-4.981l2.458-9.09h-9.058l-2.458,9.09
								h-4.982L92.928,46.481z"/>
						</g>
					</g>
				</g>
				<g>
					<defs>
						<rect id="SVGID_13_" x="8.354" y="5.626" width="111.512" height="104.096"/>
					</defs>
					<clipPath id="SVGID_14_">
						<use xlink:href="#SVGID_13_"  overflow="visible"/>
					</clipPath>
					<g clip-path="url(#SVGID_14_)">
						<g enable-background="new    ">
							<path d="M26.126,86.596h8.281v1.132h-8.281V86.596z"/>
						</g>
					</g>
				</g>
				<g>
					<defs>
						<rect id="SVGID_15_" x="8.354" y="5.626" width="111.512" height="104.096"/>
					</defs>
					<clipPath id="SVGID_16_">
						<use xlink:href="#SVGID_15_"  overflow="visible"/>
					</clipPath>
				</g>
				<g>
					<defs>
						<rect id="SVGID_17_" x="8.354" y="5.626" width="111.512" height="104.096"/>
					</defs>
					<clipPath id="SVGID_18_">
						<use xlink:href="#SVGID_17_"  overflow="visible"/>
					</clipPath>
					<g clip-path="url(#SVGID_18_)">
						<g enable-background="new    ">
							<path d="M44.855,87.08V74.141h4.982v12.811c0,3.688,1.844,5.597,4.884,5.597c3.041,0,4.885-1.845,4.885-5.435V74.141h4.982
								v12.778c0,6.857-3.85,10.222-9.931,10.222S44.855,93.744,44.855,87.08z"/>
						</g>
					</g>
				</g>
				<g>
					<defs>
						<rect id="SVGID_19_" x="8.354" y="5.626" width="111.512" height="104.096"/>
					</defs>
					<clipPath id="SVGID_20_">
						<use xlink:href="#SVGID_19_"  overflow="visible"/>
					</clipPath>
					<g clip-path="url(#SVGID_20_)">
						<g enable-background="new    ">
							<path d="M72.709,74.141h7.084c2.847,0,5.014,0.68,6.47,2.104c1.035,1.067,1.618,2.458,1.618,4.205
								c0,5.272-4.497,8.281-11.16,8.281h-5.37l-2.167,8.055h-2.555L72.709,74.141z M76.85,86.466c5.338,0,8.378-2.135,8.378-5.854
								c0-1.101-0.323-1.974-1.035-2.686c-0.938-0.938-2.458-1.423-4.497-1.423h-5.079l-2.652,9.963H76.85z"/>
						</g>
					</g>
				</g>
				<g>
					<defs>
						<rect id="SVGID_21_" x="8.354" y="5.626" width="111.512" height="104.096"/>
					</defs>
					<clipPath id="SVGID_22_">
						<use xlink:href="#SVGID_21_"  overflow="visible"/>
					</clipPath>
				</g>
				<g>
					<defs>
						<rect id="SVGID_23_" x="8.354" y="5.626" width="111.512" height="104.096"/>
					</defs>
					<clipPath id="SVGID_24_">
						<use xlink:href="#SVGID_23_"  overflow="visible"/>
					</clipPath>
					<g clip-path="url(#SVGID_24_)">
						<g enable-background="new    ">
							<path d="M95.419,74.788v-0.647h5.758v0.647l-1.521,14.298h-2.717L95.419,74.788z M95.678,91.609h5.241v5.176h-5.241V91.609z"
								/>
						</g>
					</g>
				</g>
			</g>
		</g>
		<g>
			<path fill="#FFFFFF" d="M18.68,149.795h-1.97v-3.316h2.539l0.647-3.835h-2.279v-3.316h2.85l0.648-3.782h3.42l-0.648,3.782h3.758
				l0.646-3.782h3.42l-0.646,3.782h1.969v3.316h-2.539l-0.648,3.835h2.28v3.316h-2.85l-0.674,3.887h-3.42l0.673-3.887H22.1
				l-0.674,3.887h-3.42L18.68,149.795z M26.426,146.479l0.648-3.835h-3.758l-0.646,3.835H26.426z"/>
			<path d="M35.701,139.794h3.939v1.995c0.958-1.296,2.279-2.254,4.326-2.254c3.238,0,6.322,2.539,6.322,7.177v0.052
				c0,4.638-3.031,7.177-6.322,7.177c-2.099,0-3.395-0.959-4.326-2.072v5.959h-3.939V139.794z M46.351,146.764v-0.052
				c0-2.306-1.555-3.835-3.394-3.835c-1.84,0-3.369,1.529-3.369,3.835v0.052c0,2.306,1.529,3.835,3.369,3.835
				C44.796,150.599,46.351,149.096,46.351,146.764z"/>
			<path d="M53.087,148.784v-8.99h3.938v7.747c0,1.865,0.881,2.824,2.383,2.824c1.504,0,2.462-0.959,2.462-2.824v-7.747h3.938
				v13.888H61.87v-1.97c-0.907,1.166-2.073,2.229-4.067,2.229C54.822,153.94,53.087,151.972,53.087,148.784z"/>
			<path d="M69.514,134.768h3.938v18.914h-3.938V134.768z"/>
			<path d="M77.156,139.794h3.938v1.995c0.958-1.296,2.28-2.254,4.327-2.254c3.238,0,6.321,2.539,6.321,7.177v0.052
				c0,4.638-3.031,7.177-6.321,7.177c-2.1,0-3.395-0.959-4.327-2.072v5.959h-3.938V139.794z M87.805,146.764v-0.052
				c0-2.306-1.555-3.835-3.394-3.835c-1.84,0-3.368,1.529-3.368,3.835v0.052c0,2.306,1.528,3.835,3.368,3.835
				C86.25,150.599,87.805,149.096,87.805,146.764z"/>
		</g>
		<g>
			<g>
				<g>
					<defs>
						<rect id="SVGID_25_" x="181.354" y="13.79" width="33.131" height="46.856"/>
					</defs>
					<clipPath id="SVGID_26_">
						<use xlink:href="#SVGID_25_"  overflow="visible"/>
					</clipPath>
					<g clip-path="url(#SVGID_26_)">
						<g>
							<defs>
								<rect id="SVGID_27_" x="181.354" y="13.79" width="33.131" height="46.856"/>
							</defs>
							<clipPath id="SVGID_28_">
								<use xlink:href="#SVGID_27_"  overflow="visible"/>
							</clipPath>
							<path clip-path="url(#SVGID_28_)" fill="#FFFFFF" d="M205.143,27.71c2.451,0,4.473-2.021,4.473-4.473
								c0-2.452-2.021-4.473-4.473-4.473s-4.473,2.021-4.473,4.473c0,0.464,0.065,0.895,0.197,1.325l-7.521,5.565
								c-0.729-0.695-1.724-1.093-2.783-1.093c-2.285,0-4.142,1.855-4.142,4.141c0,2.286,1.855,4.142,4.142,4.142
								c1.095,0,2.088-0.431,2.815-1.093l7.488,5.565c-0.133,0.431-0.199,0.861-0.199,1.325c0,2.452,2.021,4.473,4.474,4.473
								c2.45,0,4.474-2.021,4.474-4.473c0-2.451-2.021-4.473-4.474-4.473c-1.16,0-2.22,0.464-3.015,1.193l-7.555-5.633
								c0.1-0.331,0.133-0.662,0.133-1.027c0-0.364-0.066-0.695-0.133-1.026l7.555-5.633C202.89,27.246,203.95,27.71,205.143,27.71
								 M205.143,21.084c1.191,0,2.152,0.96,2.152,2.153c0,1.192-0.961,2.153-2.152,2.153s-2.152-0.961-2.152-2.153
								C202.989,22.044,203.95,21.084,205.143,21.084 M205.143,40.962c1.191,0,2.152,0.961,2.152,2.153
								c0,1.193-0.961,2.154-2.152,2.154s-2.152-0.961-2.152-2.154C202.989,41.923,203.95,40.962,205.143,40.962"/>
						</g>
					</g>
				</g>
				<g>
					<g>
						<g>
							<defs>
								<rect id="SVGID_29_" x="181.354" y="71.21" width="33.131" height="46.856"/>
							</defs>
							<clipPath id="SVGID_30_">
								<use xlink:href="#SVGID_29_"  overflow="visible"/>
							</clipPath>
							<g clip-path="url(#SVGID_30_)">
								<g>
									<defs>
										<rect id="SVGID_31_" x="181.354" y="71.21" width="33.131" height="46.856"/>
									</defs>
									<defs>
										<rect id="SVGID_32_" x="181.354" y="71.21" width="33.131" height="46.856"/>
									</defs>
									<defs>
										<rect id="SVGID_33_" x="181.354" y="71.21" width="33.131" height="46.856"/>
									</defs>
									<clipPath id="SVGID_34_">
										<use xlink:href="#SVGID_31_"  overflow="visible"/>
									</clipPath>
									<clipPath id="SVGID_35_" clip-path="url(#SVGID_34_)">
										<use xlink:href="#SVGID_32_"  overflow="visible"/>
									</clipPath>
									<clipPath id="SVGID_36_" clip-path="url(#SVGID_35_)">
										<use xlink:href="#SVGID_33_"  overflow="visible"/>
									</clipPath>
									<path clip-path="url(#SVGID_36_)" fill="#FFFFFF" d="M185.202,82.287c3.195-0.001,6.146,1.588,7.913,4.175
										c0.425,0.621,1.271,0.78,1.894,0.356c0.621-0.425,0.781-1.273,0.356-1.894v-0.001c-2.271-3.323-6.06-5.362-10.163-5.362
										c-0.752,0-1.361,0.609-1.361,1.362S184.45,82.287,185.202,82.287"/>
									<path clip-path="url(#SVGID_36_)" fill="#FFFFFF" d="M212,98.589c0-0.185-0.037-0.363-0.106-0.528l-0.206-0.308
										l-0.086-0.128l-4.626-4.626c-0.532-0.532-1.396-0.532-1.929,0.001c-0.531,0.532-0.531,1.395,0.002,1.927l0,0l2.294,2.293
										c-2.665-0.032-5.151-1.163-6.912-3.06c-0.513-0.552-1.374-0.584-1.927-0.072c-0.551,0.512-0.584,1.375-0.07,1.926
										c2.27,2.446,5.48,3.902,8.92,3.932l-2.305,2.306c-0.533,0.532-0.533,1.396-0.002,1.928c0.533,0.532,1.396,0.532,1.929,0
										l4.626-4.626l0.057-0.084l0.236-0.353C211.963,98.951,212,98.773,212,98.589"/>
									<path clip-path="url(#SVGID_36_)" fill="#FFFFFF" d="M211.687,81.569l-0.085-0.128l-4.626-4.626
										c-0.532-0.532-1.396-0.532-1.929,0c-0.531,0.532-0.531,1.396,0.002,1.928v-0.001l2.308,2.309
										c-4.694,0.039-8.962,2.738-10.996,6.976l-2.517,5.243c-1.596,3.324-4.955,5.438-8.643,5.438
										c-0.752,0-1.363,0.61-1.363,1.362c0,0.753,0.611,1.363,1.363,1.363v-0.001c4.734,0,9.049-2.715,11.098-6.983l2.519-5.243
										c1.577-3.288,4.884-5.384,8.522-5.43l-2.291,2.292c-0.533,0.531-0.533,1.395-0.002,1.927c0.533,0.532,1.396,0.532,1.929,0
										l4.626-4.626l0.057-0.084l0.236-0.353c0.068-0.165,0.105-0.343,0.105-0.527c0-0.184-0.037-0.362-0.105-0.527
										L211.687,81.569z"/>
								</g>
							</g>
						</g>
						<g>
							<g>
								<g>
									<defs>
										<rect id="SVGID_37_" x="177.269" y="121.227" width="41.296" height="58.403"/>
									</defs>
									<clipPath id="SVGID_38_">
										<use xlink:href="#SVGID_37_"  overflow="visible"/>
									</clipPath>
									<g clip-path="url(#SVGID_38_)">
										<g>
											<defs>
												<rect id="SVGID_39_" x="177.269" y="121.227" width="41.296" height="58.403"/>
											</defs>
											<clipPath id="SVGID_40_">
												<use xlink:href="#SVGID_39_"  overflow="visible"/>
											</clipPath>
											<path clip-path="url(#SVGID_40_)" fill="#FFFFFF" d="M210.636,155.673l-7.929-7.971c1.113-1.61,1.815-3.593,1.815-5.739
												c0-5.451-4.46-9.911-9.91-9.911s-9.911,4.46-9.911,9.911c0,5.45,4.461,9.91,9.911,9.91c2.146,0,4.13-0.701,5.739-1.816
												l7.971,7.97c0.66,0.661,1.692,0.661,2.354,0C211.295,157.365,211.295,156.292,210.636,155.673 M188.006,141.963
												c0-3.635,2.973-6.607,6.606-6.607s6.606,2.973,6.606,6.607c0,3.634-2.973,6.606-6.606,6.606
												S188.006,145.597,188.006,141.963"/>
										</g>
									</g>
								</g>
								<g>
									<path fill="#FFFFFF" d="M18.223,197.362h3.93c2.055,0,3.255,0.96,3.255,2.445c0,1.5-1.14,2.46-2.625,2.76
										c1.035,0.314,1.86,0.99,1.86,2.175c0,1.814-1.65,3.12-4.41,3.12h-4.83L18.223,197.362z M20.367,206.797
										c1.891,0,3.075-0.795,3.075-2.1c0-1.065-1.005-1.605-2.415-1.605h-3.18l-0.99,3.705H20.367z M21.117,202.042
										c1.875,0,3.075-0.824,3.075-2.085c0-0.989-0.78-1.529-2.146-1.529h-2.955l-0.959,3.614H21.117z"/>
									<path fill="#FFFFFF" d="M29.008,196.912h1.154l-2.939,10.95h-1.155L29.008,196.912z"/>
									<path fill="#FFFFFF" d="M30.402,204.562c0-2.415,2.085-4.62,4.561-4.62c2.129,0,3.539,1.455,3.539,3.465
										c0,2.475-2.145,4.635-4.574,4.635C31.797,208.042,30.402,206.572,30.402,204.562z M37.317,203.452
										c0-1.575-0.99-2.49-2.431-2.49c-1.784,0-3.314,1.771-3.314,3.57c0,1.575,0.99,2.475,2.43,2.475
										C35.742,207.007,37.317,205.297,37.317,203.452z"/>
									<path fill="#FFFFFF" d="M40.317,200.107h1.17l0.405,6.18l3.75-6.21h0.959l0.436,6.21l3.734-6.18h1.2l-4.829,7.814h-1.021
										l-0.45-6.119l-3.734,6.119h-1.006L40.317,200.107z"/>
									<path fill="#FFFFFF" d="M57.477,204.667c0-0.569,0.076-1.095,0.226-1.635l1.5-5.67h1.2l-1.59,5.985
										c-0.09,0.314-0.15,0.734-0.15,1.185c0,1.365,0.885,2.399,2.744,2.399c0.871,0,1.681-0.314,2.341-0.96
										c0.54-0.555,1.034-1.409,1.335-2.564l1.635-6.045h1.186l-1.681,6.255c-0.36,1.335-0.915,2.37-1.649,3.104
										c-0.855,0.855-1.965,1.306-3.271,1.306C58.797,208.027,57.477,206.632,57.477,204.667z"/>
									<path fill="#FFFFFF" d="M69.792,200.107h1.155l-0.36,1.335c0.75-0.84,1.695-1.5,2.94-1.5c1.754,0,3.074,1.305,3.074,3.285
										c0,2.744-2.084,4.814-4.35,4.814c-1.59,0-2.475-0.899-2.91-1.92l-1.109,4.14h-1.155L69.792,200.107z M75.387,203.332
										c0-1.439-0.885-2.37-2.189-2.37c-1.725,0-3.45,1.755-3.45,3.646c0,1.35,0.976,2.415,2.399,2.415
										C73.992,207.022,75.387,205.312,75.387,203.332z"/>
									<path fill="#FFFFFF" d="M82.527,204.082l0.029-0.12l3.33-3.239l0.75,0.63l-2.82,2.805l1.23,2.655l-0.945,0.465
										L82.527,204.082z M85.857,204.082l0.029-0.12l3.33-3.239l0.75,0.63l-2.82,2.805l1.23,2.655l-0.945,0.465L85.857,204.082z"
										/>
									<path fill="#FFFFFF" d="M97.871,197.362h3.285c1.32,0,2.325,0.315,3,0.976c0.48,0.494,0.75,1.14,0.75,1.949
										c0,2.445-2.085,3.84-5.175,3.84h-2.49l-1.005,3.735h-1.185L97.871,197.362z M99.791,203.077
										c2.475,0,3.885-0.99,3.885-2.715c0-0.51-0.149-0.915-0.479-1.245c-0.435-0.435-1.14-0.66-2.085-0.66h-2.355l-1.229,4.62
										H99.791z"/>
									<path fill="#FFFFFF" d="M105.551,205.627c0-0.359,0.09-0.795,0.195-1.2l1.141-4.319h1.154l-1.186,4.395
										c-0.06,0.255-0.104,0.615-0.104,0.87c0,1.021,0.66,1.62,1.726,1.62c1.199,0,2.414-1.035,2.805-2.52l1.17-4.365h1.154
										l-2.07,7.755h-1.154l0.346-1.26c-0.705,0.795-1.531,1.425-2.715,1.425C106.525,208.027,105.551,207.097,105.551,205.627z"
										/>
									<path fill="#FFFFFF" d="M117.176,196.912h1.154l-2.939,10.95h-1.154L117.176,196.912z"/>
									<path fill="#FFFFFF" d="M120.161,200.107h1.154l-0.359,1.335c0.75-0.84,1.694-1.5,2.939-1.5
										c1.755,0,3.075,1.305,3.075,3.285c0,2.744-2.085,4.814-4.351,4.814c-1.59,0-2.476-0.899-2.91-1.92l-1.109,4.14h-1.154
										L120.161,200.107z M125.756,203.332c0-1.439-0.885-2.37-2.19-2.37c-1.726,0-3.448,1.755-3.448,3.646
										c0,1.35,0.975,2.415,2.398,2.415C124.36,207.022,125.756,205.312,125.756,203.332z"/>
									<path fill="#FFFFFF" d="M135.491,197.362h7.545l-0.285,1.095h-6.375l-1.006,3.75h5.7l-0.3,1.08h-5.686l-1.229,4.575h-1.185
										L135.491,197.362z"/>
									<path fill="#FFFFFF" d="M144.536,200.107h1.154l-2.085,7.755h-1.153L144.536,200.107z M145.256,197.138h1.318l-0.345,1.274
										h-1.319L145.256,197.138z"/>
									<path fill="#FFFFFF" d="M146.771,204.652c0-2.535,2.101-4.71,4.562-4.71c1.619,0,2.595,0.854,3.09,1.814l-0.932,0.586
										c-0.449-0.75-1.063-1.381-2.234-1.381c-1.754,0-3.299,1.726-3.299,3.66c0,1.53,1.095,2.4,2.31,2.4
										c0.915,0,1.62-0.405,2.295-1.021l0.675,0.75c-0.795,0.75-1.74,1.29-3.029,1.29
										C148.391,208.042,146.771,206.782,146.771,204.652z"/>
									<path fill="#FFFFFF" d="M155.62,206.467c0-0.27,0.045-0.569,0.105-0.81l1.215-4.53h-1.064l0.271-1.02h1.08l0.63-2.34h1.141
										l-0.631,2.34h2.445l-0.271,1.02h-2.443l-1.2,4.47c-0.03,0.181-0.062,0.405-0.062,0.57c0,0.54,0.405,0.795,1.065,0.795
										c0.345,0,0.705-0.075,1.125-0.24l-0.285,1.051c-0.405,0.165-0.78,0.225-1.229,0.225
										C156.4,207.997,155.62,207.472,155.62,206.467z"/>
									<path fill="#FFFFFF" d="M162.94,200.107h1.154l-2.086,7.755h-1.153L162.94,200.107z M163.661,197.138h1.318l-0.346,1.274
										h-1.318L163.661,197.138z"/>
									<path fill="#FFFFFF" d="M165.19,204.562c0-2.415,2.085-4.62,4.561-4.62c2.129,0,3.539,1.455,3.539,3.465
										c0,2.475-2.146,4.635-4.574,4.635C166.584,208.042,165.19,206.572,165.19,204.562z M172.104,203.452
										c0-1.575-0.988-2.49-2.43-2.49c-1.785,0-3.314,1.771-3.314,3.57c0,1.575,0.989,2.475,2.43,2.475
										C170.53,207.007,172.104,205.297,172.104,203.452z"/>
									<path fill="#FFFFFF" d="M176.35,200.107h1.154l-0.33,1.26c0.705-0.795,1.516-1.425,2.699-1.425c1.5,0,2.476,0.93,2.476,2.4
										c0,0.359-0.091,0.795-0.194,1.199l-1.141,4.32h-1.154l1.17-4.396c0.075-0.255,0.12-0.614,0.12-0.869
										c0-1.021-0.66-1.62-1.739-1.62c-1.201,0-2.399,1.035-2.806,2.505l-1.17,4.38h-1.155L176.35,200.107z"/>
									<path fill="#FFFFFF" d="M16.828,222.697c0,1.41,0.899,2.34,2.34,2.34c1.004,0,1.68-0.345,2.385-0.915l0.6,0.765
										c-0.766,0.646-1.68,1.155-3.045,1.155c-2.055,0-3.435-1.335-3.435-3.3c0-2.37,1.92-4.8,4.515-4.8c1.965,0,3,1.35,3,2.97
										c0,0.525-0.105,1.035-0.285,1.515h-6.06C16.828,222.518,16.828,222.607,16.828,222.697z M22.002,221.497
										c0.03-0.149,0.061-0.33,0.061-0.585c0-1.064-0.6-1.995-1.936-1.995c-1.529,0-2.685,1.155-3.119,2.58H22.002z"/>
									<path fill="#FFFFFF" d="M26.112,218.107h1.155l-0.33,1.26c0.705-0.795,1.516-1.425,2.699-1.425c1.5,0,2.476,0.93,2.476,2.4
										c0,0.359-0.09,0.795-0.194,1.199l-1.141,4.32h-1.154l1.17-4.396c0.074-0.255,0.119-0.614,0.119-0.869
										c0-1.021-0.66-1.62-1.74-1.62c-1.199,0-2.399,1.035-2.805,2.505l-1.17,4.38h-1.154L26.112,218.107z"/>
									<path fill="#FFFFFF" d="M37.617,224.167l0.914-0.675c0.676,0.93,1.545,1.485,2.806,1.485c1.845,0,3.045-1.23,3.045-2.58
										c0-1.26-0.96-2.01-2.354-2.01c-0.646,0-1.426,0.18-2.146,0.569l-0.675-0.54l1.65-5.055h5.864l-0.315,1.095h-4.785
										l-1.109,3.3c0.436-0.21,1.245-0.404,1.8-0.404c1.995,0,3.315,1.14,3.315,2.955c0,1.994-1.74,3.734-4.381,3.734
										C39.537,226.042,38.307,225.202,37.617,224.167z"/>
									<path fill="#FFFFFF" d="M53.352,218.107h1.155l-0.33,1.26c0.705-0.795,1.44-1.425,2.58-1.425
										c1.305,0,1.995,0.854,2.204,1.755c0.69-1.064,1.74-1.755,3.121-1.755c1.395,0,2.369,0.96,2.369,2.4
										c0,0.359-0.119,0.795-0.21,1.199l-1.155,4.32h-1.154l1.185-4.396c0.06-0.255,0.104-0.614,0.104-0.869
										c0-1.005-0.6-1.62-1.604-1.62c-1.14,0-2.295,1.064-2.685,2.505l-1.155,4.38h-1.155l1.17-4.396
										c0.076-0.255,0.121-0.614,0.121-0.869c0-1.005-0.615-1.62-1.621-1.62c-1.139,0-2.295,1.064-2.684,2.505l-1.17,4.38h-1.156
										L53.352,218.107z"/>
									<path fill="#FFFFFF" d="M67.722,218.107h1.155l-2.085,7.755h-1.155L67.722,218.107z M68.441,215.138h1.32l-0.346,1.274
										h-1.319L68.441,215.138z"/>
									<path fill="#FFFFFF" d="M71.562,218.107h1.155l-0.33,1.26c0.705-0.795,1.516-1.425,2.699-1.425c1.5,0,2.476,0.93,2.476,2.4
										c0,0.359-0.09,0.795-0.194,1.199l-1.141,4.32h-1.154l1.17-4.396c0.074-0.255,0.119-0.614,0.119-0.869
										c0-1.021-0.66-1.62-1.74-1.62c-1.199,0-2.399,1.035-2.805,2.505l-1.17,4.38h-1.154L71.562,218.107z"/>
									<path fill="#FFFFFF" d="M79.302,223.627c0-0.359,0.09-0.795,0.194-1.2l1.141-4.319h1.154l-1.185,4.395
										c-0.06,0.255-0.104,0.615-0.104,0.87c0,1.021,0.66,1.62,1.725,1.62c1.199,0,2.415-1.035,2.805-2.52l1.17-4.365h1.155
										l-2.07,7.755h-1.155l0.346-1.26c-0.705,0.795-1.53,1.425-2.715,1.425C80.276,226.027,79.302,225.097,79.302,223.627z"/>
									<path fill="#FFFFFF" d="M88.767,224.467c0-0.27,0.045-0.569,0.104-0.81l1.215-4.53h-1.064l0.27-1.02h1.08l0.631-2.34h1.139
										l-0.629,2.34h2.444l-0.271,1.02h-2.444l-1.2,4.47c-0.029,0.181-0.06,0.405-0.06,0.57c0,0.54,0.405,0.795,1.065,0.795
										c0.344,0,0.705-0.075,1.125-0.24l-0.285,1.051c-0.405,0.165-0.78,0.225-1.23,0.225
										C89.547,225.997,88.767,225.472,88.767,224.467z"/>
									<path fill="#FFFFFF" d="M95.366,222.697c0,1.41,0.899,2.34,2.34,2.34c1.005,0,1.68-0.345,2.385-0.915l0.601,0.765
										c-0.766,0.646-1.681,1.155-3.045,1.155c-2.055,0-3.436-1.335-3.436-3.3c0-2.37,1.92-4.8,4.516-4.8c1.965,0,3,1.35,3,2.97
										c0,0.525-0.105,1.035-0.285,1.515h-6.061C95.366,222.518,95.366,222.607,95.366,222.697z M100.541,221.497
										c0.029-0.149,0.061-0.33,0.061-0.585c0-1.064-0.601-1.995-1.936-1.995c-1.529,0-2.686,1.155-3.12,2.58H100.541z"/>
									<path fill="#FFFFFF" d="M102.236,224.677l0.75-0.75c0.84,0.812,1.77,1.141,2.699,1.141c0.885,0,1.711-0.511,1.711-1.29
										c0-0.51-0.346-0.885-1.471-1.32c-1.395-0.54-2.189-1.05-2.189-2.13c0-1.319,1.14-2.385,2.939-2.385
										c1.141,0,2.221,0.51,2.865,1.065l-0.676,0.795c-0.645-0.525-1.454-0.9-2.295-0.9c-1.094,0-1.68,0.585-1.68,1.229
										c0,0.511,0.315,0.841,1.545,1.32c1.396,0.57,2.115,1.125,2.115,2.13c0,1.44-1.32,2.445-2.97,2.445
										C104.381,226.027,103.137,225.577,102.236,224.677z"/>
									<path fill="#FFFFFF" d="M114.386,224.662l2.805-2.805l-1.229-2.655l0.944-0.465l1.575,3.195l-0.029,0.119l-3.314,3.24
										L114.386,224.662z M117.715,224.662l2.806-2.805l-1.229-2.655l0.944-0.465l1.575,3.195l-0.03,0.119l-3.329,3.24
										L117.715,224.662z"/>
									<path fill="#FFFFFF" d="M128.17,221.992c0-3.314,2.234-6.81,5.459-6.81c2.342,0,3.677,1.694,3.677,4.05
										c0,3.314-2.235,6.81-5.46,6.81C129.491,226.042,128.17,224.347,128.17,221.992z M136.075,219.232
										c0-1.71-0.885-2.97-2.535-2.97c-2.295,0-4.14,2.97-4.14,5.729c0,1.71,0.87,2.97,2.521,2.97
										C134.23,224.962,136.075,221.992,136.075,219.232z"/>
									<path fill="#FFFFFF" d="M137.875,224.167l0.914-0.675c0.676,0.93,1.545,1.485,2.806,1.485c1.846,0,3.045-1.23,3.045-2.58
										c0-1.26-0.96-2.01-2.354-2.01c-0.646,0-1.425,0.18-2.146,0.569l-0.675-0.54l1.649-5.055h5.864l-0.314,1.095h-4.785
										l-1.108,3.3c0.435-0.21,1.244-0.404,1.8-0.404c1.995,0,3.314,1.14,3.314,2.955c0,1.994-1.74,3.734-4.381,3.734
										C139.795,226.042,138.565,225.202,137.875,224.167z"/>
									<path fill="#FFFFFF" d="M147.445,224.287h1.38l-0.42,1.575h-1.38L147.445,224.287z M149.11,218.107h1.381l-0.437,1.575
										h-1.38L149.11,218.107z"/>
									<path fill="#FFFFFF" d="M151.87,221.992c0-3.314,2.234-6.81,5.459-6.81c2.342,0,3.676,1.694,3.676,4.05
										c0,3.314-2.234,6.81-5.459,6.81C153.189,226.042,151.87,224.347,151.87,221.992z M159.774,219.232
										c0-1.71-0.885-2.97-2.535-2.97c-2.295,0-4.14,2.97-4.14,5.729c0,1.71,0.87,2.97,2.521,2.97
										C157.93,224.962,159.774,221.992,159.774,219.232z"/>
									<path fill="#FFFFFF" d="M163.629,225.082c-0.658-0.66-1.033-1.575-1.033-2.91c0-2.234,0.84-4.229,2.085-5.475
										c0.976-0.975,2.13-1.515,3.479-1.515c1.379,0,2.385,0.54,3.104,1.35l-0.779,0.811c-0.585-0.63-1.365-1.08-2.415-1.08
										c-0.944,0-1.784,0.359-2.534,1.109c-0.811,0.811-1.484,2.13-1.621,3.42c0.586-0.81,1.65-1.529,3.03-1.529
										c2.04,0,3.313,1.335,3.313,3.015c0,1.995-1.738,3.765-4.078,3.765C165.129,226.042,164.215,225.682,163.629,225.082z
										 M169.045,222.367c0-1.05-0.766-2.085-2.325-2.085c-1.739,0-2.896,1.245-2.896,2.52c0,0.66,0.227,1.17,0.615,1.545
										c0.45,0.466,1.064,0.66,1.77,0.66C167.875,225.007,169.045,223.762,169.045,222.367z"/>
								</g>
								<g>
									<path fill="#FFFFFF" d="M19.812,252.33h2.13l4.5,10.575h-2.415l-0.96-2.355h-4.44l-0.959,2.355h-2.355L19.812,252.33z
										 M22.242,258.51l-1.395-3.404l-1.395,3.404H22.242z"/>
									<path fill="#FFFFFF" d="M27.822,254.865h2.28v1.62c0.465-1.11,1.215-1.83,2.565-1.77v2.385h-0.121
										c-1.514,0-2.444,0.915-2.444,2.835v2.97h-2.28V254.865z"/>
									<path fill="#FFFFFF" d="M34.468,260.625v-3.81h-0.96v-1.95h0.96v-2.055h2.28v2.055h1.89v1.95h-1.89v3.435
										c0,0.525,0.225,0.78,0.734,0.78c0.42,0,0.795-0.105,1.125-0.285v1.83c-0.48,0.285-1.035,0.465-1.8,0.465
										C35.412,263.04,34.468,262.485,34.468,260.625z"/>
									<path fill="#FFFFFF" d="M39.702,258.931v-0.03c0-2.295,1.636-4.185,3.976-4.185c2.684,0,3.914,2.084,3.914,4.364
										c0,0.18-0.015,0.39-0.029,0.6h-5.596c0.226,1.035,0.945,1.575,1.965,1.575c0.766,0,1.32-0.24,1.95-0.825l1.306,1.155
										c-0.75,0.93-1.83,1.5-3.285,1.5C41.487,263.085,39.702,261.39,39.702,258.931z M45.372,258.255
										c-0.136-1.02-0.735-1.71-1.694-1.71c-0.945,0-1.561,0.676-1.74,1.71H45.372z"/>
									<path fill="#FFFFFF" d="M54.132,252.405h2.31v10.5h-2.31V252.405z"/>
									<path fill="#FFFFFF" d="M58.827,254.865h2.28v1.14c0.524-0.675,1.199-1.289,2.354-1.289c1.726,0,2.729,1.14,2.729,2.984
										v5.205h-2.279v-4.485c0-1.08-0.51-1.635-1.381-1.635c-0.869,0-1.424,0.555-1.424,1.635v4.485h-2.28L58.827,254.865
										L58.827,254.865z"/>
									<path fill="#FFFFFF" d="M68.562,256.815h-0.945v-1.875h0.945v-0.51c0-0.885,0.225-1.53,0.645-1.95s1.035-0.63,1.845-0.63
										c0.72,0,1.2,0.09,1.62,0.225v1.891c-0.33-0.12-0.645-0.195-1.035-0.195c-0.525,0-0.825,0.27-0.825,0.87v0.314h1.845v1.86
										h-1.814v6.09h-2.279v-6.09H68.562z"/>
									<path fill="#FFFFFF" d="M73.361,258.931v-0.03c0-2.311,1.86-4.185,4.365-4.185c2.49,0,4.335,1.845,4.335,4.154v0.03
										c0,2.31-1.86,4.185-4.364,4.185C75.207,263.085,73.361,261.24,73.361,258.931z M79.812,258.931v-0.03
										c0-1.186-0.854-2.22-2.114-2.22c-1.306,0-2.086,1.005-2.086,2.189v0.03c0,1.185,0.855,2.22,2.115,2.22
										C79.031,261.12,79.812,260.115,79.812,258.931z"/>
									<path fill="#FFFFFF" d="M87.807,258.945v-0.12l2.52-3.359l1.74,0.84l-1.95,2.564l1.95,2.565l-1.74,0.869L87.807,258.945z
										 M91.887,258.945v-0.12l2.52-3.359l1.74,0.84l-1.95,2.564l1.95,2.565l-1.74,0.869L91.887,258.945z"/>
									<path fill="#FFFFFF" d="M102.626,252.405h4.8c1.335,0,2.37,0.375,3.061,1.064c0.584,0.585,0.899,1.409,0.899,2.399v0.03
										c0,1.695-0.915,2.76-2.25,3.255l2.565,3.75h-2.7l-2.25-3.36h-0.03h-1.785v3.36h-2.31V252.405z M107.275,257.505
										c1.125,0,1.771-0.6,1.771-1.484v-0.03c0-0.99-0.69-1.5-1.815-1.5h-2.295v3.015L107.275,257.505L107.275,257.505z"/>
									<path fill="#FFFFFF" d="M112.691,258.931v-0.03c0-2.295,1.635-4.185,3.976-4.185c2.685,0,3.914,2.084,3.914,4.364
										c0,0.18-0.016,0.39-0.029,0.6h-5.596c0.226,1.035,0.945,1.575,1.965,1.575c0.766,0,1.32-0.24,1.951-0.825l1.305,1.155
										c-0.75,0.93-1.83,1.5-3.285,1.5C114.477,263.085,112.691,261.39,112.691,258.931z M118.36,258.255
										c-0.135-1.02-0.734-1.71-1.693-1.71c-0.945,0-1.562,0.676-1.74,1.71H118.36z"/>
									<path fill="#FFFFFF" d="M122.275,254.865h2.28v1.14c0.525-0.675,1.199-1.289,2.354-1.289c1.727,0,2.73,1.14,2.73,2.984
										v5.205h-2.28v-4.485c0-1.08-0.51-1.635-1.38-1.635s-1.425,0.555-1.425,1.635v4.485h-2.28L122.275,254.865L122.275,254.865z
										"/>
									<path fill="#FFFFFF" d="M131.23,258.931v-0.03c0-2.295,1.755-4.185,4.215-4.185c1.515,0,2.46,0.51,3.21,1.35l-1.395,1.5
										c-0.512-0.54-1.021-0.885-1.83-0.885c-1.141,0-1.95,1.005-1.95,2.189v0.03c0,1.229,0.795,2.22,2.04,2.22
										c0.766,0,1.29-0.33,1.845-0.854l1.335,1.35c-0.779,0.854-1.68,1.47-3.285,1.47C133,263.085,131.23,261.226,131.23,258.931z
										"/>
									<path fill="#FFFFFF" d="M139.57,258.931v-0.03c0-2.311,1.86-4.185,4.365-4.185c2.489,0,4.335,1.845,4.335,4.154v0.03
										c0,2.31-1.859,4.185-4.365,4.185C141.415,263.085,139.57,261.24,139.57,258.931z M146.021,258.931v-0.03
										c0-1.186-0.854-2.22-2.115-2.22c-1.305,0-2.085,1.005-2.085,2.189v0.03c0,1.185,0.854,2.22,2.115,2.22
										C145.241,261.12,146.021,260.115,146.021,258.931z"/>
									<path fill="#FFFFFF" d="M149.92,254.865h2.279v1.14c0.525-0.675,1.2-1.289,2.354-1.289c1.726,0,2.729,1.14,2.729,2.984
										v5.205h-2.279v-4.485c0-1.08-0.51-1.635-1.381-1.635c-0.869,0-1.424,0.555-1.424,1.635v4.485h-2.281v-8.04H149.92z"/>
									<path fill="#FFFFFF" d="M159.64,260.625v-3.81h-0.96v-1.95h0.96v-2.055h2.28v2.055h1.89v1.95h-1.89v3.435
										c0,0.525,0.225,0.78,0.734,0.78c0.42,0,0.795-0.105,1.125-0.285v1.83c-0.48,0.285-1.035,0.465-1.801,0.465
										C160.584,263.04,159.64,262.485,159.64,260.625z"/>
									<path fill="#FFFFFF" d="M165.489,254.865h2.28v1.62c0.465-1.11,1.215-1.83,2.565-1.77v2.385h-0.121
										c-1.516,0-2.444,0.915-2.444,2.835v2.97h-2.28V254.865z"/>
									<path fill="#FFFFFF" d="M171.146,258.931v-0.03c0-2.295,1.635-4.185,3.976-4.185c2.686,0,3.914,2.084,3.914,4.364
										c0,0.18-0.015,0.39-0.029,0.6h-5.596c0.227,1.035,0.945,1.575,1.965,1.575c0.767,0,1.32-0.24,1.951-0.825l1.305,1.155
										c-0.75,0.93-1.83,1.5-3.284,1.5C172.931,263.085,171.146,261.39,171.146,258.931z M176.815,258.255
										c-0.135-1.02-0.734-1.71-1.695-1.71c-0.943,0-1.56,0.676-1.738,1.71H176.815z"/>
									<path fill="#FFFFFF" d="M184.75,260.595v-0.029c0-1.755,1.334-2.565,3.24-2.565c0.809,0,1.395,0.135,1.965,0.33v-0.135
										c0-0.945-0.586-1.47-1.727-1.47c-0.87,0-1.484,0.165-2.221,0.435l-0.569-1.74c0.886-0.39,1.756-0.645,3.12-0.645
										c1.245,0,2.146,0.33,2.715,0.9c0.602,0.6,0.87,1.484,0.87,2.564v4.665h-2.205v-0.87c-0.556,0.615-1.319,1.02-2.431,1.02
										C185.995,263.055,184.75,262.186,184.75,260.595z M189.984,260.07v-0.405c-0.39-0.18-0.899-0.3-1.454-0.3
										c-0.976,0-1.574,0.39-1.574,1.11v0.029c0,0.615,0.51,0.976,1.244,0.976C189.265,261.48,189.984,260.896,189.984,260.07z"/>
									<path fill="#FFFFFF" d="M193.09,254.865h2.414l1.801,5.385l1.814-5.385h2.369l-3.164,8.1h-2.07L193.09,254.865z"/>
									<path fill="#FFFFFF" d="M201.97,258.931v-0.03c0-2.295,1.635-4.185,3.975-4.185c2.687,0,3.915,2.084,3.915,4.364
										c0,0.18-0.015,0.39-0.029,0.6h-5.596c0.227,1.035,0.945,1.575,1.965,1.575c0.766,0,1.32-0.24,1.95-0.825l1.306,1.155
										c-0.75,0.93-1.83,1.5-3.285,1.5C203.754,263.085,201.97,261.39,201.97,258.931z M207.64,258.255
										c-0.136-1.02-0.735-1.71-1.695-1.71c-0.944,0-1.56,0.676-1.739,1.71H207.64z"/>
									<path fill="#FFFFFF" d="M211.165,258.931v-0.03c0-2.295,1.756-4.185,4.215-4.185c1.516,0,2.461,0.51,3.211,1.35l-1.396,1.5
										c-0.511-0.54-1.021-0.885-1.83-0.885c-1.141,0-1.95,1.005-1.95,2.189v0.03c0,1.229,0.795,2.22,2.041,2.22
										c0.765,0,1.289-0.33,1.844-0.854l1.336,1.35c-0.78,0.854-1.68,1.47-3.285,1.47
										C212.935,263.085,211.165,261.226,211.165,258.931z"/>
									<path fill="#FFFFFF" d="M15.492,279.375l1.365-1.635c0.945,0.78,1.936,1.274,3.135,1.274c0.945,0,1.516-0.375,1.516-0.989
										v-0.03c0-0.585-0.36-0.885-2.115-1.335c-2.115-0.54-3.48-1.125-3.48-3.21v-0.03c0-1.904,1.53-3.164,3.676-3.164
										c1.529,0,2.834,0.479,3.899,1.335l-1.2,1.739c-0.93-0.645-1.845-1.035-2.729-1.035c-0.886,0-1.351,0.405-1.351,0.915v0.03
										c0,0.69,0.451,0.915,2.266,1.38c2.13,0.555,3.33,1.32,3.33,3.15v0.029c0,2.085-1.59,3.255-3.855,3.255
										C18.357,281.055,16.752,280.5,15.492,279.375z"/>
									<path fill="#FFFFFF" d="M25.873,278.625v-3.81h-0.961v-1.95h0.961v-2.055h2.279v2.055h1.891v1.95h-1.891v3.435
										c0,0.525,0.225,0.78,0.734,0.78c0.42,0,0.795-0.105,1.125-0.285v1.83c-0.479,0.285-1.034,0.465-1.799,0.465
										C26.817,281.04,25.873,280.485,25.873,278.625z"/>
									<path fill="#FFFFFF" d="M31.332,276.931v-0.03c0-2.295,1.636-4.185,3.976-4.185c2.685,0,3.915,2.084,3.915,4.364
										c0,0.18-0.016,0.39-0.03,0.6h-5.595c0.225,1.035,0.945,1.575,1.965,1.575c0.766,0,1.32-0.24,1.949-0.825l1.306,1.155
										c-0.75,0.93-1.83,1.5-3.285,1.5C33.117,281.085,31.332,279.39,31.332,276.931z M37.002,276.255
										c-0.135-1.02-0.734-1.71-1.694-1.71c-0.945,0-1.56,0.676-1.74,1.71H37.002z M36.088,269.325l1.965,0.855l-1.92,1.8h-1.74
										L36.088,269.325z"/>
									<path fill="#FFFFFF" d="M40.918,272.865h2.279v1.155c0.555-0.75,1.32-1.305,2.505-1.305c1.875,0,3.66,1.47,3.66,4.154v0.03
										c0,2.685-1.755,4.154-3.66,4.154c-1.215,0-1.965-0.555-2.505-1.199v3.449h-2.279V272.865z M47.082,276.9v-0.03
										c0-1.335-0.9-2.22-1.965-2.22s-1.949,0.885-1.949,2.22v0.03c0,1.335,0.885,2.22,1.949,2.22S47.082,278.25,47.082,276.9z"/>
									<path fill="#FFFFFF" d="M51.043,269.955h2.279v4.05c0.525-0.675,1.2-1.289,2.355-1.289c1.725,0,2.729,1.14,2.729,2.984
										v5.205h-2.28v-4.485c0-1.08-0.51-1.635-1.38-1.635s-1.425,0.555-1.425,1.635v4.485h-2.279L51.043,269.955L51.043,269.955z"
										/>
									<path fill="#FFFFFF" d="M59.907,278.595v-0.029c0-1.755,1.335-2.565,3.239-2.565c0.811,0,1.396,0.135,1.965,0.33v-0.135
										c0-0.945-0.584-1.47-1.725-1.47c-0.869,0-1.484,0.165-2.22,0.435l-0.569-1.74c0.885-0.39,1.754-0.645,3.119-0.645
										c1.245,0,2.145,0.33,2.715,0.9c0.6,0.6,0.87,1.484,0.87,2.564v4.665h-2.204v-0.87c-0.556,0.615-1.32,1.02-2.431,1.02
										C61.152,281.055,59.907,280.186,59.907,278.595z M65.143,278.07v-0.405c-0.391-0.18-0.9-0.3-1.455-0.3
										c-0.976,0-1.575,0.39-1.575,1.11v0.029c0,0.615,0.51,0.976,1.245,0.976C64.422,279.48,65.143,278.896,65.143,278.07z"/>
									<path fill="#FFFFFF" d="M69.268,272.865h2.279v1.14c0.525-0.675,1.2-1.289,2.355-1.289c1.725,0,2.729,1.14,2.729,2.984
										v5.205h-2.28v-4.485c0-1.08-0.51-1.635-1.38-1.635c-0.87,0-1.425,0.555-1.425,1.635v4.485h-2.279L69.268,272.865
										L69.268,272.865z"/>
									<path fill="#FFFFFF" d="M78.222,276.931v-0.03c0-2.295,1.636-4.185,3.976-4.185c2.684,0,3.914,2.084,3.914,4.364
										c0,0.18-0.015,0.39-0.029,0.6h-5.596c0.226,1.035,0.945,1.575,1.965,1.575c0.766,0,1.32-0.24,1.95-0.825l1.306,1.155
										c-0.75,0.93-1.83,1.5-3.285,1.5C80.007,281.085,78.222,279.39,78.222,276.931z M83.892,276.255
										c-0.136-1.02-0.735-1.71-1.694-1.71c-0.945,0-1.561,0.676-1.74,1.71H83.892z"/>
									<path fill="#FFFFFF" d="M92.547,270.405h4.875c1.199,0,2.145,0.33,2.744,0.93c0.48,0.48,0.721,1.065,0.721,1.785v0.03
										c0,1.185-0.631,1.845-1.381,2.265c1.215,0.465,1.965,1.17,1.965,2.58v0.03c0,1.92-1.56,2.88-3.93,2.88h-4.994V270.405z
										 M96.926,274.65c1.021,0,1.666-0.33,1.666-1.11v-0.029c0-0.689-0.541-1.08-1.516-1.08h-2.279v2.22L96.926,274.65
										L96.926,274.65z M97.541,278.88c1.021,0,1.635-0.359,1.635-1.14v-0.03c0-0.705-0.524-1.14-1.709-1.14h-2.67v2.31H97.541z"
										/>
									<path fill="#FFFFFF" d="M103.241,269.955h2.28v10.95h-2.28V269.955z"/>
									<path fill="#FFFFFF" d="M107.186,278.595v-0.029c0-1.755,1.336-2.565,3.24-2.565c0.811,0,1.395,0.135,1.965,0.33v-0.135
										c0-0.945-0.585-1.47-1.725-1.47c-0.87,0-1.485,0.165-2.221,0.435l-0.569-1.74c0.885-0.39,1.755-0.645,3.12-0.645
										c1.244,0,2.145,0.33,2.715,0.9c0.6,0.6,0.87,1.484,0.87,2.564v4.665h-2.205v-0.87c-0.556,0.615-1.32,1.02-2.431,1.02
										C108.432,281.055,107.186,280.186,107.186,278.595z M112.421,278.07v-0.405c-0.39-0.18-0.899-0.3-1.455-0.3
										c-0.976,0-1.575,0.39-1.575,1.11v0.029c0,0.615,0.51,0.976,1.245,0.976C111.701,279.48,112.421,278.896,112.421,278.07z"/>
									<path fill="#FFFFFF" d="M116.545,272.865h2.281v1.14c0.524-0.675,1.199-1.289,2.354-1.289c1.726,0,2.73,1.14,2.73,2.984
										v5.205h-2.281v-4.485c0-1.08-0.51-1.635-1.379-1.635c-0.871,0-1.426,0.555-1.426,1.635v4.485h-2.279V272.865
										L116.545,272.865z"/>
									<path fill="#FFFFFF" d="M131.696,279.75c-0.556,0.75-1.32,1.305-2.506,1.305c-1.874,0-3.659-1.47-3.659-4.154v-0.03
										c0-2.685,1.755-4.154,3.659-4.154c1.216,0,1.966,0.555,2.506,1.199v-1.05h2.279v10.439h-2.279V279.75z M131.726,276.9
										v-0.03c0-1.335-0.886-2.22-1.949-2.22c-1.065,0-1.966,0.87-1.966,2.22v0.03c0,1.335,0.9,2.22,1.966,2.22
										C130.84,279.12,131.726,278.235,131.726,276.9z"/>
									<path fill="#FFFFFF" d="M135.956,278.07v-5.205h2.28v4.485c0,1.079,0.511,1.635,1.38,1.635c0.87,0,1.426-0.556,1.426-1.635
										v-4.485h2.278v8.04h-2.278v-1.141c-0.525,0.676-1.201,1.29-2.355,1.29C136.961,281.055,135.956,279.915,135.956,278.07z"/>
									<path fill="#FFFFFF" d="M144.971,276.931v-0.03c0-2.295,1.635-4.185,3.975-4.185c2.686,0,3.915,2.084,3.915,4.364
										c0,0.18-0.015,0.39-0.03,0.6h-5.595c0.226,1.035,0.945,1.575,1.966,1.575c0.766,0,1.319-0.24,1.949-0.825l1.305,1.155
										c-0.75,0.93-1.828,1.5-3.283,1.5C146.756,281.085,144.971,279.39,144.971,276.931z M150.641,276.255
										c-0.135-1.02-0.735-1.71-1.695-1.71c-0.943,0-1.56,0.676-1.738,1.71H150.641z"/>
									<path fill="#FFFFFF" d="M154.93,278.625v-3.81h-0.96v-1.95h0.96v-2.055h2.279v2.055h1.891v1.95h-1.891v3.435
										c0,0.525,0.226,0.78,0.735,0.78c0.42,0,0.795-0.105,1.125-0.285v1.83c-0.479,0.285-1.034,0.465-1.801,0.465
										C155.875,281.04,154.93,280.485,154.93,278.625z"/>
									<path fill="#FFFFFF" d="M160.149,282.39c1.035-0.104,1.545-0.63,1.471-1.484h-0.931v-2.4h2.431v2.025
										c0,1.979-0.99,2.774-2.774,2.805L160.149,282.39z"/>
									<path fill="#FFFFFF" d="M169.09,278.595v-0.029c0-1.755,1.334-2.565,3.24-2.565c0.81,0,1.395,0.135,1.965,0.33v-0.135
										c0-0.945-0.586-1.47-1.727-1.47c-0.869,0-1.484,0.165-2.22,0.435l-0.57-1.74c0.886-0.39,1.757-0.645,3.12-0.645
										c1.245,0,2.146,0.33,2.715,0.9c0.602,0.6,0.87,1.484,0.87,2.564v4.665h-2.205v-0.87c-0.555,0.615-1.319,1.02-2.43,1.02
										C170.334,281.055,169.09,280.186,169.09,278.595z M174.325,278.07v-0.405c-0.391-0.18-0.9-0.3-1.455-0.3
										c-0.976,0-1.574,0.39-1.574,1.11v0.029c0,0.615,0.51,0.976,1.244,0.976C173.604,279.48,174.325,278.896,174.325,278.07z"/>
									<path fill="#FFFFFF" d="M178.45,272.865h2.279v1.62c0.465-1.11,1.215-1.83,2.564-1.77v2.385h-0.119
										c-1.516,0-2.445,0.915-2.445,2.835v2.97h-2.279V272.865z"/>
									<path fill="#FFFFFF" d="M185.095,278.625v-3.81h-0.96v-1.95h0.96v-2.055h2.28v2.055h1.89v1.95h-1.89v3.435
										c0,0.525,0.225,0.78,0.734,0.78c0.42,0,0.795-0.105,1.125-0.285v1.83c-0.48,0.285-1.035,0.465-1.801,0.465
										C186.04,281.04,185.095,280.485,185.095,278.625z"/>
									<path fill="#FFFFFF" d="M190.991,269.955h2.398v2.025h-2.398V269.955z M191.049,272.865h2.281v8.04h-2.281V272.865z"/>
									<path fill="#FFFFFF" d="M194.844,279.84l0.976-1.5c0.87,0.63,1.784,0.96,2.534,0.96c0.66,0,0.96-0.239,0.96-0.6v-0.03
										c0-0.495-0.778-0.66-1.664-0.93c-1.125-0.33-2.399-0.855-2.399-2.415v-0.03c0-1.635,1.319-2.55,2.938-2.55
										c1.021,0,2.131,0.346,3,0.931l-0.869,1.574c-0.796-0.465-1.591-0.75-2.176-0.75c-0.556,0-0.84,0.24-0.84,0.556v0.029
										c0,0.45,0.766,0.66,1.635,0.96c1.125,0.375,2.431,0.915,2.431,2.385v0.03c0,1.785-1.334,2.595-3.074,2.595
										C197.168,281.055,195.909,280.68,194.844,279.84z"/>
									<path fill="#FFFFFF" d="M203.229,278.625v-3.81h-0.96v-1.95h0.96v-2.055h2.279v2.055h1.891v1.95h-1.891v3.435
										c0,0.525,0.226,0.78,0.736,0.78c0.42,0,0.795-0.105,1.125-0.285v1.83c-0.48,0.285-1.035,0.465-1.802,0.465
										C204.174,281.04,203.229,280.485,203.229,278.625z"/>
									<path fill="#FFFFFF" d="M208.465,276.931v-0.03c0-2.295,1.635-4.185,3.975-4.185c2.686,0,3.915,2.084,3.915,4.364
										c0,0.18-0.015,0.39-0.03,0.6h-5.595c0.226,1.035,0.944,1.575,1.965,1.575c0.767,0,1.32-0.24,1.95-0.825l1.305,1.155
										c-0.75,0.93-1.828,1.5-3.283,1.5C210.25,281.085,208.465,279.39,208.465,276.931z M214.135,276.255
										c-0.135-1.02-0.735-1.71-1.695-1.71c-0.943,0-1.561,0.676-1.738,1.71H214.135z"/>
									<path fill="#FFFFFF" d="M15.973,287.955h2.279v4.05c0.525-0.675,1.201-1.289,2.355-1.289c1.725,0,2.73,1.14,2.73,2.984
										v5.205h-2.28v-4.485c0-1.08-0.511-1.635-1.38-1.635c-0.87,0-1.426,0.555-1.426,1.635v4.485h-2.279L15.973,287.955
										L15.973,287.955z"/>
									<path fill="#FFFFFF" d="M24.928,294.931v-0.03c0-2.311,1.859-4.185,4.364-4.185c2.49,0,4.335,1.845,4.335,4.154v0.03
										c0,2.31-1.859,4.185-4.365,4.185C26.772,299.085,24.928,297.24,24.928,294.931z M31.377,294.931v-0.03
										c0-1.186-0.855-2.22-2.115-2.22c-1.305,0-2.084,1.005-2.084,2.189v0.03c0,1.185,0.854,2.22,2.114,2.22
										C30.598,297.12,31.377,296.115,31.377,294.931z"/>
									<path fill="#FFFFFF" d="M35.277,290.865h2.279v1.62c0.465-1.11,1.215-1.83,2.565-1.77v2.385h-0.12
										c-1.515,0-2.445,0.915-2.445,2.835v2.97h-2.279V290.865z"/>
									<path fill="#FFFFFF" d="M40.918,297.84l0.975-1.5c0.869,0.63,1.785,0.96,2.535,0.96c0.659,0,0.959-0.239,0.959-0.6v-0.03
										c0-0.495-0.779-0.66-1.664-0.93c-1.125-0.33-2.4-0.855-2.4-2.415v-0.03c0-1.635,1.32-2.55,2.939-2.55
										c1.021,0,2.131,0.346,3,0.931l-0.869,1.574c-0.795-0.465-1.59-0.75-2.176-0.75c-0.555,0-0.84,0.24-0.84,0.556v0.029
										c0,0.45,0.766,0.66,1.635,0.96c1.125,0.375,2.43,0.915,2.43,2.385v0.03c0,1.785-1.334,2.595-3.074,2.595
										C43.242,299.055,41.982,298.68,40.918,297.84z"/>
									<path fill="#FFFFFF" d="M53.577,290.865h2.28v1.14c0.524-0.675,1.199-1.289,2.354-1.289c1.726,0,2.729,1.14,2.729,2.984
										v5.205h-2.279v-4.485c0-1.08-0.51-1.635-1.381-1.635c-0.869,0-1.424,0.555-1.424,1.635v4.485h-2.28L53.577,290.865
										L53.577,290.865z"/>
									<path fill="#FFFFFF" d="M62.531,294.931v-0.03c0-2.311,1.86-4.185,4.365-4.185c2.49,0,4.335,1.845,4.335,4.154v0.03
										c0,2.31-1.86,4.185-4.364,4.185C64.377,299.085,62.531,297.24,62.531,294.931z M68.981,294.931v-0.03
										c0-1.186-0.854-2.22-2.114-2.22c-1.306,0-2.086,1.005-2.086,2.189v0.03c0,1.185,0.855,2.22,2.115,2.22
										C68.201,297.12,68.981,296.115,68.981,294.931z"/>
									<path fill="#FFFFFF" d="M72.882,290.865h2.28v1.62c0.465-1.11,1.215-1.83,2.564-1.77v2.385h-0.12
										c-1.515,0-2.444,0.915-2.444,2.835v2.97h-2.28V290.865z"/>
									<path fill="#FFFFFF" d="M79.151,290.865h2.28v1.14c0.524-0.675,1.215-1.289,2.369-1.289c1.051,0,1.846,0.465,2.266,1.274
										c0.705-0.825,1.545-1.274,2.64-1.274c1.694,0,2.715,1.02,2.715,2.954v5.235h-2.28v-4.485c0-1.08-0.479-1.635-1.334-1.635
										s-1.381,0.555-1.381,1.635v4.485h-2.279v-4.485c0-1.08-0.48-1.635-1.336-1.635c-0.854,0-1.379,0.555-1.379,1.635v4.485
										h-2.28L79.151,290.865L79.151,290.865z"/>
									<path fill="#FFFFFF" d="M93.012,294.931v-0.03c0-2.295,1.635-4.185,3.975-4.185c2.685,0,3.914,2.084,3.914,4.364
										c0,0.18-0.014,0.39-0.029,0.6h-5.595c0.225,1.035,0.944,1.575,1.965,1.575c0.765,0,1.319-0.24,1.95-0.825l1.305,1.155
										c-0.75,0.93-1.83,1.5-3.285,1.5C94.797,299.085,93.012,297.39,93.012,294.931z M98.682,294.255
										c-0.136-1.02-0.735-1.71-1.695-1.71c-0.945,0-1.561,0.676-1.74,1.71H98.682z"/>
									<path fill="#FFFFFF" d="M101.967,297.84l0.975-1.5c0.869,0.63,1.785,0.96,2.535,0.96c0.659,0,0.959-0.239,0.959-0.6v-0.03
										c0-0.495-0.779-0.66-1.664-0.93c-1.125-0.33-2.4-0.855-2.4-2.415v-0.03c0-1.635,1.32-2.55,2.939-2.55
										c1.021,0,2.131,0.346,3,0.931l-0.869,1.574c-0.795-0.465-1.59-0.75-2.176-0.75c-0.555,0-0.84,0.24-0.84,0.556v0.029
										c0,0.45,0.766,0.66,1.635,0.96c1.125,0.375,2.43,0.915,2.43,2.385v0.03c0,1.785-1.334,2.595-3.074,2.595
										C104.291,299.055,103.031,298.68,101.967,297.84z"/>
									<path fill="#FFFFFF" d="M114.326,297.465l1.95-2.564l-1.95-2.565l1.74-0.869l2.521,3.359v0.12l-2.521,3.359
										L114.326,297.465z M118.406,297.465l1.95-2.564l-1.95-2.565l1.74-0.869l2.521,3.359v0.12l-2.521,3.359L118.406,297.465z"/>
									<path fill="#FFFFFF" d="M128.59,293.686v-0.03c0-3.045,1.892-5.43,4.682-5.43c2.773,0,4.648,2.354,4.648,5.399v0.03
										c0,3.045-1.875,5.43-4.68,5.43S128.59,296.73,128.59,293.686z M135.551,293.686v-0.03c0-1.905-0.93-3.345-2.311-3.345
										c-1.38,0-2.279,1.395-2.279,3.314v0.03c0,1.92,0.914,3.345,2.311,3.345C134.667,297,135.551,295.59,135.551,293.686z"/>
									<path fill="#FFFFFF" d="M139.316,297.075l3.494-2.865c1.306-1.08,1.815-1.649,1.815-2.52c0-0.885-0.586-1.365-1.41-1.365
										c-0.811,0-1.365,0.45-2.146,1.41l-1.62-1.305c1.035-1.41,2.04-2.175,3.915-2.175c2.175,0,3.614,1.274,3.614,3.239v0.03
										c0,1.755-0.898,2.625-2.76,4.064l-1.711,1.32h4.576v1.995h-7.771v-1.828H139.316z"/>
									<path fill="#FFFFFF" d="M148.931,290.865h2.43v2.4h-2.43V290.865z M148.931,296.505h2.43v2.4h-2.43V296.505z"/>
									<path fill="#FFFFFF" d="M152.936,297.271l1.59-1.516c0.721,0.811,1.471,1.26,2.534,1.26c0.87,0,1.485-0.494,1.485-1.274
										v-0.03c0-0.854-0.766-1.335-2.055-1.335h-0.961l-0.359-1.47l2.504-2.52h-4.125v-1.98h7.096v1.74l-2.654,2.535
										c1.426,0.239,2.819,0.989,2.819,2.939v0.03c0,1.979-1.438,3.435-3.779,3.435
										C155.14,299.085,153.834,298.335,152.936,297.271z"/>
									<path fill="#FFFFFF" d="M162.25,297.51l1.396-1.665c0.795,0.721,1.575,1.141,2.505,1.141c1.08,0,1.755-0.525,1.755-1.455
										v-0.03c0-0.899-0.765-1.425-1.86-1.425c-0.658,0-1.26,0.18-1.754,0.39l-1.336-0.885l0.301-5.175h6.449v2.025h-4.47
										l-0.12,1.814c0.42-0.104,0.795-0.18,1.381-0.18c2.039,0,3.674,0.99,3.674,3.359v0.03c0,2.22-1.574,3.63-3.988,3.63
										C164.5,299.085,163.271,298.485,162.25,297.51z"/>
								</g>
								<g>
									<path fill="#FFFFFF" d="M19.258,325.388h-3.735v-0.465h7.995v0.465h-3.75v10.035h-0.51V325.388z"/>
									<path fill="#FFFFFF" d="M24.043,327.863h0.479v2.31c0.45-1.29,1.604-2.505,3.21-2.46v0.495c-0.016,0-0.061,0-0.075,0
										c-1.83,0-3.135,1.77-3.135,3.63v3.585h-0.479V327.863z"/>
									<path fill="#FFFFFF" d="M28.453,333.293v-0.03c0-1.575,1.424-2.43,3.344-2.43c1.051,0,1.965,0.18,2.7,0.42v-0.51
										c0-1.71-1.021-2.55-2.7-2.55c-0.93,0-1.709,0.255-2.459,0.63l-0.181-0.42c0.841-0.405,1.665-0.66,2.67-0.66
										c1.035,0,1.845,0.27,2.399,0.825c0.48,0.494,0.75,1.215,0.75,2.145v4.71h-0.479v-1.575c-0.39,0.825-1.44,1.755-3.18,1.755
										C29.862,335.603,28.453,334.822,28.453,333.293z M34.512,332.633v-0.93c-0.734-0.24-1.604-0.42-2.729-0.42
										c-1.665,0-2.819,0.704-2.819,1.949v0.03c0,1.245,1.125,1.89,2.385,1.89C33.178,335.152,34.512,333.982,34.512,332.633z"/>
									<path fill="#FFFFFF" d="M37.092,331.658v-0.03c0-2.13,1.68-3.945,3.87-3.945c1.396,0,2.28,0.63,3.015,1.396l-0.345,0.345
										c-0.66-0.705-1.485-1.29-2.685-1.29c-1.905,0-3.346,1.575-3.346,3.479v0.03c0,1.905,1.485,3.51,3.375,3.51
										c1.2,0,2.055-0.614,2.715-1.35l0.346,0.3c-0.735,0.855-1.68,1.5-3.09,1.5C38.771,335.603,37.092,333.803,37.092,331.658z"
										/>
									<path fill="#FFFFFF" d="M46.092,324.473h0.48v8.28l5.025-4.89h0.645l-3.48,3.345l3.66,4.215h-0.6l-3.391-3.885
										l-1.859,1.784v2.101h-0.48V324.473z"/>
									<path fill="#FFFFFF" d="M53.637,334.447l0.285-0.375c0.84,0.66,1.846,1.035,2.82,1.035c1.215,0,2.16-0.645,2.16-1.575
										v-0.029c0-1.065-1.141-1.396-2.295-1.71c-1.41-0.405-2.625-0.795-2.625-2.055v-0.03c0-1.125,1.035-1.98,2.58-1.98
										c0.869,0,1.859,0.301,2.654,0.841l-0.27,0.404c-0.721-0.51-1.605-0.795-2.4-0.795c-1.244,0-2.07,0.646-2.07,1.485v0.029
										c0,0.945,1.065,1.29,2.295,1.636c1.381,0.375,2.625,0.81,2.625,2.13v0.029c0,1.245-1.17,2.07-2.685,2.07
										C55.633,335.558,54.463,335.138,53.637,334.447z"/>
									<path fill="#FFFFFF" d="M65.367,331.643v-0.09l2.535-3.104l0.33,0.239l-2.295,2.91l2.295,2.91l-0.33,0.24L65.367,331.643z
										 M68.111,331.643v-0.09l2.551-3.104l0.33,0.239l-2.295,2.91l2.295,2.91l-0.33,0.24L68.111,331.643z"/>
									<path fill="#FFFFFF" d="M77.621,330.893v-5.97h0.51v5.94c0,2.789,1.5,4.26,3.78,4.26c2.265,0,3.735-1.41,3.735-4.23v-5.97
										h0.51v5.925c0,3.135-1.725,4.74-4.26,4.74C79.377,335.588,77.621,333.998,77.621,330.893z"/>
									<path fill="#FFFFFF" d="M88.946,327.863h0.479v1.8c0.346-0.9,1.291-1.98,2.91-1.98c1.995,0,3.12,1.351,3.12,3.315v4.425
										h-0.479v-4.35c0-1.756-0.945-2.94-2.701-2.94c-1.59,0-2.85,1.305-2.85,3.03v4.26h-0.479V327.863L88.946,327.863z"/>
									<path fill="#FFFFFF" d="M101.921,331.658v-0.03c0-2.295,1.694-3.945,3.735-3.945c1.664,0,2.834,0.99,3.344,2.235v-5.445
										h0.48v10.95H109v-2.085c-0.524,1.26-1.694,2.265-3.344,2.265C103.615,335.603,101.921,333.968,101.921,331.658z
										 M109.031,331.658v-0.03c0-1.95-1.485-3.48-3.33-3.48c-1.905,0-3.27,1.44-3.27,3.465v0.03c0,1.995,1.395,3.495,3.27,3.495
										C107.561,335.138,109.031,333.607,109.031,331.658z"/>
									<path fill="#FFFFFF" d="M111.73,331.673v-0.03c0-2.114,1.605-3.96,3.931-3.96c2.311,0,3.899,1.815,3.899,3.93v0.03
										c0,2.115-1.59,3.96-3.915,3.96C113.336,335.603,111.73,333.788,111.73,331.673z M119.051,331.658v-0.03
										c0-1.905-1.455-3.495-3.42-3.495c-1.995,0-3.375,1.59-3.375,3.495v0.03c0,1.904,1.439,3.494,3.405,3.494
										C117.655,335.152,119.051,333.562,119.051,331.658z"/>
									<path fill="#FFFFFF" d="M121.286,331.658v-0.03c0-2.13,1.68-3.945,3.87-3.945c1.396,0,2.279,0.63,3.015,1.396l-0.344,0.345
										c-0.66-0.705-1.486-1.29-2.687-1.29c-1.904,0-3.345,1.575-3.345,3.479v0.03c0,1.905,1.484,3.51,3.375,3.51
										c1.199,0,2.055-0.614,2.715-1.35l0.345,0.3c-0.733,0.855-1.681,1.5-3.09,1.5
										C122.965,335.603,121.286,333.803,121.286,331.658z"/>
									<path fill="#FFFFFF" d="M130.136,332.288v-4.425h0.479v4.35c0,1.755,0.944,2.939,2.699,2.939c1.59,0,2.85-1.305,2.85-3.029
										v-4.26h0.48v7.56h-0.48v-1.8c-0.345,0.899-1.289,1.979-2.908,1.979C131.261,335.603,130.136,334.253,130.136,332.288z"/>
									<path fill="#FFFFFF" d="M139.435,327.863h0.479v1.694c0.33-0.885,1.229-1.875,2.58-1.875c1.516,0,2.34,0.915,2.67,1.995
										c0.375-0.99,1.336-1.995,2.715-1.995c1.726,0,2.865,1.17,2.865,3.226v4.515h-0.479v-4.47c0-1.83-0.96-2.82-2.415-2.82
										c-1.29,0-2.52,1.17-2.52,2.88v4.41h-0.48v-4.485c0-1.8-0.975-2.805-2.398-2.805c-1.32,0-2.535,1.26-2.535,2.895v4.396
										h-0.48L139.435,327.863L139.435,327.863z"/>
									<path fill="#FFFFFF" d="M152.92,331.643v-0.03c0-2.22,1.529-3.93,3.615-3.93c2.279,0,3.465,1.95,3.465,3.976
										c0,0.074,0,0.104,0,0.165h-6.556c0.091,2.055,1.546,3.329,3.24,3.329c1.17,0,2.114-0.614,2.715-1.395l0.36,0.285
										c-0.69,0.899-1.711,1.56-3.09,1.56C154.631,335.603,152.92,334.058,152.92,331.643z M159.476,331.388
										c-0.075-1.649-1.08-3.255-2.97-3.255c-1.711,0-2.971,1.396-3.062,3.255H159.476z"/>
									<path fill="#FFFFFF" d="M162.189,327.863h0.479v1.8c0.346-0.9,1.291-1.98,2.91-1.98c1.994,0,3.119,1.351,3.119,3.315v4.425
										h-0.479v-4.35c0-1.756-0.945-2.94-2.7-2.94c-1.59,0-2.851,1.305-2.851,3.03v4.26h-0.479V327.863z"/>
									<path fill="#FFFFFF" d="M171.745,333.487v-5.189h-1.154v-0.435h1.154v-2.535h0.48v2.535h2.744v0.435h-2.744v5.145
										c0,1.11,0.585,1.665,1.574,1.665c0.375,0,0.75-0.09,1.141-0.27v0.465c-0.375,0.18-0.766,0.255-1.186,0.255
										C172.54,335.558,171.745,334.853,171.745,333.487z"/>
									<path fill="#FFFFFF" d="M176.47,333.293v-0.03c0-1.575,1.425-2.43,3.345-2.43c1.051,0,1.966,0.18,2.7,0.42v-0.51
										c0-1.71-1.021-2.55-2.7-2.55c-0.93,0-1.71,0.255-2.459,0.63l-0.182-0.42c0.841-0.405,1.666-0.66,2.671-0.66
										c1.034,0,1.845,0.27,2.399,0.825c0.479,0.494,0.75,1.215,0.75,2.145v4.71h-0.479v-1.575
										c-0.39,0.825-1.438,1.755-3.181,1.755C177.879,335.603,176.47,334.822,176.47,333.293z M182.53,332.633v-0.93
										c-0.734-0.24-1.605-0.42-2.73-0.42c-1.664,0-2.818,0.704-2.818,1.949v0.03c0,1.245,1.124,1.89,2.385,1.89
										C181.195,335.152,182.53,333.982,182.53,332.633z"/>
									<path fill="#FFFFFF" d="M185.649,324.863h0.645v0.915h-0.645V324.863z M185.725,327.863h0.494v7.56h-0.494V327.863z"/>
									<path fill="#FFFFFF" d="M189.099,327.863h0.479v2.31c0.45-1.29,1.604-2.505,3.211-2.46v0.495c-0.017,0-0.062,0-0.076,0
										c-1.83,0-3.135,1.77-3.135,3.63v3.585h-0.479V327.863L189.099,327.863z"/>
									<path fill="#FFFFFF" d="M193.614,331.643v-0.03c0-2.22,1.529-3.93,3.614-3.93c2.28,0,3.465,1.95,3.465,3.976
										c0,0.074,0,0.104,0,0.165h-6.555c0.091,2.055,1.545,3.329,3.239,3.329c1.17,0,2.115-0.614,2.715-1.395l0.361,0.285
										c-0.69,0.899-1.711,1.56-3.091,1.56C195.325,335.603,193.614,334.058,193.614,331.643z M200.168,331.388
										c-0.074-1.649-1.08-3.255-2.969-3.255c-1.711,0-2.971,1.396-3.062,3.255H200.168z"/>
									<path fill="#FFFFFF" d="M15.643,352.447l0.285-0.375c0.84,0.66,1.845,1.035,2.82,1.035c1.215,0,2.159-0.645,2.159-1.575
										v-0.029c0-1.065-1.14-1.396-2.295-1.71c-1.409-0.405-2.624-0.795-2.624-2.055v-0.03c0-1.125,1.034-1.98,2.579-1.98
										c0.87,0,1.86,0.301,2.655,0.841l-0.271,0.404c-0.72-0.51-1.604-0.795-2.399-0.795c-1.245,0-2.07,0.646-2.07,1.485v0.029
										c0,0.945,1.064,1.29,2.295,1.636c1.38,0.375,2.625,0.81,2.625,2.13v0.029c0,1.245-1.17,2.07-2.686,2.07
										C17.638,353.558,16.468,353.138,15.643,352.447z"/>
									<path fill="#FFFFFF" d="M23.593,350.288v-4.425h0.479v4.35c0,1.755,0.945,2.939,2.7,2.939c1.59,0,2.851-1.305,2.851-3.029
										v-4.26h0.479v7.56h-0.479v-1.8c-0.346,0.899-1.291,1.979-2.91,1.979C24.718,353.603,23.593,352.253,23.593,350.288z"/>
									<path fill="#FFFFFF" d="M32.893,345.863h0.48v2.31c0.449-1.29,1.604-2.505,3.209-2.46v0.495c-0.015,0-0.06,0-0.074,0
										c-1.83,0-3.135,1.77-3.135,3.63v3.585h-0.48V345.863z"/>
									<path fill="#FFFFFF" d="M42.777,342.923h3.75c2.459,0,3.975,1.186,3.975,3.18v0.03c0,2.1-1.695,3.255-4.096,3.255h-3.119
										v4.035h-0.51V342.923z M46.422,348.908c2.175,0,3.57-1.021,3.57-2.761v-0.029c0-1.726-1.351-2.73-3.51-2.73h-3.195v5.521
										L46.422,348.908L46.422,348.908z"/>
									<path fill="#FFFFFF" d="M52.572,350.288v-4.425h0.48v4.35c0,1.755,0.944,2.939,2.699,2.939c1.59,0,2.85-1.305,2.85-3.029
										v-4.26h0.48v7.56h-0.48v-1.8c-0.345,0.899-1.289,1.979-2.91,1.979C53.697,353.603,52.572,352.253,52.572,350.288z"/>
									<path fill="#FFFFFF" d="M61.961,342.473h0.496v10.95h-0.496V342.473z"/>
									<path fill="#FFFFFF" d="M65.336,345.863h0.48v2.085c0.525-1.261,1.695-2.266,3.345-2.266c2.04,0,3.735,1.635,3.735,3.945
										v0.03c0,2.295-1.695,3.944-3.735,3.944c-1.665,0-2.835-0.99-3.345-2.234v4.454h-0.48V345.863z M72.387,349.673v-0.03
										c0-1.995-1.396-3.495-3.271-3.495c-1.86,0-3.33,1.53-3.33,3.48v0.03c0,1.949,1.485,3.479,3.33,3.479
										C71.021,353.138,72.387,351.697,72.387,349.673z"/>
									<path fill="#FFFFFF" d="M74.472,354.532c0.45-0.225,0.6-0.555,0.569-1.109h-0.33v-0.976h0.721v0.855
										c0,0.885-0.24,1.26-0.825,1.484L74.472,354.532z"/>
									<path fill="#FFFFFF" d="M82.062,354.697l0.284-0.39c0.945,0.72,1.996,1.095,3.166,1.095c1.904,0,3.194-1.08,3.194-3.194
										v-1.365c-0.585,1.155-1.771,2.024-3.3,2.024c-1.965,0-3.689-1.529-3.689-3.569v-0.03c0-2.055,1.725-3.585,3.689-3.585
										c1.529,0,2.715,0.87,3.3,1.995v-1.814h0.495v6.404c0,1.11-0.359,1.995-0.975,2.61c-0.646,0.645-1.605,0.989-2.715,0.989
										C84.236,355.867,83.096,355.478,82.062,354.697z M88.751,349.298v-0.03c0-1.755-1.545-3.12-3.3-3.12
										c-1.77,0-3.21,1.32-3.21,3.105v0.03c0,1.755,1.455,3.119,3.21,3.119C87.206,352.402,88.751,351.053,88.751,349.298z"/>
									<path fill="#FFFFFF" d="M91.991,345.863h0.479v2.31c0.45-1.29,1.605-2.505,3.211-2.46v0.495c-0.016,0-0.061,0-0.076,0
										c-1.83,0-3.135,1.77-3.135,3.63v3.585h-0.479V345.863z"/>
									<path fill="#FFFFFF" d="M96.491,349.673v-0.03c0-2.114,1.604-3.96,3.93-3.96c2.31,0,3.899,1.815,3.899,3.93v0.03
										c0,2.115-1.59,3.96-3.914,3.96C98.096,353.603,96.491,351.788,96.491,349.673z M103.811,349.658v-0.03
										c0-1.905-1.455-3.495-3.42-3.495c-1.994,0-3.375,1.59-3.375,3.495v0.03c0,1.904,1.44,3.494,3.405,3.494
										C102.416,353.152,103.811,351.562,103.811,349.658z"/>
									<path fill="#FFFFFF" d="M106.421,350.288v-4.425h0.479v4.35c0,1.755,0.945,2.939,2.7,2.939c1.59,0,2.851-1.305,2.851-3.029
										v-4.26h0.479v7.56h-0.479v-1.8c-0.346,0.899-1.291,1.979-2.91,1.979C107.546,353.603,106.421,352.253,106.421,350.288z"/>
									<path fill="#FFFFFF" d="M115.721,345.863h0.479v2.085c0.525-1.261,1.695-2.266,3.346-2.266
										c2.039,0,3.734,1.635,3.734,3.945v0.03c0,2.295-1.695,3.944-3.734,3.944c-1.664,0-2.834-0.99-3.346-2.234v4.454h-0.479
										V345.863z M122.771,349.673v-0.03c0-1.995-1.396-3.495-3.271-3.495c-1.859,0-3.33,1.53-3.33,3.48v0.03
										c0,1.949,1.484,3.479,3.33,3.479C121.405,353.138,122.771,351.697,122.771,349.673z"/>
									<path fill="#FFFFFF" d="M125.051,349.643v-0.03c0-2.22,1.529-3.93,3.613-3.93c2.28,0,3.465,1.95,3.465,3.976
										c0,0.074,0,0.104,0,0.165h-6.555c0.092,2.055,1.545,3.329,3.24,3.329c1.17,0,2.115-0.614,2.715-1.395l0.36,0.285
										c-0.69,0.899-1.71,1.56-3.091,1.56C126.761,353.603,125.051,352.058,125.051,349.643z M131.605,349.388
										c-0.075-1.649-1.08-3.255-2.97-3.255c-1.711,0-2.971,1.396-3.061,3.255H131.605z"/>
									<path fill="#FFFFFF" d="M138.64,345.863h0.479v2.085c0.525-1.261,1.695-2.266,3.346-2.266c2.039,0,3.734,1.635,3.734,3.945
										v0.03c0,2.295-1.695,3.944-3.734,3.944c-1.666,0-2.836-0.99-3.346-2.234v4.454h-0.479V345.863z M145.689,349.673v-0.03
										c0-1.995-1.396-3.495-3.271-3.495c-1.859,0-3.33,1.53-3.33,3.48v0.03c0,1.949,1.486,3.479,3.33,3.479
										C144.325,353.138,145.689,351.697,145.689,349.673z"/>
									<path fill="#FFFFFF" d="M148.495,342.473h0.48v5.19c0.345-0.9,1.29-1.98,2.91-1.98c1.994,0,3.119,1.351,3.119,3.315v4.425
										h-0.479v-4.35c0-1.756-0.944-2.94-2.7-2.94c-1.59,0-2.85,1.305-2.85,3.03v4.26h-0.48V342.473z"/>
									<path fill="#FFFFFF" d="M157.015,351.293v-0.03c0-1.575,1.425-2.43,3.345-2.43c1.051,0,1.967,0.18,2.7,0.42v-0.51
										c0-1.71-1.021-2.55-2.7-2.55c-0.93,0-1.71,0.255-2.459,0.63l-0.181-0.42c0.84-0.405,1.665-0.66,2.67-0.66
										c1.034,0,1.845,0.27,2.399,0.825c0.479,0.494,0.75,1.215,0.75,2.145v4.71h-0.479v-1.575
										c-0.39,0.825-1.438,1.755-3.181,1.755C158.424,353.603,157.015,352.822,157.015,351.293z M163.075,350.633v-0.93
										c-0.734-0.24-1.604-0.42-2.729-0.42c-1.665,0-2.819,0.704-2.819,1.949v0.03c0,1.245,1.124,1.89,2.385,1.89
										C161.741,353.152,163.075,351.982,163.075,350.633z"/>
									<path fill="#FFFFFF" d="M166.18,345.863h0.48v2.31c0.449-1.29,1.604-2.505,3.209-2.46v0.495c-0.016,0-0.061,0-0.074,0
										c-1.83,0-3.135,1.77-3.135,3.63v3.585h-0.48V345.863L166.18,345.863z"/>
									<path fill="#FFFFFF" d="M170.695,349.643v-0.03c0-2.22,1.53-3.93,3.614-3.93c2.279,0,3.465,1.95,3.465,3.976
										c0,0.074,0,0.104,0,0.165h-6.555c0.091,2.055,1.545,3.329,3.24,3.329c1.17,0,2.115-0.614,2.715-1.395l0.359,0.285
										c-0.689,0.899-1.709,1.56-3.09,1.56C172.405,353.603,170.695,352.058,170.695,349.643z M177.25,349.388
										c-0.076-1.649-1.08-3.255-2.971-3.255c-1.71,0-2.97,1.396-3.061,3.255H177.25z"/>
									<path fill="#FFFFFF" d="M15.853,367.658v-0.03c0-2.295,1.694-3.944,3.735-3.944c1.664,0,2.834,0.989,3.344,2.234v-5.445
										h0.48v10.95h-0.48v-2.085c-0.524,1.26-1.694,2.266-3.344,2.266C17.547,371.604,15.853,369.968,15.853,367.658z
										 M22.963,367.658v-0.03c0-1.95-1.485-3.479-3.33-3.479c-1.905,0-3.27,1.439-3.27,3.465v0.029
										c0,1.996,1.395,3.496,3.27,3.496C21.492,371.139,22.963,369.607,22.963,367.658z"/>
									<path fill="#FFFFFF" d="M25.678,367.643v-0.029c0-2.221,1.529-3.93,3.615-3.93c2.279,0,3.465,1.949,3.465,3.976
										c0,0.073,0,0.104,0,0.165h-6.555c0.09,2.055,1.545,3.328,3.239,3.328c1.17,0,2.114-0.613,2.715-1.395l0.36,0.285
										c-0.69,0.898-1.71,1.561-3.09,1.561C27.388,371.604,25.678,370.059,25.678,367.643z M32.232,367.389
										c-0.075-1.649-1.08-3.256-2.971-3.256c-1.709,0-2.969,1.396-3.059,3.256H32.232z"/>
									<path fill="#FFFFFF" d="M39.357,360.473h0.495v10.95h-0.495V360.473z"/>
									<path fill="#FFFFFF" d="M42.103,369.293v-0.029c0-1.576,1.425-2.431,3.345-2.431c1.05,0,1.965,0.181,2.699,0.42v-0.51
										c0-1.71-1.02-2.55-2.699-2.55c-0.93,0-1.71,0.255-2.46,0.63l-0.181-0.421c0.841-0.404,1.666-0.659,2.67-0.659
										c1.035,0,1.846,0.271,2.4,0.825c0.48,0.494,0.75,1.215,0.75,2.145v4.71h-0.48v-1.575c-0.389,0.825-1.439,1.756-3.18,1.756
										C43.512,371.604,42.103,370.822,42.103,369.293z M48.162,368.633v-0.93c-0.734-0.24-1.605-0.42-2.73-0.42
										c-1.664,0-2.819,0.703-2.819,1.949v0.029c0,1.245,1.125,1.891,2.385,1.891C46.827,371.152,48.162,369.982,48.162,368.633z"
										/>
									<path fill="#FFFFFF" d="M55.752,360.923h4.32c1.199,0,2.159,0.33,2.744,0.915c0.436,0.436,0.676,1.005,0.676,1.695v0.029
										c0,1.351-0.871,2.189-1.936,2.489c1.38,0.255,2.505,1.14,2.505,2.565v0.029c0,1.739-1.425,2.774-3.765,2.774h-4.545
										L55.752,360.923L55.752,360.923z M60.177,365.889c1.56,0,2.805-0.766,2.805-2.279v-0.03c0-1.32-1.08-2.19-2.925-2.19
										h-3.795v4.5H60.177L60.177,365.889z M60.312,370.958c2.024,0,3.226-0.87,3.226-2.295v-0.03c0-1.47-1.306-2.279-3.166-2.279
										h-4.109v4.604H60.312z"/>
									<path fill="#FFFFFF" d="M66.447,363.863h0.479v2.31c0.45-1.29,1.604-2.505,3.21-2.46v0.495c-0.016,0-0.061,0-0.075,0
										c-1.83,0-3.135,1.771-3.135,3.63v3.585h-0.479V363.863z"/>
									<path fill="#FFFFFF" d="M71.877,360.863h0.645v0.914h-0.645V360.863z M71.951,363.863h0.496v7.56h-0.496V363.863z"/>
									<path fill="#FFFFFF" d="M75.731,369.486v-5.188h-1.155v-0.435h1.155v-2.535h0.479v2.535h2.746v0.435H76.21v5.146
										c0,1.109,0.586,1.664,1.576,1.664c0.375,0,0.75-0.09,1.139-0.27v0.465c-0.375,0.18-0.764,0.256-1.184,0.256
										C76.526,371.559,75.731,370.854,75.731,369.486z"/>
									<path fill="#FFFFFF" d="M85.557,360.923h3.75c2.459,0,3.975,1.187,3.975,3.181v0.029c0,2.1-1.695,3.256-4.096,3.256h-3.119
										v4.034h-0.51V360.923z M89.201,366.908c2.175,0,3.57-1.021,3.57-2.762v-0.028c0-1.726-1.351-2.729-3.51-2.729h-3.195v5.521
										L89.201,366.908L89.201,366.908z"/>
									<path fill="#FFFFFF" d="M94.812,367.673v-0.03c0-2.113,1.604-3.959,3.93-3.959c2.31,0,3.899,1.814,3.899,3.93v0.029
										c0,2.115-1.59,3.961-3.914,3.961C96.416,371.604,94.812,369.788,94.812,367.673z M102.131,367.658v-0.03
										c0-1.905-1.455-3.495-3.42-3.495c-1.994,0-3.375,1.59-3.375,3.495v0.03c0,1.904,1.44,3.494,3.405,3.494
										C100.736,371.152,102.131,369.562,102.131,367.658z"/>
									<path fill="#FFFFFF" d="M104.891,363.863h0.48v2.085c0.525-1.261,1.695-2.267,3.345-2.267c2.04,0,3.735,1.635,3.735,3.945
										v0.03c0,2.295-1.695,3.944-3.735,3.944c-1.665,0-2.835-0.99-3.345-2.234v4.453h-0.48V363.863z M111.941,367.673v-0.03
										c0-1.994-1.396-3.494-3.271-3.494c-1.86,0-3.33,1.529-3.33,3.479v0.03c0,1.949,1.485,3.479,3.33,3.479
										C110.576,371.139,111.941,369.697,111.941,367.673z"/>
									<path fill="#FFFFFF" d="M118.586,370.508l2.295-2.91l-2.295-2.91l0.33-0.238l2.549,3.104v0.09l-2.549,3.105
										L118.586,370.508z M121.346,370.508l2.295-2.91l-2.295-2.91l0.33-0.238l2.535,3.104v0.09l-2.535,3.105L121.346,370.508z"/>
									<path fill="#FFFFFF" d="M130.241,366.188v-0.028c0-2.865,1.62-5.415,4.32-5.415c2.715,0,4.318,2.52,4.318,5.415v0.028
										c0,2.865-1.619,5.416-4.318,5.416C131.847,371.604,130.241,369.083,130.241,366.188z M138.356,366.203v-0.03
										c0-2.58-1.426-4.965-3.811-4.965s-3.779,2.34-3.779,4.935v0.03c0,2.58,1.425,4.966,3.811,4.966
										C136.961,371.139,138.356,368.783,138.356,366.203z"/>
									<path fill="#FFFFFF" d="M140.726,369.923l0.375-0.36c0.812,0.9,1.995,1.576,3.271,1.576c1.814,0,3.09-1.201,3.09-2.836
										v-0.029c0-1.59-1.319-2.686-3.09-2.686c-0.886,0-1.756,0.225-2.609,0.689l-0.36-0.211l0.3-5.145h5.715v0.48h-5.248
										l-0.271,4.305c0.78-0.375,1.575-0.57,2.535-0.57c2.01,0,3.54,1.26,3.54,3.12v0.03c0,1.936-1.5,3.314-3.63,3.314
										C142.917,371.604,141.536,370.838,140.726,369.923z"/>
									<path fill="#FFFFFF" d="M149.952,363.863h0.719v0.975h-0.719V363.863z M149.952,370.447h0.719v0.976h-0.719V370.447z"/>
									<path fill="#FFFFFF" d="M154.42,361.402l-1.98,0.796l-0.165-0.405l2.25-0.945h0.392v10.575h-0.496V361.402L154.42,361.402z
										"/>
									<path fill="#FFFFFF" d="M157.48,369.923l0.375-0.36c0.812,0.9,1.995,1.576,3.271,1.576c1.814,0,3.09-1.201,3.09-2.836
										v-0.029c0-1.59-1.319-2.686-3.09-2.686c-0.885,0-1.756,0.225-2.609,0.689l-0.36-0.211l0.3-5.145h5.715v0.48h-5.248
										l-0.271,4.305c0.78-0.375,1.575-0.57,2.535-0.57c2.01,0,3.54,1.26,3.54,3.12v0.03c0,1.936-1.5,3.314-3.63,3.314
										C159.67,371.604,158.292,370.838,157.48,369.923z"/>
								</g>
								<g>
									<path fill="#FFFFFF" d="M16.513,397.441h4.319c1.2,0,2.16,0.33,2.745,0.915c0.435,0.435,0.675,1.005,0.675,1.693v0.03
										c0,1.35-0.869,2.188-1.935,2.49c1.38,0.255,2.505,1.14,2.505,2.563v0.03c0,1.739-1.425,2.773-3.765,2.773h-4.545
										L16.513,397.441L16.513,397.441z M20.938,402.406c1.561,0,2.805-0.767,2.805-2.28v-0.03c0-1.318-1.08-2.188-2.925-2.188
										h-3.795v4.5L20.938,402.406L20.938,402.406z M21.072,407.476c2.025,0,3.225-0.869,3.225-2.295v-0.029
										c0-1.471-1.305-2.279-3.164-2.279h-4.11v4.604H21.072z"/>
									<path fill="#FFFFFF" d="M27.223,397.381h0.645v0.915h-0.645V397.381z M27.297,400.381h0.496v7.561h-0.496V400.381z"/>
									<path fill="#FFFFFF" d="M33.582,397.906h-3.734v-0.465h7.994v0.465h-3.75v10.034h-0.51V397.906z"/>
									<path fill="#FFFFFF" d="M39.057,406.411l0.346-0.375c1.109,1.05,2.34,1.59,3.869,1.59c1.815,0,3-0.99,3-2.311v-0.029
										c0-1.23-0.705-1.892-3.239-2.415c-2.565-0.51-3.569-1.32-3.569-2.835v-0.03c0-1.5,1.424-2.715,3.404-2.715
										c1.439,0,2.58,0.45,3.57,1.23l-0.315,0.403c-0.96-0.765-2.056-1.17-3.284-1.17c-1.726,0-2.865,1.035-2.865,2.205v0.03
										c0,1.215,0.705,1.89,3.254,2.415c2.61,0.523,3.556,1.363,3.556,2.835v0.028c0,1.62-1.396,2.82-3.54,2.82
										C41.607,408.091,40.242,407.506,39.057,406.411z"/>
									<path fill="#FFFFFF" d="M52.812,404.161v-0.09l2.534-3.105l0.33,0.24l-2.295,2.91l2.295,2.909l-0.33,0.239L52.812,404.161z
										 M55.557,404.161v-0.09l2.55-3.105l0.33,0.24l-2.295,2.91l2.295,2.909l-0.33,0.239L55.557,404.161z"/>
									<path fill="#FFFFFF" d="M65.217,397.441h3.75c2.46,0,3.975,1.185,3.975,3.18v0.03c0,2.1-1.695,3.255-4.095,3.255h-3.12
										v4.034h-0.51V397.441z M68.861,403.426c2.176,0,3.57-1.02,3.57-2.76v-0.03c0-1.725-1.35-2.729-3.51-2.729h-3.195v5.52
										L68.861,403.426L68.861,403.426z"/>
									<path fill="#FFFFFF" d="M75.012,404.806v-4.425h0.48v4.351c0,1.755,0.944,2.939,2.699,2.939c1.59,0,2.85-1.305,2.85-3.03
										v-4.26h0.48v7.561h-0.48v-1.801c-0.345,0.9-1.289,1.98-2.91,1.98C76.137,408.121,75.012,406.771,75.012,404.806z"/>
									<path fill="#FFFFFF" d="M84.401,396.991h0.495v10.949h-0.495V396.991z"/>
									<path fill="#FFFFFF" d="M87.776,400.381h0.479v2.085c0.525-1.26,1.695-2.265,3.346-2.265c2.039,0,3.734,1.635,3.734,3.943
										v0.03c0,2.295-1.695,3.945-3.734,3.945c-1.666,0-2.836-0.99-3.346-2.235v4.455h-0.479V400.381z M94.826,404.19v-0.029
										c0-1.995-1.395-3.495-3.27-3.495c-1.86,0-3.33,1.53-3.33,3.479v0.03c0,1.95,1.484,3.479,3.33,3.479
										C93.461,407.655,94.826,406.216,94.826,404.19z"/>
									<path fill="#FFFFFF" d="M96.912,409.051c0.449-0.226,0.6-0.555,0.569-1.109h-0.33v-0.976h0.72v0.854
										c0,0.886-0.24,1.261-0.824,1.484L96.912,409.051z"/>
									<path fill="#FFFFFF" d="M104.65,400.381h0.48v2.085c0.525-1.26,1.695-2.265,3.345-2.265c2.04,0,3.735,1.635,3.735,3.943
										v0.03c0,2.295-1.695,3.945-3.735,3.945c-1.665,0-2.835-0.99-3.345-2.235v4.455h-0.48V400.381z M111.701,404.19v-0.029
										c0-1.995-1.396-3.495-3.271-3.495c-1.86,0-3.33,1.53-3.33,3.479v0.03c0,1.95,1.485,3.479,3.33,3.479
										C110.336,407.655,111.701,406.216,111.701,404.19z"/>
									<path fill="#FFFFFF" d="M113.966,404.19v-0.029c0-2.115,1.604-3.96,3.93-3.96c2.31,0,3.899,1.813,3.899,3.93v0.03
										c0,2.114-1.59,3.96-3.914,3.96C115.57,408.121,113.966,406.306,113.966,404.19z M121.286,404.176v-0.029
										c0-1.904-1.455-3.494-3.42-3.494c-1.994,0-3.375,1.59-3.375,3.494v0.029c0,1.905,1.44,3.495,3.405,3.495
										C119.891,407.671,121.286,406.081,121.286,404.176z"/>
									<path fill="#FFFFFF" d="M124.045,400.381h0.479v2.085c0.524-1.26,1.695-2.265,3.345-2.265c2.041,0,3.735,1.635,3.735,3.943
										v0.03c0,2.295-1.694,3.945-3.735,3.945c-1.664,0-2.834-0.99-3.345-2.235v4.455h-0.479V400.381z M131.095,404.19v-0.029
										c0-1.995-1.396-3.495-3.271-3.495c-1.859,0-3.33,1.53-3.33,3.479v0.03c0,1.95,1.485,3.479,3.33,3.479
										C129.73,407.655,131.095,406.216,131.095,404.19z"/>
									<path fill="#FFFFFF" d="M133.75,404.806v-4.425h0.479v4.351c0,1.755,0.944,2.939,2.7,2.939c1.59,0,2.85-1.305,2.85-3.03
										v-4.26h0.48v7.561h-0.48v-1.801c-0.345,0.9-1.289,1.98-2.908,1.98C134.875,408.121,133.75,406.771,133.75,404.806z"/>
									<path fill="#FFFFFF" d="M143.141,396.991h0.494v10.949h-0.494V396.991z"/>
									<path fill="#FFFFFF" d="M145.885,405.811v-0.029c0-1.574,1.425-2.431,3.345-2.431c1.051,0,1.966,0.182,2.7,0.421v-0.511
										c0-1.71-1.02-2.55-2.7-2.55c-0.931,0-1.709,0.255-2.459,0.63l-0.181-0.42c0.84-0.405,1.664-0.66,2.67-0.66
										c1.035,0,1.845,0.271,2.4,0.825c0.479,0.495,0.75,1.215,0.75,2.146v4.71h-0.48v-1.574c-0.391,0.824-1.439,1.755-3.18,1.755
										C147.295,408.121,145.885,407.341,145.885,405.811z M151.945,405.15v-0.931c-0.735-0.239-1.604-0.42-2.729-0.42
										c-1.666,0-2.819,0.705-2.819,1.95v0.029c0,1.245,1.125,1.891,2.385,1.891C150.61,407.671,151.945,406.501,151.945,405.15z"
										/>
									<path fill="#FFFFFF" d="M155.065,397.381h0.645v0.915h-0.645V397.381z M155.141,400.381h0.494v7.561h-0.494V400.381z"/>
									<path fill="#FFFFFF" d="M158.515,400.381h0.479v2.311c0.45-1.289,1.604-2.506,3.211-2.459v0.493c-0.017,0-0.062,0-0.076,0
										c-1.83,0-3.135,1.771-3.135,3.631v3.585h-0.479V400.381L158.515,400.381z"/>
									<path fill="#FFFFFF" d="M163.03,404.161v-0.03c0-2.22,1.529-3.93,3.614-3.93c2.28,0,3.465,1.95,3.465,3.975
										c0,0.075,0,0.105,0,0.165h-6.555c0.091,2.056,1.545,3.33,3.239,3.33c1.17,0,2.115-0.615,2.715-1.396l0.361,0.284
										c-0.69,0.9-1.711,1.562-3.091,1.562C164.741,408.121,163.03,406.576,163.03,404.161z M169.584,403.906
										c-0.074-1.65-1.08-3.255-2.969-3.255c-1.711,0-2.971,1.395-3.062,3.255H169.584z"/>
									<path fill="#FFFFFF" d="M15.853,422.176v-0.029c0-2.296,1.694-3.944,3.735-3.944c1.664,0,2.834,0.99,3.344,2.233v-5.443
										h0.48v10.949h-0.48v-2.085c-0.524,1.26-1.694,2.266-3.344,2.266C17.547,426.121,15.853,424.485,15.853,422.176z
										 M22.963,422.176v-0.029c0-1.949-1.485-3.479-3.33-3.479c-1.905,0-3.27,1.439-3.27,3.465v0.03
										c0,1.994,1.395,3.494,3.27,3.494C21.492,425.655,22.963,424.126,22.963,422.176z"/>
									<path fill="#FFFFFF" d="M26.053,422.806v-4.425h0.48v4.351c0,1.755,0.944,2.939,2.699,2.939c1.59,0,2.85-1.305,2.85-3.03
										v-4.26h0.48v7.561h-0.48v-1.801c-0.345,0.9-1.289,1.98-2.91,1.98C27.178,426.121,26.053,424.771,26.053,422.806z"/>
									<path fill="#FFFFFF" d="M43.167,420.601l-4.095-5.158h0.6l3.795,4.813l3.795-4.813h0.6l-4.079,5.145l4.229,5.354h-0.6
										l-3.945-5.011l-3.944,5.011h-0.601L43.167,420.601z"/>
									<path fill="#FFFFFF" d="M53.547,420.601l-4.095-5.158h0.601l3.795,4.813l3.795-4.813h0.6l-4.08,5.145l4.229,5.354h-0.6
										l-3.944-5.011l-3.945,5.011h-0.6L53.547,420.601z"/>
									<path fill="#FFFFFF" d="M59.307,422.161v-0.03c0-2.22,1.53-3.93,3.615-3.93c2.279,0,3.465,1.95,3.465,3.975
										c0,0.075,0,0.105,0,0.165h-6.555c0.09,2.056,1.545,3.33,3.24,3.33c1.17,0,2.114-0.615,2.715-1.396l0.359,0.284
										c-0.689,0.9-1.71,1.562-3.09,1.562C61.018,426.121,59.307,424.576,59.307,422.161z M65.861,421.906
										c-0.074-1.65-1.08-3.255-2.97-3.255c-1.71,0-2.97,1.395-3.06,3.255H65.861z"/>
									<path fill="#FFFFFF" d="M72.191,424.966l0.285-0.375c0.84,0.66,1.846,1.035,2.82,1.035c1.215,0,2.16-0.646,2.16-1.575
										v-0.029c0-1.064-1.141-1.396-2.295-1.711c-1.41-0.403-2.625-0.795-2.625-2.055v-0.03c0-1.125,1.035-1.979,2.58-1.979
										c0.869,0,1.859,0.3,2.654,0.84l-0.27,0.405c-0.721-0.511-1.605-0.795-2.4-0.795c-1.244,0-2.07,0.645-2.07,1.483v0.03
										c0,0.945,1.065,1.29,2.295,1.635c1.381,0.375,2.625,0.812,2.625,2.13v0.03c0,1.245-1.17,2.069-2.685,2.069
										C74.188,426.075,73.018,425.655,72.191,424.966z"/>
									<path fill="#FFFFFF" d="M80.307,415.381h0.645v0.915h-0.645V415.381z M80.381,418.381h0.496v7.561h-0.496V418.381z"/>
									<path fill="#FFFFFF" d="M83.231,422.161v-0.03c0-2.22,1.53-3.93,3.614-3.93c2.28,0,3.465,1.95,3.465,3.975
										c0,0.075,0,0.105,0,0.165h-6.555c0.09,2.056,1.545,3.33,3.24,3.33c1.17,0,2.115-0.615,2.715-1.396l0.359,0.284
										c-0.689,0.9-1.709,1.562-3.09,1.562C84.941,426.121,83.231,424.576,83.231,422.161z M89.786,421.906
										c-0.075-1.65-1.08-3.255-2.97-3.255c-1.71,0-2.971,1.395-3.061,3.255H89.786z M85.166,415.396l0.585-0.302l1.396,1.92
										h-0.375L85.166,415.396z"/>
									<path fill="#FFFFFF" d="M91.977,422.176v-0.029c0-2.131,1.68-3.944,3.869-3.944c1.396,0,2.28,0.63,3.016,1.395
										l-0.346,0.346c-0.66-0.704-1.484-1.289-2.685-1.289c-1.905,0-3.345,1.573-3.345,3.479v0.03c0,1.904,1.484,3.51,3.375,3.51
										c1.199,0,2.055-0.615,2.715-1.351l0.345,0.301c-0.735,0.854-1.68,1.5-3.09,1.5
										C93.656,426.121,91.977,424.32,91.977,422.176z"/>
									<path fill="#FFFFFF" d="M101.066,414.991h0.494v10.949h-0.494V414.991z"/>
									<path fill="#FFFFFF" d="M103.916,422.161v-0.03c0-2.22,1.529-3.93,3.615-3.93c2.279,0,3.465,1.95,3.465,3.975
										c0,0.075,0,0.105,0,0.165h-6.555c0.09,2.056,1.545,3.33,3.239,3.33c1.17,0,2.114-0.615,2.715-1.396l0.36,0.284
										c-0.69,0.9-1.71,1.562-3.09,1.562C105.626,426.121,103.916,424.576,103.916,422.161z M110.471,421.906
										c-0.075-1.65-1.08-3.255-2.971-3.255c-1.709,0-2.969,1.395-3.059,3.255H110.471z"/>
									<path fill="#FFFFFF" d="M117.026,425.025l2.295-2.909l-2.295-2.91l0.33-0.24l2.55,3.105v0.09l-2.55,3.104L117.026,425.025z
										 M119.786,425.025l2.295-2.909l-2.295-2.91l0.33-0.24l2.535,3.105v0.09l-2.535,3.104L119.786,425.025z"/>
									<path fill="#FFFFFF" d="M128.32,425.596l4.425-4.185c1.666-1.562,2.057-2.445,2.057-3.345c0-1.307-1.125-2.325-2.61-2.325
										c-1.455,0-2.46,0.825-3.194,2.055l-0.404-0.255c0.779-1.335,1.875-2.25,3.63-2.25c1.83,0,3.104,1.215,3.104,2.729v0.03
										c0,1.125-0.479,2.01-2.25,3.69l-3.931,3.72h6.315v0.479h-7.142V425.596L128.32,425.596z"/>
									<path fill="#FFFFFF" d="M136.959,425.596l4.426-4.185c1.664-1.562,2.056-2.445,2.056-3.345c0-1.307-1.125-2.325-2.61-2.325
										c-1.455,0-2.459,0.825-3.193,2.055l-0.405-0.255c0.78-1.335,1.875-2.25,3.63-2.25c1.83,0,3.104,1.215,3.104,2.729v0.03
										c0,1.125-0.479,2.01-2.25,3.69l-3.93,3.72h6.315v0.479h-7.142V425.596L136.959,425.596z"/>
									<path fill="#FFFFFF" d="M146.065,418.381h0.721v0.976h-0.721V418.381z M146.065,424.966h0.721v0.976h-0.721V424.966z"/>
									<path fill="#FFFFFF" d="M148.75,424.44l0.375-0.359c0.811,0.899,1.994,1.574,3.27,1.574c1.814,0,3.09-1.199,3.09-2.835
										v-0.029c0-1.59-1.318-2.686-3.09-2.686c-0.885,0-1.755,0.226-2.609,0.689l-0.359-0.21l0.3-5.145h5.715v0.479h-5.249
										l-0.271,4.305c0.781-0.375,1.576-0.568,2.535-0.568c2.01,0,3.541,1.26,3.541,3.119v0.029c0,1.936-1.5,3.315-3.631,3.315
										C150.94,426.121,149.561,425.355,148.75,424.44z"/>
									<path fill="#FFFFFF" d="M157.209,424.246l0.391-0.33c0.795,1.05,1.965,1.739,3.42,1.739c1.561,0,2.88-1.021,2.88-2.476
										v-0.029c0-1.71-1.515-2.476-3.659-2.476h-0.436l-0.149-0.3l3.899-4.455h-5.79v-0.479h6.479v0.358l-3.854,4.41
										c2.354,0.045,4.021,0.96,4.021,2.925c0,0,0,0.016,0,0.03c0,1.739-1.574,2.955-3.404,2.955
										C159.34,426.121,158.036,425.341,157.209,424.246z"/>
								</g>
							</g>
						</g>
					</g>
				</g>
			</g>
		</g>
	</g>
</g>
</svg>
