<?xml version="1.0" encoding="utf-8"?>
<!-- Generator: Adobe Illustrator 15.0.2, SVG Export Plug-In . SVG Version: 6.00 Build 0)  -->
<!DOCTYPE svg PUBLIC "-//W3C//DTD SVG 1.1//EN" "http://www.w3.org/Graphics/SVG/1.1/DTD/svg11.dtd">
<svg version="1.1" id="Calque_1" xmlns="http://www.w3.org/2000/svg" xmlns:xlink="http://www.w3.org/1999/xlink" x="0px" y="0px"
	 width="228px" height="720px" viewBox="0 0 228 720" enable-background="new 0 0 228 720" xml:space="preserve">
<rect fill="#F6481C" width="228" height="720"/>
<g>
	
		<image overflow="visible" opacity="0.45" enable-background="new    " width="1079" height="850" xlink:href="AC61DC14.png"  transform="matrix(0.2389 0 0 0.2389 -14.7891 -8.2695)">
	</image>
	<g>
		<rect fill="#F6481C" width="228" height="172.389"/>
	</g>
</g>
<g>
	<g>
		<g>
			<defs>
				<rect id="SVGID_1_" x="8.354" y="5.626" width="111.511" height="104.096"/>
			</defs>
			<clipPath id="SVGID_2_">
				<use xlink:href="#SVGID_1_"  overflow="visible"/>
			</clipPath>
			<g clip-path="url(#SVGID_2_)">
				<g>
					<defs>
						<rect id="SVGID_3_" x="8.354" y="5.626" width="111.512" height="104.096"/>
					</defs>
					<clipPath id="SVGID_4_">
						<use xlink:href="#SVGID_3_"  overflow="visible"/>
					</clipPath>
					<path clip-path="url(#SVGID_4_)" fill="#FFFFFF" d="M30.65,21.575c5.193,0.015,11.584,1.42,11.584,6.593v12.36h-9.161v-5.332
						c-0.005-0.017-2.223,0.785-3.926,1.31c-1.147,0.315-2.015,0.963-2.084,2.132c-0.089,0.985,1.028,1.89,1.018,1.891h-8.968
						c-0.011-0.001-2-0.718-1.938-2.861c0.185-4.085,3.366-5.588,11.197-6.493c4.219-0.521,4.696-0.928,4.701-1.988
						c-0.005-0.869-0.519-1.854-2.908-1.891c-3.444,0.002-3.204,2.333-3.2,2.327h-8.773C18.174,29.618,18.277,21.584,30.65,21.575
						 M58.416,21.77c-3.046,0.445-4.116,2.963-4.12,2.957v-2.618h-8.531v18.42h9.306v-8.823c0.011-1.558,0.448-2.257,1.018-2.811
						c0.643-0.66,1.77-1.123,3.005-1.114h2.617v-5.672C61.71,22.101,60.368,21.484,58.416,21.77 M76.981,17.746h-9.209v4.362h-3.83
						v5.672h3.83v7.513c0.007,1.62-0.027,2.942,1.163,4.215c1.04,1.064,2.403,1.015,4.023,1.021h4.023V27.78h5.526v-5.672h-5.526
						V17.746z M97.098,21.721c15.447,0.171,12.949,14.135,12.941,14.154h-16.48v4.653h-6.738c0.021-0.001-2.765-2.507-2.714-7.465
						C84.208,21.512,96.612,21.711,97.098,21.721 M101.12,31.221c-0.01-0.016,0.386-3.774-4.022-3.78
						c-4.25-0.021-3.784,3.765-3.782,3.78H101.12"/>
				</g>
				<g>
					<defs>
						<rect id="SVGID_5_" x="8.354" y="5.626" width="111.511" height="104.096"/>
					</defs>
					<clipPath id="SVGID_6_">
						<use xlink:href="#SVGID_5_"  overflow="visible"/>
					</clipPath>
					<g clip-path="url(#SVGID_6_)">
						<g enable-background="new    ">
							<path d="M19.17,46.481h5.37l5.952,9.576l5.952-9.576h5.37v22.645h-4.949V54.343l-6.373,9.672h-0.129l-6.308-9.575v14.687
								H19.17V46.481z"/>
						</g>
					</g>
				</g>
				<g>
					<defs>
						<rect id="SVGID_7_" x="8.354" y="5.626" width="111.511" height="104.096"/>
					</defs>
					<clipPath id="SVGID_8_">
						<use xlink:href="#SVGID_7_"  overflow="visible"/>
					</clipPath>
					<g clip-path="url(#SVGID_8_)">
						<g enable-background="new    ">
							<path d="M55.272,46.32h1.035l10.74,22.806H65.85l-3.073-6.6H48.77l-3.105,6.6h-1.132L55.272,46.32z M62.292,61.524
								l-6.534-13.91l-6.502,13.91H62.292z"/>
						</g>
					</g>
				</g>
				<g>
					<defs>
						<rect id="SVGID_9_" x="8.354" y="5.626" width="111.511" height="104.096"/>
					</defs>
					<clipPath id="SVGID_10_">
						<use xlink:href="#SVGID_9_"  overflow="visible"/>
					</clipPath>
					<g clip-path="url(#SVGID_10_)">
						<g enable-background="new    ">
							<path d="M68.212,65.826l2.944-3.525c2.038,1.682,4.173,2.749,6.761,2.749c2.038,0,3.267-0.809,3.267-2.135v-0.064
								c0-1.262-0.776-1.909-4.561-2.879c-4.561-1.165-7.505-2.427-7.505-6.923v-0.064c0-4.108,3.3-6.826,7.925-6.826
								c3.3,0,6.114,1.035,8.411,2.879l-2.588,3.753c-2.005-1.391-3.979-2.232-5.887-2.232s-2.912,0.874-2.912,1.974v0.064
								c0,1.488,0.971,1.974,4.885,2.977c4.594,1.196,7.182,2.847,7.182,6.793v0.064c0,4.497-3.429,7.02-8.314,7.02
								C74.391,69.449,70.93,68.253,68.212,65.826z"/>
						</g>
					</g>
				</g>
				<g>
					<defs>
						<rect id="SVGID_11_" x="8.354" y="5.626" width="111.511" height="104.096"/>
					</defs>
					<clipPath id="SVGID_12_">
						<use xlink:href="#SVGID_11_"  overflow="visible"/>
					</clipPath>
					<g clip-path="url(#SVGID_12_)">
						<g enable-background="new    ">
							<path d="M92.928,46.481h4.981l-2.394,8.961h9.058l2.394-8.961h4.982l-6.082,22.645h-4.981l2.458-9.09h-9.058l-2.458,9.09
								h-4.982L92.928,46.481z"/>
						</g>
					</g>
				</g>
				<g>
					<defs>
						<rect id="SVGID_13_" x="8.354" y="5.626" width="111.511" height="104.096"/>
					</defs>
					<clipPath id="SVGID_14_">
						<use xlink:href="#SVGID_13_"  overflow="visible"/>
					</clipPath>
					<g clip-path="url(#SVGID_14_)">
						<g enable-background="new    ">
							<path d="M26.125,86.596h8.281v1.132h-8.281V86.596z"/>
						</g>
					</g>
				</g>
				<g>
					<defs>
						<rect id="SVGID_15_" x="8.354" y="5.626" width="111.511" height="104.096"/>
					</defs>
					<clipPath id="SVGID_16_">
						<use xlink:href="#SVGID_15_"  overflow="visible"/>
					</clipPath>
				</g>
				<g>
					<defs>
						<rect id="SVGID_17_" x="8.354" y="5.626" width="111.511" height="104.096"/>
					</defs>
					<clipPath id="SVGID_18_">
						<use xlink:href="#SVGID_17_"  overflow="visible"/>
					</clipPath>
					<g clip-path="url(#SVGID_18_)">
						<g enable-background="new    ">
							<path d="M44.856,87.08V74.141h4.982v12.811c0,3.688,1.844,5.597,4.884,5.597c3.041,0,4.885-1.845,4.885-5.435V74.141h4.982
								v12.778c0,6.857-3.85,10.222-9.931,10.222S44.856,93.744,44.856,87.08z"/>
						</g>
					</g>
				</g>
				<g>
					<defs>
						<rect id="SVGID_19_" x="8.354" y="5.626" width="111.511" height="104.096"/>
					</defs>
					<clipPath id="SVGID_20_">
						<use xlink:href="#SVGID_19_"  overflow="visible"/>
					</clipPath>
					<g clip-path="url(#SVGID_20_)">
						<g enable-background="new    ">
							<path d="M72.709,74.141h7.084c2.847,0,5.014,0.68,6.47,2.104c1.035,1.067,1.618,2.458,1.618,4.205
								c0,5.272-4.497,8.281-11.16,8.281h-5.37l-2.167,8.055h-2.555L72.709,74.141z M76.85,86.466c5.338,0,8.378-2.135,8.378-5.854
								c0-1.101-0.323-1.974-1.035-2.686c-0.938-0.938-2.458-1.423-4.497-1.423h-5.079l-2.652,9.963H76.85z"/>
						</g>
					</g>
				</g>
				<g>
					<defs>
						<rect id="SVGID_21_" x="8.354" y="5.626" width="111.511" height="104.096"/>
					</defs>
					<clipPath id="SVGID_22_">
						<use xlink:href="#SVGID_21_"  overflow="visible"/>
					</clipPath>
				</g>
				<g>
					<defs>
						<rect id="SVGID_23_" x="8.354" y="5.626" width="111.511" height="104.096"/>
					</defs>
					<clipPath id="SVGID_24_">
						<use xlink:href="#SVGID_23_"  overflow="visible"/>
					</clipPath>
					<g clip-path="url(#SVGID_24_)">
						<g enable-background="new    ">
							<path d="M95.419,74.788v-0.647h5.758v0.647l-1.521,14.298h-2.717L95.419,74.788z M95.678,91.609h5.241v5.176h-5.241V91.609z"
								/>
						</g>
					</g>
				</g>
			</g>
		</g>
		<g>
			<path fill="#FFFFFF" d="M18.679,149.795H16.71v-3.316h2.539l0.648-3.835h-2.28v-3.316h2.85l0.648-3.782h3.42l-0.648,3.782h3.757
				l0.647-3.782h3.42l-0.647,3.782h1.969v3.316h-2.54l-0.647,3.835h2.28v3.316h-2.85l-0.674,3.887h-3.42l0.673-3.887h-3.757
				l-0.673,3.887h-3.42L18.679,149.795z M26.426,146.479l0.647-3.835h-3.757l-0.647,3.835H26.426z"/>
			<path d="M35.701,139.794h3.938v1.995c0.958-1.296,2.28-2.254,4.327-2.254c3.239,0,6.322,2.539,6.322,7.177v0.052
				c0,4.638-3.031,7.177-6.322,7.177c-2.099,0-3.394-0.959-4.327-2.072v5.959h-3.938V139.794z M46.35,146.764v-0.052
				c0-2.306-1.555-3.835-3.394-3.835c-1.84,0-3.368,1.529-3.368,3.835v0.052c0,2.306,1.528,3.835,3.368,3.835
				C44.795,150.599,46.35,149.096,46.35,146.764z"/>
			<path d="M53.086,148.784v-8.99h3.938v7.747c0,1.865,0.881,2.824,2.383,2.824c1.503,0,2.461-0.959,2.461-2.824v-7.747h3.938
				v13.888H61.87v-1.97c-0.907,1.166-2.073,2.229-4.068,2.229C54.822,153.94,53.086,151.972,53.086,148.784z"/>
			<path d="M69.513,134.768h3.938v18.914h-3.938V134.768z"/>
			<path d="M77.156,139.794h3.938v1.995c0.958-1.296,2.28-2.254,4.327-2.254c3.239,0,6.322,2.539,6.322,7.177v0.052
				c0,4.638-3.031,7.177-6.322,7.177c-2.099,0-3.394-0.959-4.327-2.072v5.959h-3.938V139.794z M87.805,146.764v-0.052
				c0-2.306-1.555-3.835-3.394-3.835c-1.84,0-3.368,1.529-3.368,3.835v0.052c0,2.306,1.528,3.835,3.368,3.835
				C86.25,150.599,87.805,149.096,87.805,146.764z"/>
		</g>
		<g>
			<g>
				<g>
					<defs>
						<rect id="SVGID_25_" x="181.354" y="13.79" width="33.131" height="46.856"/>
					</defs>
					<clipPath id="SVGID_26_">
						<use xlink:href="#SVGID_25_"  overflow="visible"/>
					</clipPath>
					<g clip-path="url(#SVGID_26_)">
						<g>
							<defs>
								<rect id="SVGID_27_" x="181.354" y="13.79" width="33.131" height="46.856"/>
							</defs>
							<clipPath id="SVGID_28_">
								<use xlink:href="#SVGID_27_"  overflow="visible"/>
							</clipPath>
							<path clip-path="url(#SVGID_28_)" fill="#FFFFFF" d="M205.141,27.71c2.451,0,4.473-2.021,4.473-4.473
								c0-2.452-2.02-4.473-4.473-4.473c-2.451,0-4.473,2.021-4.473,4.473c0,0.464,0.066,0.895,0.198,1.325l-7.521,5.565
								c-0.729-0.695-1.724-1.093-2.783-1.093c-2.285,0-4.142,1.855-4.142,4.141c0,2.286,1.854,4.142,4.142,4.142
								c1.094,0,2.088-0.431,2.815-1.093l7.487,5.565c-0.133,0.431-0.198,0.861-0.198,1.325c0,2.452,2.021,4.473,4.474,4.473
								c2.45,0,4.473-2.021,4.473-4.473c0-2.451-2.021-4.473-4.473-4.473c-1.16,0-2.221,0.464-3.016,1.193l-7.555-5.633
								c0.1-0.331,0.133-0.662,0.133-1.027c0-0.364-0.066-0.695-0.133-1.026l7.555-5.633
								C202.889,27.246,203.949,27.71,205.141,27.71 M205.141,21.084c1.192,0,2.153,0.96,2.153,2.153
								c0,1.192-0.961,2.153-2.153,2.153c-1.191,0-2.152-0.961-2.152-2.153C202.988,22.044,203.949,21.084,205.141,21.084
								 M205.141,40.962c1.192,0,2.153,0.961,2.153,2.153c0,1.193-0.961,2.154-2.153,2.154c-1.191,0-2.152-0.961-2.152-2.154
								C202.988,41.923,203.949,40.962,205.141,40.962"/>
						</g>
					</g>
				</g>
				<g>
					<g>
						<g>
							<defs>
								<rect id="SVGID_29_" x="181.354" y="71.21" width="33.131" height="46.856"/>
							</defs>
							<clipPath id="SVGID_30_">
								<use xlink:href="#SVGID_29_"  overflow="visible"/>
							</clipPath>
							<g clip-path="url(#SVGID_30_)">
								<g>
									<defs>
										<rect id="SVGID_31_" x="181.354" y="71.21" width="33.131" height="46.856"/>
									</defs>
									<defs>
										<rect id="SVGID_32_" x="181.354" y="71.21" width="33.131" height="46.856"/>
									</defs>
									<defs>
										<rect id="SVGID_33_" x="181.354" y="71.21" width="33.131" height="46.856"/>
									</defs>
									<clipPath id="SVGID_34_">
										<use xlink:href="#SVGID_31_"  overflow="visible"/>
									</clipPath>
									<clipPath id="SVGID_35_" clip-path="url(#SVGID_34_)">
										<use xlink:href="#SVGID_32_"  overflow="visible"/>
									</clipPath>
									<clipPath id="SVGID_36_" clip-path="url(#SVGID_35_)">
										<use xlink:href="#SVGID_33_"  overflow="visible"/>
									</clipPath>
									<path clip-path="url(#SVGID_36_)" fill="#FFFFFF" d="M185.201,82.287c3.195-0.001,6.146,1.588,7.912,4.175
										c0.425,0.621,1.271,0.78,1.895,0.356c0.621-0.425,0.781-1.273,0.355-1.894v-0.001c-2.271-3.323-6.059-5.362-10.162-5.362
										c-0.754,0-1.362,0.609-1.362,1.362S184.447,82.287,185.201,82.287"/>
									<path clip-path="url(#SVGID_36_)" fill="#FFFFFF" d="M212,98.589c0-0.185-0.038-0.363-0.107-0.528l-0.205-0.308
										l-0.086-0.128l-4.627-4.626c-0.531-0.532-1.396-0.532-1.928,0.001c-0.531,0.532-0.531,1.395,0.001,1.927l0,0l2.294,2.293
										c-2.664-0.032-5.15-1.163-6.912-3.06c-0.512-0.552-1.373-0.584-1.926-0.072c-0.552,0.512-0.584,1.375-0.07,1.926
										c2.27,2.446,5.479,3.902,8.92,3.932l-2.306,2.306c-0.532,0.532-0.532,1.396-0.001,1.928c0.532,0.532,1.396,0.532,1.928,0
										l4.627-4.626l0.057-0.084l0.236-0.353C211.961,98.951,212,98.773,212,98.589"/>
									<path clip-path="url(#SVGID_36_)" fill="#FFFFFF" d="M211.686,81.569l-0.086-0.128l-4.625-4.626
										c-0.533-0.532-1.396-0.532-1.929,0c-0.532,0.532-0.532,1.396,0.001,1.928v-0.001l2.309,2.309
										c-4.694,0.039-8.963,2.738-10.996,6.976l-2.518,5.243c-1.596,3.324-4.955,5.438-8.642,5.438
										c-0.753,0-1.363,0.61-1.363,1.362c0,0.753,0.61,1.363,1.363,1.363v-0.001c4.733,0,9.049-2.715,11.098-6.983l2.519-5.243
										c1.576-3.288,4.883-5.384,8.521-5.43l-2.291,2.292c-0.533,0.531-0.533,1.395-0.001,1.927c0.532,0.532,1.396,0.532,1.929,0
										l4.625-4.626l0.058-0.084l0.235-0.353c0.069-0.165,0.106-0.343,0.106-0.527c0-0.184-0.037-0.362-0.106-0.527
										L211.686,81.569z"/>
								</g>
							</g>
						</g>
						<g>
							<g>
								<g>
									<defs>
										<rect id="SVGID_37_" x="177.268" y="121.227" width="41.297" height="58.403"/>
									</defs>
									<clipPath id="SVGID_38_">
										<use xlink:href="#SVGID_37_"  overflow="visible"/>
									</clipPath>
									<g clip-path="url(#SVGID_38_)">
										<g>
											<defs>
												<rect id="SVGID_39_" x="177.268" y="121.227" width="41.297" height="58.403"/>
											</defs>
											<clipPath id="SVGID_40_">
												<use xlink:href="#SVGID_39_"  overflow="visible"/>
											</clipPath>
											<path clip-path="url(#SVGID_40_)" fill="#FFFFFF" d="M210.635,155.673l-7.929-7.971c1.114-1.61,1.815-3.593,1.815-5.739
												c0-5.451-4.459-9.911-9.91-9.911c-5.45,0-9.91,4.46-9.91,9.911c0,5.45,4.46,9.91,9.91,9.91
												c2.146,0,4.13-0.701,5.74-1.816l7.971,7.97c0.66,0.661,1.691,0.661,2.354,0
												C211.295,157.365,211.295,156.292,210.635,155.673 M188.005,141.963c0-3.635,2.974-6.607,6.606-6.607
												c3.635,0,6.606,2.973,6.606,6.607c0,3.634-2.973,6.606-6.606,6.606C190.979,148.569,188.005,145.597,188.005,141.963"/>
										</g>
									</g>
								</g>
								<g>
									<path fill="#FFFFFF" d="M18.222,197.362h3.93c2.055,0,3.255,0.96,3.255,2.445c0,1.5-1.14,2.46-2.625,2.76
										c1.035,0.314,1.86,0.99,1.86,2.175c0,1.814-1.65,3.12-4.41,3.12h-4.83L18.222,197.362z M20.367,206.797
										c1.89,0,3.075-0.795,3.075-2.1c0-1.065-1.005-1.605-2.415-1.605h-3.18l-0.99,3.705H20.367z M21.117,202.042
										c1.875,0,3.075-0.824,3.075-2.085c0-0.989-0.78-1.529-2.145-1.529h-2.955l-0.96,3.614H21.117z"/>
									<path fill="#FFFFFF" d="M29.007,196.912h1.155l-2.939,10.95h-1.155L29.007,196.912z"/>
									<path fill="#FFFFFF" d="M30.402,204.562c0-2.415,2.085-4.62,4.56-4.62c2.13,0,3.54,1.455,3.54,3.465
										c0,2.475-2.145,4.635-4.575,4.635C31.797,208.042,30.402,206.572,30.402,204.562z M37.317,203.452
										c0-1.575-0.99-2.49-2.43-2.49c-1.785,0-3.315,1.771-3.315,3.57c0,1.575,0.99,2.475,2.43,2.475
										C35.742,207.007,37.317,205.297,37.317,203.452z"/>
									<path fill="#FFFFFF" d="M40.317,200.107h1.17l0.405,6.18l3.75-6.21h0.96l0.435,6.21l3.735-6.18h1.2l-4.83,7.814h-1.02
										l-0.45-6.119l-3.735,6.119h-1.005L40.317,200.107z"/>
									<path fill="#FFFFFF" d="M57.477,204.667c0-0.569,0.075-1.095,0.225-1.635l1.5-5.67h1.2l-1.59,5.985
										c-0.09,0.314-0.15,0.734-0.15,1.185c0,1.365,0.885,2.399,2.745,2.399c0.87,0,1.68-0.314,2.34-0.96
										c0.54-0.555,1.035-1.409,1.335-2.564l1.635-6.045h1.185l-1.68,6.255c-0.36,1.335-0.915,2.37-1.65,3.104
										c-0.855,0.855-1.965,1.306-3.27,1.306C58.796,208.027,57.477,206.632,57.477,204.667z"/>
									<path fill="#FFFFFF" d="M69.792,200.107h1.155l-0.36,1.335c0.75-0.84,1.695-1.5,2.94-1.5c1.755,0,3.075,1.305,3.075,3.285
										c0,2.744-2.085,4.814-4.35,4.814c-1.59,0-2.475-0.899-2.91-1.92l-1.11,4.14h-1.155L69.792,200.107z M75.386,203.332
										c0-1.439-0.885-2.37-2.189-2.37c-1.725,0-3.45,1.755-3.45,3.646c0,1.35,0.975,2.415,2.4,2.415
										C73.992,207.022,75.386,205.312,75.386,203.332z"/>
									<path fill="#FFFFFF" d="M82.526,204.082l0.03-0.12l3.33-3.239l0.75,0.63l-2.82,2.805l1.23,2.655l-0.945,0.465
										L82.526,204.082z M85.856,204.082l0.03-0.12l3.33-3.239l0.75,0.63l-2.82,2.805l1.23,2.655l-0.945,0.465L85.856,204.082z"/>
									<path fill="#FFFFFF" d="M97.871,197.362h3.285c1.32,0,2.325,0.315,3,0.976c0.48,0.494,0.75,1.14,0.75,1.949
										c0,2.445-2.085,3.84-5.175,3.84h-2.49l-1.005,3.735h-1.185L97.871,197.362z M99.791,203.077
										c2.475,0,3.885-0.99,3.885-2.715c0-0.51-0.15-0.915-0.48-1.245c-0.435-0.435-1.14-0.66-2.085-0.66h-2.355l-1.23,4.62
										H99.791z"/>
									<path fill="#FFFFFF" d="M105.551,205.627c0-0.359,0.09-0.795,0.195-1.2l1.14-4.319h1.155l-1.185,4.395
										c-0.06,0.255-0.105,0.615-0.105,0.87c0,1.021,0.66,1.62,1.725,1.62c1.2,0,2.415-1.035,2.805-2.52l1.17-4.365h1.155
										l-2.07,7.755h-1.155l0.345-1.26c-0.705,0.795-1.53,1.425-2.715,1.425C106.525,208.027,105.551,207.097,105.551,205.627z"/>
									<path fill="#FFFFFF" d="M117.175,196.912h1.155l-2.939,10.95h-1.156L117.175,196.912z"/>
									<path fill="#FFFFFF" d="M120.161,200.107h1.153l-0.358,1.335c0.75-0.84,1.694-1.5,2.938-1.5
										c1.756,0,3.076,1.305,3.076,3.285c0,2.744-2.086,4.814-4.351,4.814c-1.591,0-2.476-0.899-2.91-1.92l-1.11,4.14h-1.154
										L120.161,200.107z M125.755,203.332c0-1.439-0.885-2.37-2.19-2.37c-1.725,0-3.448,1.755-3.448,3.646
										c0,1.35,0.975,2.415,2.399,2.415C124.359,207.022,125.755,205.312,125.755,203.332z"/>
									<path fill="#FFFFFF" d="M135.49,197.362h7.545l-0.285,1.095h-6.374l-1.006,3.75h5.7l-0.301,1.08h-5.685l-1.229,4.575
										h-1.186L135.49,197.362z"/>
									<path fill="#FFFFFF" d="M144.536,200.107h1.153l-2.084,7.755h-1.154L144.536,200.107z M145.255,197.138h1.319l-0.346,1.274
										h-1.318L145.255,197.138z"/>
									<path fill="#FFFFFF" d="M146.77,204.652c0-2.535,2.102-4.71,4.562-4.71c1.619,0,2.595,0.854,3.09,1.814l-0.931,0.586
										c-0.45-0.75-1.064-1.381-2.234-1.381c-1.755,0-3.3,1.726-3.3,3.66c0,1.53,1.095,2.4,2.31,2.4
										c0.916,0,1.621-0.405,2.295-1.021l0.676,0.75c-0.795,0.75-1.74,1.29-3.029,1.29
										C148.391,208.042,146.77,206.782,146.77,204.652z"/>
									<path fill="#FFFFFF" d="M155.62,206.467c0-0.27,0.045-0.569,0.104-0.81l1.215-4.53h-1.064l0.271-1.02h1.08l0.629-2.34
										h1.141l-0.63,2.34h2.444l-0.271,1.02h-2.444l-1.199,4.47c-0.03,0.181-0.062,0.405-0.062,0.57
										c0,0.54,0.405,0.795,1.065,0.795c0.345,0,0.705-0.075,1.125-0.24l-0.285,1.051c-0.405,0.165-0.78,0.225-1.229,0.225
										C156.4,207.997,155.62,207.472,155.62,206.467z"/>
									<path fill="#FFFFFF" d="M162.939,200.107h1.154l-2.085,7.755h-1.153L162.939,200.107z M163.66,197.138h1.318l-0.345,1.274
										h-1.319L163.66,197.138z"/>
									<path fill="#FFFFFF" d="M165.189,204.562c0-2.415,2.086-4.62,4.561-4.62c2.13,0,3.54,1.455,3.54,3.465
										c0,2.475-2.146,4.635-4.575,4.635C166.584,208.042,165.189,206.572,165.189,204.562z M172.104,203.452
										c0-1.575-0.988-2.49-2.43-2.49c-1.785,0-3.314,1.771-3.314,3.57c0,1.575,0.99,2.475,2.431,2.475
										C170.529,207.007,172.104,205.297,172.104,203.452z"/>
									<path fill="#FFFFFF" d="M176.35,200.107h1.153l-0.33,1.26c0.705-0.795,1.517-1.425,2.7-1.425c1.5,0,2.475,0.93,2.475,2.4
										c0,0.359-0.09,0.795-0.193,1.199l-1.141,4.32h-1.154l1.17-4.396c0.074-0.255,0.119-0.614,0.119-0.869
										c0-1.021-0.66-1.62-1.739-1.62c-1.2,0-2.399,1.035-2.806,2.505l-1.17,4.38h-1.154L176.35,200.107z"/>
									<path fill="#FFFFFF" d="M16.827,222.697c0,1.41,0.9,2.34,2.34,2.34c1.005,0,1.68-0.345,2.385-0.915l0.6,0.765
										c-0.765,0.646-1.68,1.155-3.045,1.155c-2.055,0-3.435-1.335-3.435-3.3c0-2.37,1.92-4.8,4.515-4.8c1.965,0,3,1.35,3,2.97
										c0,0.525-0.105,1.035-0.285,1.515h-6.06C16.827,222.518,16.827,222.607,16.827,222.697z M22.002,221.497
										c0.03-0.149,0.06-0.33,0.06-0.585c0-1.064-0.6-1.995-1.935-1.995c-1.53,0-2.685,1.155-3.12,2.58H22.002z"/>
									<path fill="#FFFFFF" d="M26.112,218.107h1.155l-0.33,1.26c0.705-0.795,1.515-1.425,2.7-1.425c1.5,0,2.475,0.93,2.475,2.4
										c0,0.359-0.09,0.795-0.195,1.199l-1.14,4.32h-1.155l1.17-4.396c0.075-0.255,0.12-0.614,0.12-0.869
										c0-1.021-0.66-1.62-1.74-1.62c-1.2,0-2.4,1.035-2.805,2.505l-1.17,4.38h-1.155L26.112,218.107z"/>
									<path fill="#FFFFFF" d="M37.616,224.167l0.915-0.675c0.675,0.93,1.545,1.485,2.805,1.485c1.845,0,3.045-1.23,3.045-2.58
										c0-1.26-0.96-2.01-2.355-2.01c-0.645,0-1.425,0.18-2.145,0.569l-0.675-0.54l1.65-5.055h5.865l-0.315,1.095h-4.785
										l-1.11,3.3c0.435-0.21,1.245-0.404,1.8-0.404c1.995,0,3.315,1.14,3.315,2.955c0,1.994-1.74,3.734-4.38,3.734
										C39.536,226.042,38.307,225.202,37.616,224.167z"/>
									<path fill="#FFFFFF" d="M53.351,218.107h1.155l-0.33,1.26c0.705-0.795,1.44-1.425,2.58-1.425
										c1.305,0,1.995,0.854,2.205,1.755c0.69-1.064,1.74-1.755,3.12-1.755c1.395,0,2.37,0.96,2.37,2.4
										c0,0.359-0.12,0.795-0.21,1.199l-1.155,4.32h-1.155l1.185-4.396c0.06-0.255,0.105-0.614,0.105-0.869
										c0-1.005-0.6-1.62-1.605-1.62c-1.14,0-2.295,1.064-2.685,2.505l-1.155,4.38h-1.155l1.17-4.396
										c0.075-0.255,0.12-0.614,0.12-0.869c0-1.005-0.615-1.62-1.62-1.62c-1.14,0-2.295,1.064-2.685,2.505l-1.17,4.38h-1.155
										L53.351,218.107z"/>
									<path fill="#FFFFFF" d="M67.721,218.107h1.155l-2.085,7.755h-1.155L67.721,218.107z M68.441,215.138h1.32l-0.345,1.274
										h-1.32L68.441,215.138z"/>
									<path fill="#FFFFFF" d="M71.561,218.107h1.155l-0.33,1.26c0.705-0.795,1.515-1.425,2.7-1.425c1.5,0,2.475,0.93,2.475,2.4
										c0,0.359-0.09,0.795-0.195,1.199l-1.14,4.32h-1.155l1.17-4.396c0.075-0.255,0.12-0.614,0.12-0.869
										c0-1.021-0.66-1.62-1.74-1.62c-1.2,0-2.4,1.035-2.805,2.505l-1.17,4.38h-1.155L71.561,218.107z"/>
									<path fill="#FFFFFF" d="M79.301,223.627c0-0.359,0.09-0.795,0.195-1.2l1.14-4.319h1.155l-1.185,4.395
										c-0.06,0.255-0.105,0.615-0.105,0.87c0,1.021,0.66,1.62,1.725,1.62c1.2,0,2.415-1.035,2.805-2.52l1.17-4.365h1.155
										l-2.07,7.755h-1.155l0.345-1.26c-0.705,0.795-1.53,1.425-2.715,1.425C80.276,226.027,79.301,225.097,79.301,223.627z"/>
									<path fill="#FFFFFF" d="M88.766,224.467c0-0.27,0.045-0.569,0.105-0.81l1.215-4.53h-1.065l0.27-1.02h1.08l0.63-2.34h1.14
										l-0.63,2.34h2.445l-0.27,1.02h-2.445l-1.2,4.47c-0.03,0.181-0.06,0.405-0.06,0.57c0,0.54,0.405,0.795,1.065,0.795
										c0.345,0,0.705-0.075,1.125-0.24l-0.285,1.051c-0.405,0.165-0.78,0.225-1.23,0.225
										C89.546,225.997,88.766,225.472,88.766,224.467z"/>
									<path fill="#FFFFFF" d="M95.366,222.697c0,1.41,0.9,2.34,2.34,2.34c1.005,0,1.68-0.345,2.385-0.915l0.6,0.765
										c-0.765,0.646-1.68,1.155-3.045,1.155c-2.055,0-3.435-1.335-3.435-3.3c0-2.37,1.92-4.8,4.515-4.8c1.965,0,3,1.35,3,2.97
										c0,0.525-0.105,1.035-0.285,1.515h-6.06C95.366,222.518,95.366,222.607,95.366,222.697z M100.541,221.497
										c0.03-0.149,0.06-0.33,0.06-0.585c0-1.064-0.6-1.995-1.935-1.995c-1.53,0-2.685,1.155-3.12,2.58H100.541z"/>
									<path fill="#FFFFFF" d="M102.236,224.677l0.75-0.75c0.84,0.812,1.77,1.141,2.7,1.141c0.885,0,1.71-0.511,1.71-1.29
										c0-0.51-0.345-0.885-1.47-1.32c-1.395-0.54-2.189-1.05-2.189-2.13c0-1.319,1.14-2.385,2.939-2.385
										c1.14,0,2.22,0.51,2.865,1.065l-0.675,0.795c-0.645-0.525-1.455-0.9-2.295-0.9c-1.095,0-1.68,0.585-1.68,1.229
										c0,0.511,0.315,0.841,1.545,1.32c1.395,0.57,2.115,1.125,2.115,2.13c0,1.44-1.32,2.445-2.97,2.445
										C104.38,226.027,103.136,225.577,102.236,224.677z"/>
									<path fill="#FFFFFF" d="M114.385,224.662l2.805-2.805l-1.229-2.655l0.943-0.465l1.576,3.195l-0.03,0.119l-3.313,3.24
										L114.385,224.662z M117.715,224.662l2.805-2.805l-1.229-2.655l0.944-0.465l1.576,3.195l-0.031,0.119l-3.329,3.24
										L117.715,224.662z"/>
									<path fill="#FFFFFF" d="M128.17,221.992c0-3.314,2.234-6.81,5.459-6.81c2.342,0,3.676,1.694,3.676,4.05
										c0,3.314-2.234,6.81-5.459,6.81C129.49,226.042,128.17,224.347,128.17,221.992z M136.075,219.232
										c0-1.71-0.886-2.97-2.535-2.97c-2.295,0-4.14,2.97-4.14,5.729c0,1.71,0.869,2.97,2.521,2.97
										C134.23,224.962,136.075,221.992,136.075,219.232z"/>
									<path fill="#FFFFFF" d="M137.875,224.167l0.915-0.675c0.675,0.93,1.545,1.485,2.806,1.485c1.846,0,3.045-1.23,3.045-2.58
										c0-1.26-0.961-2.01-2.354-2.01c-0.646,0-1.425,0.18-2.146,0.569l-0.676-0.54l1.65-5.055h5.863l-0.313,1.095h-4.785
										l-1.108,3.3c0.435-0.21,1.244-0.404,1.799-0.404c1.996,0,3.314,1.14,3.314,2.955c0,1.994-1.74,3.734-4.38,3.734
										C139.794,226.042,138.564,225.202,137.875,224.167z"/>
									<path fill="#FFFFFF" d="M147.445,224.287h1.38l-0.421,1.575h-1.379L147.445,224.287z M149.109,218.107h1.381l-0.436,1.575
										h-1.381L149.109,218.107z"/>
									<path fill="#FFFFFF" d="M151.87,221.992c0-3.314,2.233-6.81,5.459-6.81c2.341,0,3.676,1.694,3.676,4.05
										c0,3.314-2.235,6.81-5.46,6.81C153.189,226.042,151.87,224.347,151.87,221.992z M159.773,219.232
										c0-1.71-0.885-2.97-2.535-2.97c-2.295,0-4.139,2.97-4.139,5.729c0,1.71,0.869,2.97,2.521,2.97
										C157.93,224.962,159.773,221.992,159.773,219.232z"/>
									<path fill="#FFFFFF" d="M163.629,225.082c-0.658-0.66-1.033-1.575-1.033-2.91c0-2.234,0.84-4.229,2.084-5.475
										c0.975-0.975,2.131-1.515,3.479-1.515c1.38,0,2.385,0.54,3.104,1.35l-0.779,0.811c-0.586-0.63-1.365-1.08-2.416-1.08
										c-0.944,0-1.784,0.359-2.534,1.109c-0.81,0.811-1.484,2.13-1.62,3.42c0.585-0.81,1.65-1.529,3.029-1.529
										c2.041,0,3.314,1.335,3.314,3.015c0,1.995-1.738,3.765-4.078,3.765C165.129,226.042,164.214,225.682,163.629,225.082z
										 M169.044,222.367c0-1.05-0.765-2.085-2.325-2.085c-1.738,0-2.895,1.245-2.895,2.52c0,0.66,0.226,1.17,0.615,1.545
										c0.449,0.466,1.063,0.66,1.77,0.66C167.875,225.007,169.044,223.762,169.044,222.367z"/>
								</g>
								<g>
									<path fill="#FFFFFF" d="M20.532,252.33h0.48l4.98,10.575h-0.555l-1.425-3.062h-6.495l-1.44,3.062h-0.525L20.532,252.33z
										 M23.787,259.38l-3.03-6.449l-3.015,6.449H23.787z"/>
									<path fill="#FFFFFF" d="M27.987,255.346h0.48v2.31c0.45-1.29,1.605-2.505,3.21-2.46v0.495c-0.015,0-0.06,0-0.075,0
										c-1.83,0-3.135,1.77-3.135,3.63v3.585h-0.48V255.346z"/>
									<path fill="#FFFFFF" d="M33.807,260.97v-5.188h-1.155v-0.435h1.155v-2.535h0.48v2.535h2.745v0.435h-2.745v5.145
										c0,1.11,0.585,1.665,1.575,1.665c0.375,0,0.75-0.09,1.14-0.27v0.465c-0.375,0.18-0.765,0.255-1.185,0.255
										C34.602,263.04,33.807,262.335,33.807,260.97z"/>
									<path fill="#FFFFFF" d="M38.412,259.125v-0.03c0-2.22,1.53-3.93,3.615-3.93c2.28,0,3.465,1.95,3.465,3.976
										c0,0.074,0,0.104,0,0.165h-6.555c0.09,2.055,1.545,3.329,3.24,3.329c1.17,0,2.115-0.614,2.715-1.395l0.36,0.285
										c-0.69,0.899-1.709,1.56-3.09,1.56C40.122,263.085,38.412,261.54,38.412,259.125z M44.966,258.87
										c-0.075-1.649-1.08-3.255-2.97-3.255c-1.709,0-2.97,1.396-3.06,3.255H44.966z"/>
									<path fill="#FFFFFF" d="M52.271,252.405h0.51v10.5h-0.51V252.405z"/>
									<path fill="#FFFFFF" d="M55.841,255.346h0.48v1.8c0.345-0.9,1.29-1.98,2.91-1.98c1.995,0,3.12,1.351,3.12,3.315v4.425
										h-0.48v-4.35c0-1.756-0.945-2.94-2.7-2.94c-1.59,0-2.85,1.305-2.85,3.03v4.26h-0.48V255.346z"/>
									<path fill="#FFFFFF" d="M65.486,255.78h-1.155v-0.436h1.155V254.4c0-0.87,0.225-1.53,0.645-1.935
										c0.36-0.36,0.855-0.556,1.485-0.556c0.465,0,0.78,0.075,1.095,0.195v0.465c-0.345-0.135-0.705-0.195-1.095-0.195
										c-1.05,0-1.65,0.646-1.65,2.07v0.9h2.715v0.435h-2.715v7.125h-0.48V255.78z"/>
									<path fill="#FFFFFF" d="M69.371,259.155v-0.03c0-2.114,1.605-3.96,3.93-3.96c2.31,0,3.9,1.815,3.9,3.93v0.03
										c0,2.115-1.59,3.96-3.915,3.96C70.976,263.085,69.371,261.271,69.371,259.155z M76.691,259.141v-0.03
										c0-1.905-1.455-3.495-3.42-3.495c-1.995,0-3.375,1.59-3.375,3.495v0.03c0,1.904,1.44,3.494,3.405,3.494
										C75.296,262.635,76.691,261.045,76.691,259.141z"/>
									<path fill="#FFFFFF" d="M83.081,259.125v-0.09l2.535-3.104l0.33,0.239l-2.295,2.91l2.295,2.91l-0.33,0.24L83.081,259.125z
										 M85.826,259.125v-0.09l2.55-3.104l0.33,0.239l-2.295,2.91l2.295,2.91l-0.33,0.24L85.826,259.125z"/>
									<path fill="#FFFFFF" d="M95.5,252.405h4.334c1.335,0,2.355,0.375,3,1.005c0.48,0.495,0.765,1.17,0.765,1.95v0.03
										c0,1.77-1.365,2.805-3.3,2.97l3.495,4.545h-0.645l-3.42-4.485h-0.045H96.01v4.485H95.5V252.405z M99.7,257.955
										c2.16,0,3.39-1.05,3.39-2.535v-0.029c0-1.575-1.215-2.521-3.285-2.521H96.01v5.085H99.7z"/>
									<path fill="#FFFFFF" d="M105.521,259.125v-0.03c0-2.22,1.53-3.93,3.615-3.93c2.28,0,3.465,1.95,3.465,3.976
										c0,0.074,0,0.104,0,0.165h-6.555c0.09,2.055,1.545,3.329,3.24,3.329c1.17,0,2.115-0.614,2.715-1.395l0.36,0.285
										c-0.69,0.899-1.709,1.56-3.09,1.56C107.231,263.085,105.521,261.54,105.521,259.125z M112.076,258.87
										c-0.075-1.649-1.08-3.255-2.97-3.255c-1.709,0-2.97,1.396-3.06,3.255H112.076z"/>
									<path fill="#FFFFFF" d="M114.791,255.346h0.48v1.8c0.345-0.9,1.289-1.98,2.91-1.98c1.994,0,3.119,1.351,3.119,3.315v4.425
										h-0.48v-4.35c0-1.756-0.943-2.94-2.698-2.94c-1.59,0-2.851,1.305-2.851,3.03v4.26h-0.479L114.791,255.346L114.791,255.346z
										"/>
									<path fill="#FFFFFF" d="M123.416,259.141v-0.03c0-2.13,1.68-3.945,3.87-3.945c1.396,0,2.278,0.63,3.015,1.396l-0.345,0.345
										c-0.66-0.705-1.485-1.29-2.687-1.29c-1.903,0-3.345,1.575-3.345,3.479v0.03c0,1.905,1.485,3.51,3.375,3.51
										c1.2,0,2.056-0.614,2.716-1.35l0.344,0.3c-0.733,0.855-1.68,1.5-3.09,1.5C125.096,263.085,123.416,261.285,123.416,259.141
										z"/>
									<path fill="#FFFFFF" d="M131.65,259.155v-0.03c0-2.114,1.604-3.96,3.931-3.96c2.31,0,3.899,1.815,3.899,3.93v0.03
										c0,2.115-1.59,3.96-3.916,3.96C133.255,263.085,131.65,261.271,131.65,259.155z M138.971,259.141v-0.03
										c0-1.905-1.455-3.495-3.421-3.495c-1.995,0-3.375,1.59-3.375,3.495v0.03c0,1.904,1.44,3.494,3.405,3.494
										C137.575,262.635,138.971,261.045,138.971,259.141z"/>
									<path fill="#FFFFFF" d="M141.73,255.346h0.479v1.8c0.345-0.9,1.29-1.98,2.91-1.98c1.993,0,3.118,1.351,3.118,3.315v4.425
										h-0.479v-4.35c0-1.756-0.945-2.94-2.699-2.94c-1.59,0-2.851,1.305-2.851,3.03v4.26h-0.479V255.346z"/>
									<path fill="#FFFFFF" d="M151.285,260.97v-5.188h-1.155v-0.435h1.155v-2.535h0.48v2.535h2.743v0.435h-2.743v5.145
										c0,1.11,0.584,1.665,1.573,1.665c0.375,0,0.75-0.09,1.142-0.27v0.465c-0.375,0.18-0.767,0.255-1.187,0.255
										C152.08,263.04,151.285,262.335,151.285,260.97z"/>
									<path fill="#FFFFFF" d="M156.639,255.346h0.48v2.31c0.449-1.29,1.604-2.505,3.21-2.46v0.495c-0.017,0-0.062,0-0.075,0
										c-1.83,0-3.135,1.77-3.135,3.63v3.585h-0.48V255.346L156.639,255.346z"/>
									<path fill="#FFFFFF" d="M161.154,259.125v-0.03c0-2.22,1.529-3.93,3.615-3.93c2.279,0,3.465,1.95,3.465,3.976
										c0,0.074,0,0.104,0,0.165h-6.555c0.09,2.055,1.545,3.329,3.239,3.329c1.17,0,2.115-0.614,2.715-1.395l0.36,0.285
										c-0.689,0.899-1.71,1.56-3.09,1.56C162.865,263.085,161.154,261.54,161.154,259.125z M167.709,258.87
										c-0.075-1.649-1.08-3.255-2.971-3.255c-1.709,0-2.969,1.396-3.061,3.255H167.709z"/>
									<path fill="#FFFFFF" d="M174.113,260.775v-0.03c0-1.575,1.426-2.43,3.346-2.43c1.051,0,1.966,0.18,2.7,0.42v-0.51
										c0-1.71-1.021-2.55-2.7-2.55c-0.93,0-1.71,0.255-2.459,0.63l-0.182-0.42c0.841-0.405,1.666-0.66,2.67-0.66
										c1.035,0,1.846,0.27,2.4,0.825c0.479,0.494,0.75,1.215,0.75,2.145v4.71h-0.479v-1.575c-0.39,0.825-1.438,1.755-3.181,1.755
										C175.523,263.085,174.113,262.305,174.113,260.775z M180.174,260.115v-0.93c-0.734-0.24-1.605-0.42-2.73-0.42
										c-1.664,0-2.818,0.704-2.818,1.949v0.03c0,1.245,1.124,1.89,2.385,1.89C178.839,262.635,180.174,261.465,180.174,260.115z"
										/>
									<path fill="#FFFFFF" d="M182.2,255.346h0.555l3.104,7.034l3.119-7.034h0.525l-3.449,7.619h-0.391L182.2,255.346z"/>
									<path fill="#FFFFFF" d="M190.54,259.125v-0.03c0-2.22,1.528-3.93,3.614-3.93c2.279,0,3.465,1.95,3.465,3.976
										c0,0.074,0,0.104,0,0.165h-6.555c0.09,2.055,1.545,3.329,3.24,3.329c1.17,0,2.114-0.614,2.715-1.395l0.359,0.285
										c-0.689,0.899-1.71,1.56-3.09,1.56C192.25,263.085,190.54,261.54,190.54,259.125z M197.094,258.87
										c-0.074-1.649-1.08-3.255-2.97-3.255c-1.71,0-2.97,1.396-3.062,3.255H197.094z"/>
									<path fill="#FFFFFF" d="M199.284,259.141v-0.03c0-2.13,1.68-3.945,3.87-3.945c1.395,0,2.279,0.63,3.015,1.396l-0.345,0.345
										c-0.66-0.705-1.485-1.29-2.686-1.29c-1.904,0-3.346,1.575-3.346,3.479v0.03c0,1.905,1.484,3.51,3.375,3.51
										c1.2,0,2.055-0.614,2.715-1.35l0.346,0.3c-0.734,0.855-1.681,1.5-3.09,1.5
										C200.963,263.085,199.284,261.285,199.284,259.141z"/>
									<path fill="#FFFFFF" d="M15.837,279.375L16.182,279c1.11,1.05,2.34,1.59,3.87,1.59c1.815,0,3-0.99,3-2.31v-0.03
										c0-1.229-0.705-1.89-3.24-2.415c-2.565-0.51-3.57-1.319-3.57-2.835v-0.029c0-1.5,1.425-2.715,3.405-2.715
										c1.44,0,2.58,0.449,3.57,1.229l-0.315,0.405c-0.96-0.766-2.055-1.17-3.285-1.17c-1.725,0-2.865,1.035-2.865,2.205v0.029
										c0,1.215,0.705,1.891,3.255,2.415c2.61,0.525,3.555,1.365,3.555,2.835v0.03c0,1.62-1.395,2.819-3.54,2.819
										C18.387,281.055,17.022,280.47,15.837,279.375z"/>
									<path fill="#FFFFFF" d="M26.292,278.97v-5.188h-1.155v-0.435h1.155v-2.535h0.48v2.535h2.745v0.435h-2.745v5.145
										c0,1.11,0.585,1.665,1.575,1.665c0.375,0,0.75-0.09,1.14-0.27v0.465c-0.375,0.18-0.765,0.255-1.185,0.255
										C27.087,281.04,26.292,280.335,26.292,278.97z"/>
									<path fill="#FFFFFF" d="M31.122,277.125v-0.03c0-2.22,1.53-3.93,3.615-3.93c2.28,0,3.465,1.95,3.465,3.976
										c0,0.074,0,0.104,0,0.165h-6.555c0.09,2.055,1.545,3.329,3.24,3.329c1.17,0,2.115-0.614,2.715-1.395l0.36,0.285
										c-0.69,0.899-1.71,1.56-3.09,1.56C32.832,281.085,31.122,279.54,31.122,277.125z M37.677,276.87
										c-0.075-1.649-1.08-3.255-2.97-3.255c-1.709,0-2.97,1.396-3.06,3.255H37.677z M35.577,270.061l0.585,0.3l-1.605,1.62
										h-0.375L35.577,270.061z"/>
									<path fill="#FFFFFF" d="M40.392,273.346h0.48v2.085c0.525-1.261,1.695-2.266,3.345-2.266c2.04,0,3.735,1.635,3.735,3.945
										v0.03c0,2.295-1.695,3.944-3.735,3.944c-1.665,0-2.835-0.99-3.345-2.234v4.454h-0.48V273.346z M47.442,277.155v-0.03
										c0-1.995-1.395-3.495-3.27-3.495c-1.86,0-3.33,1.53-3.33,3.48v0.03c0,1.949,1.485,3.479,3.33,3.479
										C46.077,280.62,47.442,279.18,47.442,277.155z"/>
									<path fill="#FFFFFF" d="M50.247,269.955h0.48v5.19c0.345-0.9,1.29-1.98,2.91-1.98c1.995,0,3.12,1.351,3.12,3.315v4.425
										h-0.48v-4.35c0-1.756-0.945-2.939-2.7-2.939c-1.59,0-2.85,1.305-2.85,3.03v4.26h-0.48V269.955z"/>
									<path fill="#FFFFFF" d="M58.767,278.775v-0.03c0-1.575,1.425-2.43,3.345-2.43c1.05,0,1.965,0.18,2.7,0.42v-0.51
										c0-1.71-1.02-2.55-2.7-2.55c-0.93,0-1.71,0.255-2.46,0.63l-0.18-0.42c0.84-0.405,1.665-0.66,2.67-0.66
										c1.035,0,1.845,0.27,2.4,0.825c0.48,0.494,0.75,1.215,0.75,2.145v4.71h-0.48v-1.575c-0.39,0.825-1.44,1.755-3.18,1.755
										C60.176,281.085,58.767,280.305,58.767,278.775z M64.826,278.115v-0.93c-0.735-0.24-1.605-0.42-2.73-0.42
										c-1.665,0-2.82,0.704-2.82,1.949v0.03c0,1.245,1.125,1.89,2.385,1.89C63.491,280.635,64.826,279.465,64.826,278.115z"/>
									<path fill="#FFFFFF" d="M67.932,273.346h0.48v1.8c0.345-0.9,1.29-1.98,2.91-1.98c1.995,0,3.12,1.351,3.12,3.315v4.425
										h-0.48v-4.35c0-1.756-0.945-2.94-2.7-2.94c-1.59,0-2.85,1.305-2.85,3.03v4.26h-0.48V273.346z"/>
									<path fill="#FFFFFF" d="M76.556,277.125v-0.03c0-2.22,1.53-3.93,3.615-3.93c2.28,0,3.465,1.95,3.465,3.976
										c0,0.074,0,0.104,0,0.165h-6.555c0.09,2.055,1.545,3.329,3.24,3.329c1.17,0,2.115-0.614,2.715-1.395l0.36,0.285
										c-0.69,0.899-1.709,1.56-3.09,1.56C78.266,281.085,76.556,279.54,76.556,277.125z M83.111,276.87
										c-0.075-1.649-1.08-3.255-2.97-3.255c-1.709,0-2.97,1.396-3.06,3.255H83.111z"/>
									<path fill="#FFFFFF" d="M90.311,270.405h4.32c1.2,0,2.16,0.33,2.745,0.915c0.435,0.436,0.675,1.005,0.675,1.695v0.029
										c0,1.351-0.87,2.19-1.935,2.49c1.38,0.255,2.505,1.14,2.505,2.565v0.029c0,1.74-1.425,2.775-3.765,2.775h-4.545V270.405z
										 M94.736,275.37c1.56,0,2.805-0.765,2.805-2.279v-0.03c0-1.32-1.08-2.19-2.925-2.19h-3.795v4.5L94.736,275.37
										L94.736,275.37z M94.871,280.44c2.025,0,3.225-0.87,3.225-2.295v-0.03c0-1.47-1.305-2.28-3.165-2.28h-4.11v4.605H94.871z"
										/>
									<path fill="#FFFFFF" d="M101.096,269.955h0.495v10.95h-0.495V269.955z"/>
									<path fill="#FFFFFF" d="M103.841,278.775v-0.03c0-1.575,1.425-2.43,3.345-2.43c1.05,0,1.965,0.18,2.7,0.42v-0.51
										c0-1.71-1.02-2.55-2.7-2.55c-0.93,0-1.71,0.255-2.46,0.63l-0.18-0.42c0.84-0.405,1.665-0.66,2.67-0.66
										c1.035,0,1.845,0.27,2.4,0.825c0.48,0.494,0.75,1.215,0.75,2.145v4.71h-0.48v-1.575c-0.39,0.825-1.44,1.755-3.18,1.755
										C105.25,281.085,103.841,280.305,103.841,278.775z M109.9,278.115v-0.93c-0.735-0.24-1.605-0.42-2.73-0.42
										c-1.665,0-2.82,0.704-2.82,1.949v0.03c0,1.245,1.125,1.89,2.385,1.89C108.565,280.635,109.9,279.465,109.9,278.115z"/>
									<path fill="#FFFFFF" d="M113.005,273.346h0.48v1.8c0.345-0.9,1.291-1.98,2.91-1.98c1.996,0,3.121,1.351,3.121,3.315v4.425
										h-0.48v-4.35c0-1.756-0.944-2.94-2.699-2.94c-1.59,0-2.85,1.305-2.85,3.03v4.26h-0.48L113.005,273.346L113.005,273.346z"/>
									<path fill="#FFFFFF" d="M128.74,278.82c-0.524,1.26-1.694,2.265-3.346,2.265c-2.039,0-3.733-1.635-3.733-3.944v-0.03
										c0-2.295,1.694-3.945,3.733-3.945c1.666,0,2.836,0.99,3.346,2.235v-2.055h0.48v9.959h-0.48V278.82z M128.77,277.141v-0.03
										c0-1.95-1.484-3.48-3.33-3.48c-1.904,0-3.27,1.44-3.27,3.465v0.03c0,1.995,1.395,3.495,3.27,3.495
										C127.3,280.62,128.77,279.09,128.77,277.141z"/>
									<path fill="#FFFFFF" d="M131.861,277.771v-4.425h0.479v4.35c0,1.755,0.945,2.938,2.7,2.938c1.59,0,2.851-1.305,2.851-3.029
										v-4.26h0.479v7.56h-0.479v-1.8c-0.346,0.899-1.291,1.979-2.91,1.979C132.986,281.085,131.861,279.735,131.861,277.771z"/>
									<path fill="#FFFFFF" d="M140.635,277.125v-0.03c0-2.22,1.529-3.93,3.614-3.93c2.28,0,3.465,1.95,3.465,3.976
										c0,0.074,0,0.104,0,0.165h-6.555c0.091,2.055,1.545,3.329,3.239,3.329c1.17,0,2.115-0.614,2.715-1.395l0.361,0.285
										c-0.69,0.899-1.711,1.56-3.091,1.56C142.346,281.085,140.635,279.54,140.635,277.125z M147.189,276.87
										c-0.074-1.649-1.08-3.255-2.969-3.255c-1.711,0-2.971,1.396-3.062,3.255H147.189z"/>
									<path fill="#FFFFFF" d="M150.311,278.97v-5.188h-1.156v-0.435h1.156v-2.535h0.479v2.535h2.744v0.435h-2.744v5.145
										c0,1.11,0.585,1.665,1.573,1.665c0.375,0,0.75-0.09,1.142-0.27v0.465c-0.375,0.18-0.767,0.255-1.187,0.255
										C151.105,281.04,150.311,280.335,150.311,278.97z"/>
									<path fill="#FFFFFF" d="M155.096,282.015c0.449-0.225,0.6-0.555,0.568-1.109h-0.329v-0.976h0.72v0.855
										c0,0.885-0.24,1.26-0.824,1.484L155.096,282.015z"/>
									<path fill="#FFFFFF" d="M162.205,278.775v-0.03c0-1.575,1.425-2.43,3.345-2.43c1.052,0,1.966,0.18,2.7,0.42v-0.51
										c0-1.71-1.02-2.55-2.7-2.55c-0.93,0-1.709,0.255-2.459,0.63l-0.181-0.42c0.84-0.405,1.665-0.66,2.67-0.66
										c1.035,0,1.845,0.27,2.4,0.825c0.479,0.494,0.75,1.215,0.75,2.145v4.71h-0.48v-1.575c-0.391,0.825-1.439,1.755-3.18,1.755
										C163.615,281.085,162.205,280.305,162.205,278.775z M168.266,278.115v-0.93c-0.736-0.24-1.605-0.42-2.73-0.42
										c-1.665,0-2.819,0.704-2.819,1.949v0.03c0,1.245,1.125,1.89,2.386,1.89C166.93,280.635,168.266,279.465,168.266,278.115z"
										/>
									<path fill="#FFFFFF" d="M171.369,273.346h0.48v2.31c0.449-1.29,1.604-2.505,3.209-2.46v0.495c-0.016,0-0.061,0-0.074,0
										c-1.83,0-3.135,1.77-3.135,3.63v3.585h-0.48V273.346L171.369,273.346z"/>
									<path fill="#FFFFFF" d="M177.189,278.97v-5.188h-1.155v-0.435h1.155v-2.535h0.479v2.535h2.744v0.435h-2.744v5.145
										c0,1.11,0.585,1.665,1.574,1.665c0.375,0,0.75-0.09,1.141-0.27v0.465c-0.375,0.18-0.766,0.255-1.187,0.255
										C177.984,281.04,177.189,280.335,177.189,278.97z"/>
									<path fill="#FFFFFF" d="M182.559,270.346h0.646v0.915h-0.646V270.346z M182.634,273.346h0.494v7.56h-0.494V273.346z"/>
									<path fill="#FFFFFF" d="M185.305,279.93l0.283-0.375c0.84,0.66,1.846,1.035,2.82,1.035c1.215,0,2.16-0.645,2.16-1.575
										v-0.029c0-1.065-1.141-1.396-2.295-1.71c-1.41-0.405-2.625-0.795-2.625-2.055v-0.03c0-1.125,1.035-1.98,2.58-1.98
										c0.869,0,1.858,0.301,2.653,0.841l-0.271,0.404c-0.721-0.51-1.604-0.795-2.399-0.795c-1.245,0-2.069,0.646-2.069,1.485
										v0.029c0,0.945,1.064,1.29,2.295,1.636c1.381,0.375,2.625,0.81,2.625,2.13v0.029c0,1.245-1.17,2.07-2.686,2.07
										C187.298,281.04,186.128,280.62,185.305,279.93z"/>
									<path fill="#FFFFFF" d="M193.659,278.97v-5.188h-1.155v-0.435h1.155v-2.535h0.479v2.535h2.744v0.435h-2.744v5.145
										c0,1.11,0.586,1.665,1.574,1.665c0.375,0,0.75-0.09,1.141-0.27v0.465c-0.375,0.18-0.766,0.255-1.186,0.255
										C194.454,281.04,193.659,280.335,193.659,278.97z"/>
									<path fill="#FFFFFF" d="M198.264,277.125v-0.03c0-2.22,1.529-3.93,3.614-3.93c2.28,0,3.465,1.95,3.465,3.976
										c0,0.074,0,0.104,0,0.165h-6.555c0.091,2.055,1.545,3.329,3.239,3.329c1.171,0,2.115-0.614,2.716-1.395l0.36,0.285
										c-0.69,0.899-1.711,1.56-3.09,1.56C199.975,281.085,198.264,279.54,198.264,277.125z M204.818,276.87
										c-0.074-1.649-1.08-3.255-2.969-3.255c-1.711,0-2.971,1.396-3.062,3.255H204.818z"/>
									<path fill="#FFFFFF" d="M16.347,287.955h0.48v5.19c0.345-0.9,1.29-1.98,2.91-1.98c1.995,0,3.12,1.351,3.12,3.315v4.425
										h-0.48v-4.35c0-1.756-0.945-2.939-2.7-2.939c-1.59,0-2.85,1.305-2.85,3.03v4.26h-0.48V287.955z"/>
									<path fill="#FFFFFF" d="M24.957,295.155v-0.03c0-2.114,1.605-3.96,3.93-3.96c2.31,0,3.9,1.815,3.9,3.93v0.03
										c0,2.115-1.59,3.96-3.915,3.96C26.562,299.085,24.957,297.271,24.957,295.155z M32.277,295.141v-0.03
										c0-1.905-1.455-3.495-3.42-3.495c-1.995,0-3.375,1.59-3.375,3.495v0.03c0,1.904,1.44,3.494,3.405,3.494
										C30.882,298.635,32.277,297.045,32.277,295.141z"/>
									<path fill="#FFFFFF" d="M35.037,291.346h0.48v2.31c0.45-1.29,1.605-2.505,3.21-2.46v0.495c-0.015,0-0.06,0-0.075,0
										c-1.83,0-3.135,1.77-3.135,3.63v3.585h-0.48V291.346z"/>
									<path fill="#FFFFFF" d="M39.747,297.93l0.285-0.375c0.84,0.66,1.845,1.035,2.82,1.035c1.215,0,2.16-0.645,2.16-1.575
										v-0.029c0-1.065-1.14-1.396-2.295-1.71c-1.41-0.405-2.625-0.795-2.625-2.055v-0.03c0-1.125,1.035-1.98,2.58-1.98
										c0.87,0,1.86,0.301,2.655,0.841l-0.27,0.404c-0.72-0.51-1.604-0.795-2.399-0.795c-1.245,0-2.07,0.646-2.07,1.485v0.029
										c0,0.945,1.065,1.29,2.295,1.636c1.38,0.375,2.625,0.81,2.625,2.13v0.029c0,1.245-1.17,2.07-2.685,2.07
										C41.742,299.04,40.572,298.62,39.747,297.93z"/>
									<path fill="#FFFFFF" d="M52.167,291.346h0.48v1.8c0.345-0.9,1.29-1.98,2.91-1.98c1.995,0,3.12,1.351,3.12,3.315v4.425
										h-0.48v-4.35c0-1.756-0.945-2.94-2.7-2.94c-1.59,0-2.85,1.305-2.85,3.03v4.26h-0.48V291.346z"/>
									<path fill="#FFFFFF" d="M60.776,295.155v-0.03c0-2.114,1.605-3.96,3.93-3.96c2.31,0,3.9,1.815,3.9,3.93v0.03
										c0,2.115-1.59,3.96-3.915,3.96C62.381,299.085,60.776,297.271,60.776,295.155z M68.096,295.141v-0.03
										c0-1.905-1.455-3.495-3.42-3.495c-1.995,0-3.375,1.59-3.375,3.495v0.03c0,1.904,1.44,3.494,3.405,3.494
										C66.701,298.635,68.096,297.045,68.096,295.141z"/>
									<path fill="#FFFFFF" d="M70.856,291.346h0.48v2.31c0.45-1.29,1.605-2.505,3.21-2.46v0.495c-0.015,0-0.06,0-0.075,0
										c-1.83,0-3.135,1.77-3.135,3.63v3.585h-0.48V291.346z"/>
									<path fill="#FFFFFF" d="M76.271,291.346h0.48v1.694c0.33-0.885,1.23-1.875,2.58-1.875c1.515,0,2.34,0.915,2.67,1.995
										c0.375-0.99,1.335-1.995,2.715-1.995c1.725,0,2.865,1.17,2.865,3.226v4.515h-0.48v-4.47c0-1.83-0.96-2.82-2.415-2.82
										c-1.29,0-2.52,1.17-2.52,2.88v4.41h-0.48v-4.485c0-1.8-0.975-2.805-2.4-2.805c-1.32,0-2.535,1.26-2.535,2.895v4.396h-0.48
										V291.346L76.271,291.346z"/>
									<path fill="#FFFFFF" d="M89.756,295.125v-0.03c0-2.22,1.53-3.93,3.615-3.93c2.28,0,3.465,1.95,3.465,3.976
										c0,0.074,0,0.104,0,0.165h-6.555c0.09,2.055,1.545,3.329,3.24,3.329c1.17,0,2.115-0.614,2.715-1.395l0.36,0.285
										c-0.69,0.899-1.71,1.56-3.09,1.56C91.466,299.085,89.756,297.54,89.756,295.125z M96.311,294.87
										c-0.075-1.649-1.08-3.255-2.97-3.255c-1.709,0-2.97,1.396-3.06,3.255H96.311z"/>
									<path fill="#FFFFFF" d="M98.321,297.93l0.285-0.375c0.84,0.66,1.845,1.035,2.82,1.035c1.215,0,2.16-0.645,2.16-1.575
										v-0.029c0-1.065-1.14-1.396-2.295-1.71c-1.41-0.405-2.625-0.795-2.625-2.055v-0.03c0-1.125,1.035-1.98,2.58-1.98
										c0.87,0,1.86,0.301,2.655,0.841l-0.27,0.404c-0.72-0.51-1.604-0.795-2.399-0.795c-1.245,0-2.07,0.646-2.07,1.485v0.029
										c0,0.945,1.065,1.29,2.295,1.636c1.38,0.375,2.625,0.81,2.625,2.13v0.029c0,1.245-1.17,2.07-2.685,2.07
										C100.316,299.04,99.146,298.62,98.321,297.93z"/>
									<path fill="#FFFFFF" d="M110.261,297.99l2.295-2.91l-2.295-2.91l0.33-0.239l2.55,3.104v0.09l-2.55,3.105L110.261,297.99z
										 M113.021,297.99l2.295-2.91l-2.295-2.91l0.33-0.239l2.536,3.104v0.09l-2.536,3.105L113.021,297.99z"/>
									<path fill="#FFFFFF" d="M121.916,293.67v-0.029c0-2.865,1.62-5.415,4.32-5.415c2.715,0,4.318,2.52,4.318,5.415v0.029
										c0,2.865-1.619,5.415-4.318,5.415C123.521,299.085,121.916,296.565,121.916,293.67z M130.029,293.686v-0.03
										c0-2.58-1.424-4.965-3.809-4.965c-2.386,0-3.779,2.34-3.779,4.935v0.03c0,2.58,1.425,4.965,3.81,4.965
										C128.637,298.621,130.029,296.266,130.029,293.686z"/>
									<path fill="#FFFFFF" d="M132.055,298.56l4.426-4.185c1.664-1.56,2.056-2.444,2.056-3.345c0-1.305-1.125-2.325-2.61-2.325
										c-1.455,0-2.46,0.825-3.193,2.056l-0.405-0.255c0.78-1.335,1.875-2.25,3.63-2.25c1.83,0,3.104,1.215,3.104,2.729v0.03
										c0,1.125-0.479,2.01-2.25,3.689l-3.93,3.72h6.314v0.48h-7.141V298.56L132.055,298.56z"/>
									<path fill="#FFFFFF" d="M141.161,291.346h0.72v0.975h-0.72V291.346z M141.161,297.93h0.72v0.976h-0.72V297.93z"/>
									<path fill="#FFFFFF" d="M143.425,297.21l0.39-0.33c0.795,1.05,1.965,1.74,3.42,1.74c1.562,0,2.881-1.021,2.881-2.475v-0.03
										c0-1.71-1.516-2.475-3.659-2.475h-0.437l-0.148-0.301l3.898-4.454h-5.789v-0.48h6.479v0.36l-3.854,4.409
										c2.354,0.046,4.021,0.96,4.021,2.926c0,0,0,0.015,0,0.029c0,1.74-1.575,2.955-3.405,2.955
										C145.555,299.085,144.25,298.305,143.425,297.21z"/>
									<path fill="#FFFFFF" d="M152.26,297.405l0.375-0.36c0.811,0.9,1.995,1.575,3.27,1.575c1.816,0,3.091-1.2,3.091-2.835v-0.03
										c0-1.59-1.319-2.685-3.091-2.685c-0.885,0-1.754,0.225-2.608,0.688l-0.36-0.21l0.301-5.145h5.715v0.479h-5.249
										l-0.271,4.305c0.779-0.375,1.574-0.57,2.534-0.57c2.011,0,3.54,1.26,3.54,3.12v0.03c0,1.935-1.5,3.314-3.63,3.314
										C154.451,299.085,153.07,298.32,152.26,297.405z"/>
								</g>
								<g>
									<path fill="#FFFFFF" d="M19.257,325.388h-3.735v-0.465h7.995v0.465h-3.75v10.035h-0.51V325.388z"/>
									<path fill="#FFFFFF" d="M24.042,327.863h0.48v2.31c0.45-1.29,1.605-2.505,3.21-2.46v0.495c-0.015,0-0.06,0-0.075,0
										c-1.83,0-3.135,1.77-3.135,3.63v3.585h-0.48V327.863z"/>
									<path fill="#FFFFFF" d="M28.452,333.293v-0.03c0-1.575,1.425-2.43,3.345-2.43c1.05,0,1.965,0.18,2.7,0.42v-0.51
										c0-1.71-1.02-2.55-2.7-2.55c-0.93,0-1.71,0.255-2.46,0.63l-0.18-0.42c0.84-0.405,1.665-0.66,2.67-0.66
										c1.035,0,1.845,0.27,2.4,0.825c0.48,0.494,0.75,1.215,0.75,2.145v4.71h-0.48v-1.575c-0.39,0.825-1.44,1.755-3.18,1.755
										C29.862,335.603,28.452,334.822,28.452,333.293z M34.512,332.633v-0.93c-0.735-0.24-1.605-0.42-2.73-0.42
										c-1.665,0-2.82,0.704-2.82,1.949v0.03c0,1.245,1.125,1.89,2.385,1.89C33.177,335.152,34.512,333.982,34.512,332.633z"/>
									<path fill="#FFFFFF" d="M37.092,331.658v-0.03c0-2.13,1.68-3.945,3.87-3.945c1.395,0,2.28,0.63,3.015,1.396l-0.345,0.345
										c-0.66-0.705-1.485-1.29-2.685-1.29c-1.905,0-3.345,1.575-3.345,3.479v0.03c0,1.905,1.485,3.51,3.375,3.51
										c1.2,0,2.055-0.614,2.715-1.35l0.345,0.3c-0.735,0.855-1.68,1.5-3.09,1.5C38.771,335.603,37.092,333.803,37.092,331.658z"
										/>
									<path fill="#FFFFFF" d="M46.092,324.473h0.48v8.28l5.025-4.89h0.645l-3.48,3.345l3.66,4.215h-0.6l-3.39-3.885l-1.86,1.784
										v2.101h-0.48V324.473z"/>
									<path fill="#FFFFFF" d="M53.637,334.447l0.285-0.375c0.84,0.66,1.845,1.035,2.82,1.035c1.215,0,2.16-0.645,2.16-1.575
										v-0.029c0-1.065-1.14-1.396-2.295-1.71c-1.41-0.405-2.625-0.795-2.625-2.055v-0.03c0-1.125,1.035-1.98,2.58-1.98
										c0.87,0,1.86,0.301,2.655,0.841l-0.27,0.404c-0.72-0.51-1.605-0.795-2.4-0.795c-1.245,0-2.07,0.646-2.07,1.485v0.029
										c0,0.945,1.065,1.29,2.295,1.636c1.38,0.375,2.625,0.81,2.625,2.13v0.029c0,1.245-1.17,2.07-2.685,2.07
										C55.632,335.558,54.462,335.138,53.637,334.447z"/>
									<path fill="#FFFFFF" d="M65.367,331.643v-0.09l2.535-3.104l0.33,0.239l-2.295,2.91l2.295,2.91l-0.33,0.24L65.367,331.643z
										 M68.111,331.643v-0.09l2.55-3.104l0.33,0.239l-2.295,2.91l2.295,2.91l-0.33,0.24L68.111,331.643z"/>
									<path fill="#FFFFFF" d="M77.621,330.893v-5.97h0.51v5.94c0,2.789,1.5,4.26,3.78,4.26c2.265,0,3.735-1.41,3.735-4.23v-5.97
										h0.51v5.925c0,3.135-1.725,4.74-4.26,4.74C79.376,335.588,77.621,333.998,77.621,330.893z"/>
									<path fill="#FFFFFF" d="M88.946,327.863h0.48v1.8c0.345-0.9,1.29-1.98,2.91-1.98c1.995,0,3.12,1.351,3.12,3.315v4.425
										h-0.48v-4.35c0-1.756-0.945-2.94-2.7-2.94c-1.59,0-2.85,1.305-2.85,3.03v4.26h-0.48V327.863z"/>
									<path fill="#FFFFFF" d="M101.92,331.658v-0.03c0-2.295,1.695-3.945,3.735-3.945c1.665,0,2.835,0.99,3.345,2.235v-5.445
										h0.48v10.95H109v-2.085c-0.525,1.26-1.695,2.265-3.345,2.265C103.615,335.603,101.92,333.968,101.92,331.658z
										 M109.03,331.658v-0.03c0-1.95-1.485-3.48-3.33-3.48c-1.905,0-3.27,1.44-3.27,3.465v0.03c0,1.995,1.395,3.495,3.27,3.495
										C107.56,335.138,109.03,333.607,109.03,331.658z"/>
									<path fill="#FFFFFF" d="M111.73,331.673v-0.03c0-2.114,1.605-3.96,3.93-3.96c2.311,0,3.898,1.815,3.898,3.93v0.03
										c0,2.115-1.59,3.96-3.914,3.96C113.335,335.603,111.73,333.788,111.73,331.673z M119.05,331.658v-0.03
										c0-1.905-1.454-3.495-3.42-3.495c-1.995,0-3.375,1.59-3.375,3.495v0.03c0,1.904,1.44,3.494,3.405,3.494
										C117.654,335.152,119.05,333.562,119.05,331.658z"/>
									<path fill="#FFFFFF" d="M121.286,331.658v-0.03c0-2.13,1.68-3.945,3.87-3.945c1.395,0,2.279,0.63,3.015,1.396l-0.345,0.345
										c-0.66-0.705-1.485-1.29-2.686-1.29c-1.904,0-3.346,1.575-3.346,3.479v0.03c0,1.905,1.484,3.51,3.375,3.51
										c1.2,0,2.055-0.614,2.715-1.35l0.346,0.3c-0.734,0.855-1.681,1.5-3.09,1.5
										C122.965,335.603,121.286,333.803,121.286,331.658z"/>
									<path fill="#FFFFFF" d="M130.135,332.288v-4.425h0.479v4.35c0,1.755,0.945,2.939,2.701,2.939c1.59,0,2.85-1.305,2.85-3.029
										v-4.26h0.48v7.56h-0.48v-1.8c-0.346,0.899-1.29,1.979-2.909,1.979C131.26,335.603,130.135,334.253,130.135,332.288z"/>
									<path fill="#FFFFFF" d="M139.434,327.863h0.48v1.694c0.33-0.885,1.229-1.875,2.58-1.875c1.515,0,2.34,0.915,2.67,1.995
										c0.375-0.99,1.335-1.995,2.715-1.995c1.725,0,2.864,1.17,2.864,3.226v4.515h-0.479v-4.47c0-1.83-0.959-2.82-2.414-2.82
										c-1.291,0-2.521,1.17-2.521,2.88v4.41h-0.479v-4.485c0-1.8-0.976-2.805-2.399-2.805c-1.32,0-2.535,1.26-2.535,2.895v4.396
										h-0.479v-7.561H139.434z"/>
									<path fill="#FFFFFF" d="M152.92,331.643v-0.03c0-2.22,1.529-3.93,3.614-3.93c2.28,0,3.465,1.95,3.465,3.976
										c0,0.074,0,0.104,0,0.165h-6.556c0.092,2.055,1.545,3.329,3.24,3.329c1.17,0,2.115-0.614,2.715-1.395l0.36,0.285
										c-0.69,0.899-1.71,1.56-3.09,1.56C154.63,335.603,152.92,334.058,152.92,331.643z M159.475,331.388
										c-0.074-1.649-1.08-3.255-2.97-3.255c-1.71,0-2.97,1.396-3.062,3.255H159.475z"/>
									<path fill="#FFFFFF" d="M162.189,327.863h0.479v1.8c0.345-0.9,1.29-1.98,2.91-1.98c1.993,0,3.118,1.351,3.118,3.315v4.425
										h-0.479v-4.35c0-1.756-0.945-2.94-2.699-2.94c-1.59,0-2.851,1.305-2.851,3.03v4.26h-0.479V327.863z"/>
									<path fill="#FFFFFF" d="M171.745,333.487v-5.189h-1.155v-0.435h1.155v-2.535h0.479v2.535h2.744v0.435h-2.744v5.145
										c0,1.11,0.586,1.665,1.574,1.665c0.375,0,0.75-0.09,1.141-0.27v0.465c-0.375,0.18-0.766,0.255-1.186,0.255
										C172.54,335.558,171.745,334.853,171.745,333.487z"/>
									<path fill="#FFFFFF" d="M176.469,333.293v-0.03c0-1.575,1.426-2.43,3.346-2.43c1.051,0,1.965,0.18,2.699,0.42v-0.51
										c0-1.71-1.02-2.55-2.699-2.55c-0.931,0-1.711,0.255-2.459,0.63l-0.182-0.42c0.84-0.405,1.665-0.66,2.67-0.66
										c1.035,0,1.846,0.27,2.4,0.825c0.479,0.494,0.75,1.215,0.75,2.145v4.71h-0.48v-1.575c-0.39,0.825-1.438,1.755-3.18,1.755
										C177.879,335.603,176.469,334.822,176.469,333.293z M182.529,332.633v-0.93c-0.734-0.24-1.604-0.42-2.729-0.42
										c-1.665,0-2.819,0.704-2.819,1.949v0.03c0,1.245,1.125,1.89,2.386,1.89C181.195,335.152,182.529,333.982,182.529,332.633z"
										/>
									<path fill="#FFFFFF" d="M185.648,324.863h0.646v0.915h-0.646V324.863z M185.725,327.863h0.493v7.56h-0.493V327.863z"/>
									<path fill="#FFFFFF" d="M189.098,327.863h0.48v2.31c0.449-1.29,1.604-2.505,3.21-2.46v0.495c-0.017,0-0.062,0-0.075,0
										c-1.83,0-3.135,1.77-3.135,3.63v3.585h-0.48V327.863L189.098,327.863z"/>
									<path fill="#FFFFFF" d="M193.613,331.643v-0.03c0-2.22,1.529-3.93,3.615-3.93c2.279,0,3.465,1.95,3.465,3.976
										c0,0.074,0,0.104,0,0.165h-6.555c0.09,2.055,1.545,3.329,3.239,3.329c1.17,0,2.115-0.614,2.715-1.395l0.36,0.285
										c-0.689,0.899-1.71,1.56-3.09,1.56C195.324,335.603,193.613,334.058,193.613,331.643z M200.168,331.388
										c-0.075-1.649-1.08-3.255-2.971-3.255c-1.709,0-2.969,1.396-3.061,3.255H200.168z"/>
									<path fill="#FFFFFF" d="M15.642,352.447l0.285-0.375c0.84,0.66,1.845,1.035,2.82,1.035c1.215,0,2.16-0.645,2.16-1.575
										v-0.029c0-1.065-1.14-1.396-2.295-1.71c-1.41-0.405-2.625-0.795-2.625-2.055v-0.03c0-1.125,1.035-1.98,2.58-1.98
										c0.87,0,1.86,0.301,2.655,0.841l-0.27,0.404c-0.72-0.51-1.604-0.795-2.399-0.795c-1.245,0-2.07,0.646-2.07,1.485v0.029
										c0,0.945,1.065,1.29,2.295,1.636c1.38,0.375,2.625,0.81,2.625,2.13v0.029c0,1.245-1.17,2.07-2.685,2.07
										C17.637,353.558,16.467,353.138,15.642,352.447z"/>
									<path fill="#FFFFFF" d="M23.592,350.288v-4.425h0.48v4.35c0,1.755,0.945,2.939,2.7,2.939c1.59,0,2.85-1.305,2.85-3.029
										v-4.26h0.48v7.56h-0.48v-1.8c-0.345,0.899-1.29,1.979-2.91,1.979C24.717,353.603,23.592,352.253,23.592,350.288z"/>
									<path fill="#FFFFFF" d="M32.892,345.863h0.48v2.31c0.45-1.29,1.605-2.505,3.21-2.46v0.495c-0.015,0-0.06,0-0.075,0
										c-1.83,0-3.135,1.77-3.135,3.63v3.585h-0.48V345.863z"/>
									<path fill="#FFFFFF" d="M42.776,342.923h3.75c2.46,0,3.975,1.186,3.975,3.18v0.03c0,2.1-1.695,3.255-4.095,3.255h-3.12
										v4.035h-0.51V342.923z M46.421,348.908c2.175,0,3.57-1.021,3.57-2.761v-0.029c0-1.726-1.35-2.73-3.51-2.73h-3.195v5.521
										L46.421,348.908L46.421,348.908z"/>
									<path fill="#FFFFFF" d="M52.572,350.288v-4.425h0.48v4.35c0,1.755,0.945,2.939,2.7,2.939c1.59,0,2.85-1.305,2.85-3.029
										v-4.26h0.48v7.56h-0.48v-1.8c-0.345,0.899-1.29,1.979-2.91,1.979C53.697,353.603,52.572,352.253,52.572,350.288z"/>
									<path fill="#FFFFFF" d="M61.961,342.473h0.495v10.95h-0.495V342.473z"/>
									<path fill="#FFFFFF" d="M65.336,345.863h0.48v2.085c0.525-1.261,1.695-2.266,3.345-2.266c2.04,0,3.735,1.635,3.735,3.945
										v0.03c0,2.295-1.695,3.944-3.735,3.944c-1.665,0-2.835-0.99-3.345-2.234v4.454h-0.48V345.863z M72.386,349.673v-0.03
										c0-1.995-1.395-3.495-3.27-3.495c-1.86,0-3.33,1.53-3.33,3.48v0.03c0,1.949,1.485,3.479,3.33,3.479
										C71.021,353.138,72.386,351.697,72.386,349.673z"/>
									<path fill="#FFFFFF" d="M74.471,354.532c0.45-0.225,0.6-0.555,0.57-1.109h-0.33v-0.976h0.72v0.855
										c0,0.885-0.24,1.26-0.825,1.484L74.471,354.532z"/>
									<path fill="#FFFFFF" d="M82.061,354.697l0.285-0.39c0.945,0.72,1.995,1.095,3.165,1.095c1.905,0,3.195-1.08,3.195-3.194
										v-1.365c-0.585,1.155-1.77,2.024-3.3,2.024c-1.965,0-3.69-1.529-3.69-3.569v-0.03c0-2.055,1.725-3.585,3.69-3.585
										c1.53,0,2.715,0.87,3.3,1.995v-1.814h0.495v6.404c0,1.11-0.36,1.995-0.975,2.61c-0.645,0.645-1.605,0.989-2.715,0.989
										C84.236,355.867,83.096,355.478,82.061,354.697z M88.75,349.298v-0.03c0-1.755-1.545-3.12-3.3-3.12
										c-1.77,0-3.21,1.32-3.21,3.105v0.03c0,1.755,1.455,3.119,3.21,3.119C87.205,352.402,88.75,351.053,88.75,349.298z"/>
									<path fill="#FFFFFF" d="M91.991,345.863h0.48v2.31c0.45-1.29,1.605-2.505,3.21-2.46v0.495c-0.015,0-0.06,0-0.075,0
										c-1.83,0-3.135,1.77-3.135,3.63v3.585h-0.48V345.863z"/>
									<path fill="#FFFFFF" d="M96.491,349.673v-0.03c0-2.114,1.605-3.96,3.93-3.96c2.31,0,3.9,1.815,3.9,3.93v0.03
										c0,2.115-1.59,3.96-3.915,3.96C98.096,353.603,96.491,351.788,96.491,349.673z M103.811,349.658v-0.03
										c0-1.905-1.455-3.495-3.42-3.495c-1.995,0-3.375,1.59-3.375,3.495v0.03c0,1.904,1.44,3.494,3.405,3.494
										C102.416,353.152,103.811,351.562,103.811,349.658z"/>
									<path fill="#FFFFFF" d="M106.42,350.288v-4.425h0.48v4.35c0,1.755,0.945,2.939,2.7,2.939c1.59,0,2.85-1.305,2.85-3.029
										v-4.26h0.48v7.56h-0.48v-1.8c-0.345,0.899-1.29,1.979-2.91,1.979C107.545,353.603,106.42,352.253,106.42,350.288z"/>
									<path fill="#FFFFFF" d="M115.721,345.863h0.479v2.085c0.525-1.261,1.695-2.266,3.346-2.266
										c2.039,0,3.734,1.635,3.734,3.945v0.03c0,2.295-1.695,3.944-3.734,3.944c-1.665,0-2.835-0.99-3.346-2.234v4.454h-0.479
										V345.863z M122.77,349.673v-0.03c0-1.995-1.396-3.495-3.271-3.495c-1.858,0-3.329,1.53-3.329,3.48v0.03
										c0,1.949,1.484,3.479,3.329,3.479C121.404,353.138,122.77,351.697,122.77,349.673z"/>
									<path fill="#FFFFFF" d="M125.05,349.643v-0.03c0-2.22,1.53-3.93,3.614-3.93c2.279,0,3.465,1.95,3.465,3.976
										c0,0.074,0,0.104,0,0.165h-6.555c0.091,2.055,1.545,3.329,3.24,3.329c1.17,0,2.115-0.614,2.715-1.395l0.359,0.285
										c-0.689,0.899-1.709,1.56-3.09,1.56C126.76,353.603,125.05,352.058,125.05,349.643z M131.605,349.388
										c-0.076-1.649-1.08-3.255-2.971-3.255c-1.71,0-2.97,1.396-3.061,3.255H131.605z"/>
									<path fill="#FFFFFF" d="M138.639,345.863h0.48v2.085c0.525-1.261,1.695-2.266,3.345-2.266c2.04,0,3.735,1.635,3.735,3.945
										v0.03c0,2.295-1.695,3.944-3.735,3.944c-1.665,0-2.835-0.99-3.345-2.234v4.454h-0.48V345.863z M145.689,349.673v-0.03
										c0-1.995-1.396-3.495-3.271-3.495c-1.86,0-3.33,1.53-3.33,3.48v0.03c0,1.949,1.485,3.479,3.33,3.479
										C144.325,353.138,145.689,351.697,145.689,349.673z"/>
									<path fill="#FFFFFF" d="M148.495,342.473h0.479v5.19c0.346-0.9,1.291-1.98,2.91-1.98c1.994,0,3.119,1.351,3.119,3.315
										v4.425h-0.479v-4.35c0-1.756-0.945-2.94-2.7-2.94c-1.591,0-2.851,1.305-2.851,3.03v4.26h-0.479V342.473z"/>
									<path fill="#FFFFFF" d="M157.014,351.293v-0.03c0-1.575,1.426-2.43,3.346-2.43c1.051,0,1.966,0.18,2.699,0.42v-0.51
										c0-1.71-1.02-2.55-2.699-2.55c-0.93,0-1.711,0.255-2.459,0.63l-0.182-0.42c0.84-0.405,1.665-0.66,2.67-0.66
										c1.035,0,1.846,0.27,2.4,0.825c0.479,0.494,0.75,1.215,0.75,2.145v4.71h-0.48v-1.575c-0.39,0.825-1.438,1.755-3.18,1.755
										C158.424,353.603,157.014,352.822,157.014,351.293z M163.075,350.633v-0.93c-0.735-0.24-1.604-0.42-2.729-0.42
										c-1.666,0-2.82,0.704-2.82,1.949v0.03c0,1.245,1.125,1.89,2.386,1.89C161.74,353.152,163.075,351.982,163.075,350.633z"/>
									<path fill="#FFFFFF" d="M166.18,345.863h0.479v2.31c0.45-1.29,1.604-2.505,3.21-2.46v0.495c-0.016,0-0.061,0-0.075,0
										c-1.83,0-3.135,1.77-3.135,3.63v3.585h-0.479V345.863L166.18,345.863z"/>
									<path fill="#FFFFFF" d="M170.695,349.643v-0.03c0-2.22,1.529-3.93,3.613-3.93c2.28,0,3.465,1.95,3.465,3.976
										c0,0.074,0,0.104,0,0.165h-6.555c0.092,2.055,1.545,3.329,3.24,3.329c1.17,0,2.115-0.614,2.715-1.395l0.36,0.285
										c-0.69,0.899-1.71,1.56-3.091,1.56C172.404,353.603,170.695,352.058,170.695,349.643z M177.25,349.388
										c-0.075-1.649-1.08-3.255-2.971-3.255c-1.709,0-2.969,1.396-3.061,3.255H177.25z"/>
									<path fill="#FFFFFF" d="M15.852,367.658v-0.03c0-2.295,1.695-3.944,3.735-3.944c1.665,0,2.835,0.989,3.345,2.234v-5.445
										h0.48v10.95h-0.48v-2.085c-0.525,1.26-1.695,2.266-3.345,2.266C17.547,371.604,15.852,369.968,15.852,367.658z
										 M22.962,367.658v-0.03c0-1.95-1.485-3.479-3.33-3.479c-1.905,0-3.27,1.439-3.27,3.465v0.029
										c0,1.996,1.395,3.496,3.27,3.496C21.492,371.139,22.962,369.607,22.962,367.658z"/>
									<path fill="#FFFFFF" d="M25.677,367.643v-0.029c0-2.221,1.53-3.93,3.615-3.93c2.28,0,3.465,1.949,3.465,3.976
										c0,0.073,0,0.104,0,0.165h-6.555c0.09,2.055,1.545,3.328,3.24,3.328c1.17,0,2.115-0.613,2.715-1.395l0.36,0.285
										c-0.69,0.898-1.709,1.561-3.09,1.561C27.387,371.604,25.677,370.059,25.677,367.643z M32.232,367.389
										c-0.075-1.649-1.08-3.256-2.97-3.256c-1.709,0-2.97,1.396-3.06,3.256H32.232z"/>
									<path fill="#FFFFFF" d="M39.357,360.473h0.495v10.95h-0.495V360.473z"/>
									<path fill="#FFFFFF" d="M42.102,369.293v-0.029c0-1.576,1.425-2.431,3.345-2.431c1.05,0,1.965,0.181,2.7,0.42v-0.51
										c0-1.71-1.02-2.55-2.7-2.55c-0.93,0-1.71,0.255-2.46,0.63l-0.18-0.421c0.84-0.404,1.665-0.659,2.67-0.659
										c1.035,0,1.845,0.271,2.4,0.825c0.48,0.494,0.75,1.215,0.75,2.145v4.71h-0.48v-1.575c-0.39,0.825-1.44,1.756-3.18,1.756
										C43.512,371.604,42.102,370.822,42.102,369.293z M48.162,368.633v-0.93c-0.735-0.24-1.605-0.42-2.73-0.42
										c-1.665,0-2.82,0.703-2.82,1.949v0.029c0,1.245,1.125,1.891,2.385,1.891C46.827,371.152,48.162,369.982,48.162,368.633z"/>
									<path fill="#FFFFFF" d="M55.751,360.923h4.32c1.2,0,2.16,0.33,2.745,0.915c0.435,0.436,0.675,1.005,0.675,1.695v0.029
										c0,1.351-0.87,2.189-1.935,2.489c1.38,0.255,2.505,1.14,2.505,2.565v0.029c0,1.739-1.425,2.774-3.765,2.774h-4.545V360.923
										z M60.176,365.889c1.56,0,2.805-0.766,2.805-2.279v-0.03c0-1.32-1.08-2.19-2.925-2.19h-3.795v4.5H60.176L60.176,365.889z
										 M60.311,370.958c2.025,0,3.225-0.87,3.225-2.295v-0.03c0-1.47-1.305-2.279-3.165-2.279h-4.11v4.604H60.311z"/>
									<path fill="#FFFFFF" d="M66.446,363.863h0.48v2.31c0.45-1.29,1.605-2.505,3.21-2.46v0.495c-0.015,0-0.06,0-0.075,0
										c-1.83,0-3.135,1.771-3.135,3.63v3.585h-0.48V363.863z"/>
									<path fill="#FFFFFF" d="M71.876,360.863h0.645v0.914h-0.645V360.863z M71.951,363.863h0.495v7.56h-0.495V363.863z"/>
									<path fill="#FFFFFF" d="M75.731,369.486v-5.188h-1.155v-0.435h1.155v-2.535h0.48v2.535h2.745v0.435h-2.745v5.146
										c0,1.109,0.585,1.664,1.575,1.664c0.375,0,0.75-0.09,1.14-0.27v0.465c-0.375,0.18-0.765,0.256-1.185,0.256
										C76.526,371.559,75.731,370.854,75.731,369.486z"/>
									<path fill="#FFFFFF" d="M85.556,360.923h3.75c2.46,0,3.975,1.187,3.975,3.181v0.029c0,2.1-1.695,3.256-4.095,3.256h-3.12
										v4.034h-0.51V360.923z M89.201,366.908c2.175,0,3.57-1.021,3.57-2.762v-0.028c0-1.726-1.35-2.729-3.51-2.729h-3.195v5.521
										L89.201,366.908L89.201,366.908z"/>
									<path fill="#FFFFFF" d="M94.811,367.673v-0.03c0-2.113,1.605-3.959,3.93-3.959c2.31,0,3.9,1.814,3.9,3.93v0.029
										c0,2.115-1.59,3.961-3.915,3.961C96.416,371.604,94.811,369.788,94.811,367.673z M102.131,367.658v-0.03
										c0-1.905-1.455-3.495-3.42-3.495c-1.995,0-3.375,1.59-3.375,3.495v0.03c0,1.904,1.44,3.494,3.405,3.494
										C100.736,371.152,102.131,369.562,102.131,367.658z"/>
									<path fill="#FFFFFF" d="M104.891,363.863h0.48v2.085c0.525-1.261,1.695-2.267,3.345-2.267c2.04,0,3.735,1.635,3.735,3.945
										v0.03c0,2.295-1.695,3.944-3.735,3.944c-1.665,0-2.835-0.99-3.345-2.234v4.453h-0.48V363.863z M111.94,367.673v-0.03
										c0-1.994-1.395-3.494-3.27-3.494c-1.86,0-3.33,1.529-3.33,3.479v0.03c0,1.949,1.485,3.479,3.33,3.479
										C110.575,371.139,111.94,369.697,111.94,367.673z"/>
									<path fill="#FFFFFF" d="M118.585,370.508l2.295-2.91l-2.295-2.91l0.33-0.238l2.55,3.104v0.09l-2.55,3.105L118.585,370.508z
										 M121.346,370.508l2.295-2.91l-2.295-2.91l0.329-0.238l2.535,3.104v0.09l-2.535,3.105L121.346,370.508z"/>
									<path fill="#FFFFFF" d="M130.241,366.188v-0.028c0-2.865,1.62-5.415,4.319-5.415c2.715,0,4.319,2.52,4.319,5.415v0.028
										c0,2.865-1.62,5.416-4.319,5.416C131.846,371.604,130.241,369.083,130.241,366.188z M138.355,366.203v-0.03
										c0-2.58-1.426-4.965-3.811-4.965s-3.779,2.34-3.779,4.935v0.03c0,2.58,1.426,4.966,3.811,4.966
										S138.355,368.783,138.355,366.203z"/>
									<path fill="#FFFFFF" d="M140.725,369.923l0.375-0.36c0.812,0.9,1.996,1.576,3.271,1.576c1.815,0,3.09-1.201,3.09-2.836
										v-0.029c0-1.59-1.319-2.686-3.09-2.686c-0.886,0-1.755,0.225-2.608,0.689l-0.361-0.211l0.301-5.145h5.715v0.48h-5.249
										l-0.271,4.305c0.779-0.375,1.574-0.57,2.535-0.57c2.01,0,3.539,1.26,3.539,3.12v0.03c0,1.936-1.5,3.314-3.63,3.314
										C142.916,371.604,141.536,370.838,140.725,369.923z"/>
									<path fill="#FFFFFF" d="M149.951,363.863h0.72v0.975h-0.72V363.863z M149.951,370.447h0.72v0.976h-0.72V370.447z"/>
									<path fill="#FFFFFF" d="M154.419,361.402l-1.979,0.796l-0.166-0.405l2.25-0.945h0.392v10.575h-0.495L154.419,361.402
										L154.419,361.402z"/>
									<path fill="#FFFFFF" d="M157.48,369.923l0.375-0.36c0.811,0.9,1.994,1.576,3.27,1.576c1.814,0,3.09-1.201,3.09-2.836
										v-0.029c0-1.59-1.318-2.686-3.09-2.686c-0.885,0-1.755,0.225-2.609,0.689l-0.359-0.211l0.3-5.145h5.715v0.48h-5.249
										l-0.271,4.305c0.781-0.375,1.576-0.57,2.535-0.57c2.01,0,3.541,1.26,3.541,3.12v0.03c0,1.936-1.5,3.314-3.631,3.314
										C159.67,371.604,158.291,370.838,157.48,369.923z"/>
								</g>
								<g>
									<path fill="#FFFFFF" d="M16.512,397.441h4.32c1.2,0,2.16,0.33,2.745,0.915c0.435,0.435,0.675,1.005,0.675,1.693v0.03
										c0,1.35-0.87,2.188-1.935,2.49c1.38,0.255,2.505,1.14,2.505,2.563v0.03c0,1.739-1.425,2.773-3.765,2.773h-4.545V397.441z
										 M20.937,402.406c1.56,0,2.805-0.767,2.805-2.28v-0.03c0-1.318-1.08-2.188-2.925-2.188h-3.795v4.5L20.937,402.406
										L20.937,402.406z M21.072,407.476c2.025,0,3.225-0.869,3.225-2.295v-0.029c0-1.471-1.305-2.279-3.165-2.279h-4.11v4.604
										H21.072z"/>
									<path fill="#FFFFFF" d="M27.222,397.381h0.645v0.915h-0.645V397.381z M27.297,400.381h0.495v7.561h-0.495V400.381z"/>
									<path fill="#FFFFFF" d="M33.582,397.906h-3.735v-0.465h7.995v0.465h-3.75v10.034h-0.51V397.906z"/>
									<path fill="#FFFFFF" d="M39.057,406.411l0.345-0.375c1.11,1.05,2.34,1.59,3.87,1.59c1.815,0,3-0.99,3-2.311v-0.029
										c0-1.23-0.705-1.892-3.24-2.415c-2.565-0.51-3.57-1.32-3.57-2.835v-0.03c0-1.5,1.425-2.715,3.405-2.715
										c1.44,0,2.58,0.45,3.57,1.23l-0.315,0.403c-0.96-0.765-2.055-1.17-3.285-1.17c-1.725,0-2.865,1.035-2.865,2.205v0.03
										c0,1.215,0.705,1.89,3.255,2.415c2.61,0.523,3.555,1.363,3.555,2.835v0.028c0,1.62-1.395,2.82-3.54,2.82
										C41.607,408.091,40.242,407.506,39.057,406.411z"/>
									<path fill="#FFFFFF" d="M52.812,404.161v-0.09l2.535-3.105l0.33,0.24l-2.295,2.91l2.295,2.909l-0.33,0.239L52.812,404.161z
										 M55.556,404.161v-0.09l2.55-3.105l0.33,0.24l-2.295,2.91l2.295,2.909l-0.33,0.239L55.556,404.161z"/>
									<path fill="#FFFFFF" d="M65.216,397.441h3.75c2.46,0,3.975,1.185,3.975,3.18v0.03c0,2.1-1.695,3.255-4.095,3.255h-3.12
										v4.034h-0.51V397.441z M68.861,403.426c2.175,0,3.57-1.02,3.57-2.76v-0.03c0-1.725-1.35-2.729-3.51-2.729h-3.195v5.52
										L68.861,403.426L68.861,403.426z"/>
									<path fill="#FFFFFF" d="M75.011,404.806v-4.425h0.48v4.351c0,1.755,0.945,2.939,2.7,2.939c1.59,0,2.85-1.305,2.85-3.03
										v-4.26h0.48v7.561h-0.48v-1.801c-0.345,0.9-1.29,1.98-2.91,1.98C76.136,408.121,75.011,406.771,75.011,404.806z"/>
									<path fill="#FFFFFF" d="M84.401,396.991h0.495v10.949h-0.495V396.991z"/>
									<path fill="#FFFFFF" d="M87.776,400.381h0.48v2.085c0.525-1.26,1.695-2.265,3.345-2.265c2.04,0,3.735,1.635,3.735,3.943
										v0.03c0,2.295-1.695,3.945-3.735,3.945c-1.665,0-2.835-0.99-3.345-2.235v4.455h-0.48V400.381z M94.826,404.19v-0.029
										c0-1.995-1.395-3.495-3.27-3.495c-1.86,0-3.33,1.53-3.33,3.479v0.03c0,1.95,1.485,3.479,3.33,3.479
										C93.46,407.655,94.826,406.216,94.826,404.19z"/>
									<path fill="#FFFFFF" d="M96.911,409.051c0.45-0.226,0.6-0.555,0.57-1.109h-0.33v-0.976h0.72v0.854
										c0,0.886-0.24,1.261-0.825,1.484L96.911,409.051z"/>
									<path fill="#FFFFFF" d="M104.65,400.381h0.48v2.085c0.525-1.26,1.695-2.265,3.345-2.265c2.04,0,3.735,1.635,3.735,3.943
										v0.03c0,2.295-1.695,3.945-3.735,3.945c-1.665,0-2.835-0.99-3.345-2.235v4.455h-0.48V400.381z M111.7,404.19v-0.029
										c0-1.995-1.395-3.495-3.27-3.495c-1.86,0-3.33,1.53-3.33,3.479v0.03c0,1.95,1.485,3.479,3.33,3.479
										C110.335,407.655,111.7,406.216,111.7,404.19z"/>
									<path fill="#FFFFFF" d="M113.965,404.19v-0.029c0-2.115,1.604-3.96,3.93-3.96c2.311,0,3.9,1.813,3.9,3.93v0.03
										c0,2.114-1.591,3.96-3.915,3.96C115.57,408.121,113.965,406.306,113.965,404.19z M121.285,404.176v-0.029
										c0-1.904-1.454-3.494-3.42-3.494c-1.994,0-3.375,1.59-3.375,3.494v0.029c0,1.905,1.439,3.495,3.404,3.495
										C119.891,407.671,121.285,406.081,121.285,404.176z"/>
									<path fill="#FFFFFF" d="M124.044,400.381h0.479v2.085c0.524-1.26,1.695-2.265,3.346-2.265c2.04,0,3.734,1.635,3.734,3.943
										v0.03c0,2.295-1.694,3.945-3.734,3.945c-1.665,0-2.835-0.99-3.346-2.235v4.455h-0.479V400.381z M131.094,404.19v-0.029
										c0-1.995-1.395-3.495-3.27-3.495c-1.86,0-3.33,1.53-3.33,3.479v0.03c0,1.95,1.484,3.479,3.33,3.479
										C129.73,407.655,131.094,406.216,131.094,404.19z"/>
									<path fill="#FFFFFF" d="M133.75,404.806v-4.425h0.479v4.351c0,1.755,0.945,2.939,2.701,2.939c1.59,0,2.85-1.305,2.85-3.03
										v-4.26h0.479v7.561h-0.479v-1.801c-0.346,0.9-1.291,1.98-2.909,1.98C134.875,408.121,133.75,406.771,133.75,404.806z"/>
									<path fill="#FFFFFF" d="M143.141,396.991h0.493v10.949h-0.493V396.991z"/>
									<path fill="#FFFFFF" d="M145.884,405.811v-0.029c0-1.574,1.425-2.431,3.345-2.431c1.051,0,1.967,0.182,2.701,0.421v-0.511
										c0-1.71-1.021-2.55-2.701-2.55c-0.93,0-1.709,0.255-2.459,0.63l-0.181-0.42c0.841-0.405,1.665-0.66,2.67-0.66
										c1.035,0,1.845,0.271,2.4,0.825c0.479,0.495,0.75,1.215,0.75,2.146v4.71h-0.479v-1.574
										c-0.391,0.824-1.439,1.755-3.181,1.755C147.294,408.121,145.884,407.341,145.884,405.811z M151.945,405.15v-0.931
										c-0.735-0.239-1.605-0.42-2.73-0.42c-1.665,0-2.818,0.705-2.818,1.95v0.029c0,1.245,1.125,1.891,2.385,1.891
										C150.609,407.671,151.945,406.501,151.945,405.15z"/>
									<path fill="#FFFFFF" d="M155.064,397.381h0.646v0.915h-0.646V397.381z M155.141,400.381h0.493v7.561h-0.493V400.381z"/>
									<path fill="#FFFFFF" d="M158.514,400.381h0.48v2.311c0.449-1.289,1.604-2.506,3.21-2.459v0.493c-0.017,0-0.062,0-0.075,0
										c-1.83,0-3.135,1.771-3.135,3.631v3.585h-0.48V400.381L158.514,400.381z"/>
									<path fill="#FFFFFF" d="M163.029,404.161v-0.03c0-2.22,1.529-3.93,3.615-3.93c2.279,0,3.465,1.95,3.465,3.975
										c0,0.075,0,0.105,0,0.165h-6.555c0.09,2.056,1.545,3.33,3.239,3.33c1.17,0,2.115-0.615,2.715-1.396l0.36,0.284
										c-0.689,0.9-1.71,1.562-3.09,1.562C164.74,408.121,163.029,406.576,163.029,404.161z M169.584,403.906
										c-0.075-1.65-1.08-3.255-2.971-3.255c-1.709,0-2.969,1.395-3.061,3.255H169.584z"/>
									<path fill="#FFFFFF" d="M15.852,422.176v-0.029c0-2.296,1.695-3.944,3.735-3.944c1.665,0,2.835,0.99,3.345,2.233v-5.443
										h0.48v10.949h-0.48v-2.085c-0.525,1.26-1.695,2.266-3.345,2.266C17.547,426.121,15.852,424.485,15.852,422.176z
										 M22.962,422.176v-0.029c0-1.949-1.485-3.479-3.33-3.479c-1.905,0-3.27,1.439-3.27,3.465v0.03
										c0,1.994,1.395,3.494,3.27,3.494C21.492,425.655,22.962,424.126,22.962,422.176z"/>
									<path fill="#FFFFFF" d="M26.052,422.806v-4.425h0.48v4.351c0,1.755,0.945,2.939,2.7,2.939c1.59,0,2.85-1.305,2.85-3.03
										v-4.26h0.48v7.561h-0.48v-1.801c-0.345,0.9-1.29,1.98-2.91,1.98C27.177,426.121,26.052,424.771,26.052,422.806z"/>
									<path fill="#FFFFFF" d="M43.167,420.601l-4.095-5.158h0.6l3.795,4.813l3.795-4.813h0.6l-4.08,5.145l4.229,5.354h-0.6
										l-3.945-5.011l-3.945,5.011h-0.6L43.167,420.601z"/>
									<path fill="#FFFFFF" d="M53.546,420.601l-4.095-5.158h0.6l3.795,4.813l3.795-4.813h0.6l-4.08,5.145l4.229,5.354h-0.6
										l-3.945-5.011l-3.945,5.011h-0.6L53.546,420.601z"/>
									<path fill="#FFFFFF" d="M59.307,422.161v-0.03c0-2.22,1.53-3.93,3.615-3.93c2.28,0,3.465,1.95,3.465,3.975
										c0,0.075,0,0.105,0,0.165h-6.555c0.09,2.056,1.545,3.33,3.24,3.33c1.17,0,2.115-0.615,2.715-1.396l0.36,0.284
										c-0.69,0.9-1.71,1.562-3.09,1.562C61.017,426.121,59.307,424.576,59.307,422.161z M65.861,421.906
										c-0.075-1.65-1.08-3.255-2.97-3.255c-1.709,0-2.97,1.395-3.06,3.255H65.861z"/>
									<path fill="#FFFFFF" d="M72.191,424.966l0.285-0.375c0.84,0.66,1.845,1.035,2.82,1.035c1.215,0,2.16-0.646,2.16-1.575
										v-0.029c0-1.064-1.14-1.396-2.295-1.711c-1.41-0.403-2.625-0.795-2.625-2.055v-0.03c0-1.125,1.035-1.979,2.58-1.979
										c0.87,0,1.86,0.3,2.655,0.84l-0.27,0.405c-0.72-0.511-1.605-0.795-2.4-0.795c-1.245,0-2.07,0.645-2.07,1.483v0.03
										c0,0.945,1.065,1.29,2.295,1.635c1.38,0.375,2.625,0.812,2.625,2.13v0.03c0,1.245-1.17,2.069-2.685,2.069
										C74.187,426.075,73.017,425.655,72.191,424.966z"/>
									<path fill="#FFFFFF" d="M80.306,415.381h0.645v0.915h-0.645V415.381z M80.381,418.381h0.495v7.561h-0.495V418.381z"/>
									<path fill="#FFFFFF" d="M83.231,422.161v-0.03c0-2.22,1.53-3.93,3.615-3.93c2.28,0,3.465,1.95,3.465,3.975
										c0,0.075,0,0.105,0,0.165h-6.555c0.09,2.056,1.545,3.33,3.24,3.33c1.17,0,2.115-0.615,2.715-1.396l0.36,0.284
										c-0.69,0.9-1.709,1.562-3.09,1.562C84.941,426.121,83.231,424.576,83.231,422.161z M89.786,421.906
										c-0.075-1.65-1.08-3.255-2.97-3.255c-1.709,0-2.97,1.395-3.06,3.255H89.786z M85.166,415.396l0.585-0.302l1.395,1.92
										h-0.375L85.166,415.396z"/>
									<path fill="#FFFFFF" d="M91.976,422.176v-0.029c0-2.131,1.68-3.944,3.87-3.944c1.395,0,2.28,0.63,3.015,1.395l-0.345,0.346
										c-0.66-0.704-1.485-1.289-2.685-1.289c-1.905,0-3.345,1.573-3.345,3.479v0.03c0,1.904,1.485,3.51,3.375,3.51
										c1.2,0,2.055-0.615,2.715-1.351l0.345,0.301c-0.735,0.854-1.68,1.5-3.09,1.5C93.656,426.121,91.976,424.32,91.976,422.176z
										"/>
									<path fill="#FFFFFF" d="M101.065,414.991h0.495v10.949h-0.495V414.991z"/>
									<path fill="#FFFFFF" d="M103.916,422.161v-0.03c0-2.22,1.53-3.93,3.615-3.93c2.28,0,3.465,1.95,3.465,3.975
										c0,0.075,0,0.105,0,0.165h-6.555c0.09,2.056,1.545,3.33,3.24,3.33c1.17,0,2.115-0.615,2.715-1.396l0.36,0.284
										c-0.69,0.9-1.709,1.562-3.09,1.562C105.625,426.121,103.916,424.576,103.916,422.161z M110.47,421.906
										c-0.075-1.65-1.08-3.255-2.97-3.255c-1.709,0-2.97,1.395-3.06,3.255H110.47z"/>
									<path fill="#FFFFFF" d="M117.025,425.025l2.295-2.909l-2.295-2.91l0.33-0.24l2.551,3.105v0.09l-2.551,3.104
										L117.025,425.025z M119.786,425.025l2.295-2.909l-2.295-2.91l0.33-0.24l2.534,3.105v0.09l-2.534,3.104L119.786,425.025z"/>
									<path fill="#FFFFFF" d="M128.32,425.596l4.425-4.185c1.665-1.562,2.056-2.445,2.056-3.345c0-1.307-1.125-2.325-2.609-2.325
										c-1.455,0-2.461,0.825-3.194,2.055l-0.405-0.255c0.78-1.335,1.875-2.25,3.631-2.25c1.83,0,3.104,1.215,3.104,2.729v0.03
										c0,1.125-0.479,2.01-2.25,3.69l-3.93,3.72h6.314v0.479h-7.141V425.596L128.32,425.596z"/>
									<path fill="#FFFFFF" d="M136.959,425.596l4.425-4.185c1.665-1.562,2.056-2.445,2.056-3.345
										c0-1.307-1.125-2.325-2.609-2.325c-1.455,0-2.46,0.825-3.193,2.055l-0.406-0.255c0.781-1.335,1.875-2.25,3.631-2.25
										c1.83,0,3.104,1.215,3.104,2.729v0.03c0,1.125-0.479,2.01-2.25,3.69l-3.93,3.72h6.314v0.479h-7.141V425.596
										L136.959,425.596z"/>
									<path fill="#FFFFFF" d="M146.064,418.381h0.721v0.976h-0.721V418.381z M146.064,424.966h0.721v0.976h-0.721V424.966z"/>
									<path fill="#FFFFFF" d="M148.75,424.44l0.375-0.359c0.811,0.899,1.995,1.574,3.27,1.574c1.815,0,3.09-1.199,3.09-2.835
										v-0.029c0-1.59-1.318-2.686-3.09-2.686c-0.885,0-1.754,0.226-2.608,0.689l-0.36-0.21l0.301-5.145h5.715v0.479h-5.25
										l-0.271,4.305c0.78-0.375,1.575-0.568,2.535-0.568c2.01,0,3.54,1.26,3.54,3.119v0.029c0,1.936-1.5,3.315-3.63,3.315
										C150.939,426.121,149.561,425.355,148.75,424.44z"/>
									<path fill="#FFFFFF" d="M157.209,424.246l0.391-0.33c0.795,1.05,1.965,1.739,3.42,1.739c1.561,0,2.879-1.021,2.879-2.476
										v-0.029c0-1.71-1.515-2.476-3.658-2.476h-0.436l-0.15-0.3l3.9-4.455h-5.791v-0.479h6.48v0.358l-3.855,4.41
										c2.355,0.045,4.021,0.96,4.021,2.925c0,0,0,0.016,0,0.03c0,1.739-1.575,2.955-3.405,2.955
										C159.339,426.121,158.035,425.341,157.209,424.246z"/>
								</g>
							</g>
						</g>
					</g>
				</g>
			</g>
		</g>
	</g>
</g>
</svg>
