<?xml version="1.0" encoding="utf-8"?>
<!-- Generator: Adobe Illustrator 15.0.2, SVG Export Plug-In . SVG Version: 6.00 Build 0)  -->
<!DOCTYPE svg PUBLIC "-//W3C//DTD SVG 1.1//EN" "http://www.w3.org/Graphics/SVG/1.1/DTD/svg11.dtd">
<svg version="1.1" id="Calque_1" xmlns="http://www.w3.org/2000/svg" xmlns:xlink="http://www.w3.org/1999/xlink" x="0px" y="0px"
	 width="228px" height="720px" viewBox="0 0 228 720" enable-background="new 0 0 228 720" xml:space="preserve">
<rect fill="#F6481C" width="228" height="720"/>
<g>
	
		<image overflow="visible" opacity="0.45" enable-background="new    " width="1079" height="850" xlink:href="436797BD.png"  transform="matrix(0.2389 0 0 0.2389 -14.7881 -8.2695)">
	</image>
	<g>
		<rect fill="#F6481C" width="228" height="172.389"/>
	</g>
</g>
<g>
	<g>
		<g>
			<defs>
				<rect id="SVGID_1_" x="8.354" y="5.626" width="111.512" height="104.096"/>
			</defs>
			<clipPath id="SVGID_2_">
				<use xlink:href="#SVGID_1_"  overflow="visible"/>
			</clipPath>
			<g clip-path="url(#SVGID_2_)">
				<g>
					<defs>
						<rect id="SVGID_3_" x="8.354" y="5.626" width="111.512" height="104.096"/>
					</defs>
					<clipPath id="SVGID_4_">
						<use xlink:href="#SVGID_3_"  overflow="visible"/>
					</clipPath>
					<path clip-path="url(#SVGID_4_)" fill="#FFFFFF" d="M30.649,21.575c5.193,0.015,11.585,1.42,11.585,6.593v12.36h-9.16v-5.332
						c-0.006-0.017-2.224,0.785-3.927,1.31c-1.146,0.315-2.015,0.963-2.084,2.132c-0.09,0.985,1.028,1.89,1.018,1.891h-8.968
						c-0.011-0.001-1.999-0.718-1.938-2.861c0.184-4.085,3.365-5.588,11.196-6.493c4.22-0.521,4.696-0.928,4.702-1.988
						c-0.006-0.869-0.52-1.854-2.909-1.891c-3.443,0.002-3.203,2.333-3.199,2.327h-8.773C18.175,29.618,18.277,21.584,30.649,21.575
						 M58.416,21.77c-3.046,0.445-4.115,2.963-4.12,2.957v-2.618h-8.53v18.42h9.306v-8.823c0.011-1.558,0.447-2.257,1.018-2.811
						c0.644-0.66,1.77-1.123,3.006-1.114h2.617v-5.672C61.71,22.101,60.368,21.484,58.416,21.77 M76.981,17.746h-9.209v4.362h-3.83
						v5.672h3.83v7.513c0.008,1.62-0.027,2.942,1.163,4.215c1.04,1.064,2.403,1.015,4.023,1.021h4.022V27.78h5.526v-5.672H76.98
						L76.981,17.746L76.981,17.746z M97.099,21.721c15.446,0.171,12.948,14.135,12.94,14.154h-16.48v4.653h-6.737
						c0.021-0.001-2.765-2.507-2.714-7.465C84.207,21.512,96.612,21.711,97.099,21.721 M101.12,31.221
						c-0.01-0.016,0.386-3.774-4.021-3.78c-4.25-0.021-3.784,3.765-3.782,3.78H101.12"/>
				</g>
				<g>
					<defs>
						<rect id="SVGID_5_" x="8.354" y="5.626" width="111.512" height="104.096"/>
					</defs>
					<clipPath id="SVGID_6_">
						<use xlink:href="#SVGID_5_"  overflow="visible"/>
					</clipPath>
					<g clip-path="url(#SVGID_6_)">
						<g enable-background="new    ">
							<path d="M19.17,46.481h5.37l5.952,9.576l5.952-9.576h5.37v22.645h-4.949V54.343l-6.373,9.672h-0.129l-6.308-9.575v14.687
								H19.17V46.481z"/>
						</g>
					</g>
				</g>
				<g>
					<defs>
						<rect id="SVGID_7_" x="8.354" y="5.626" width="111.512" height="104.096"/>
					</defs>
					<clipPath id="SVGID_8_">
						<use xlink:href="#SVGID_7_"  overflow="visible"/>
					</clipPath>
					<g clip-path="url(#SVGID_8_)">
						<g enable-background="new    ">
							<path d="M55.272,46.32h1.035l10.74,22.806H65.85l-3.073-6.6H48.77l-3.105,6.6h-1.132L55.272,46.32z M62.292,61.524
								l-6.534-13.91l-6.502,13.91H62.292z"/>
						</g>
					</g>
				</g>
				<g>
					<defs>
						<rect id="SVGID_9_" x="8.354" y="5.626" width="111.512" height="104.096"/>
					</defs>
					<clipPath id="SVGID_10_">
						<use xlink:href="#SVGID_9_"  overflow="visible"/>
					</clipPath>
					<g clip-path="url(#SVGID_10_)">
						<g enable-background="new    ">
							<path d="M68.212,65.826l2.944-3.525c2.038,1.682,4.173,2.749,6.761,2.749c2.038,0,3.267-0.809,3.267-2.135v-0.064
								c0-1.262-0.776-1.909-4.561-2.879c-4.561-1.165-7.505-2.427-7.505-6.923v-0.064c0-4.108,3.3-6.826,7.925-6.826
								c3.3,0,6.114,1.035,8.411,2.879l-2.588,3.753c-2.005-1.391-3.979-2.232-5.887-2.232s-2.912,0.874-2.912,1.974v0.064
								c0,1.488,0.971,1.974,4.885,2.977c4.594,1.196,7.182,2.847,7.182,6.793v0.064c0,4.497-3.429,7.02-8.314,7.02
								C74.391,69.449,70.93,68.253,68.212,65.826z"/>
						</g>
					</g>
				</g>
				<g>
					<defs>
						<rect id="SVGID_11_" x="8.354" y="5.626" width="111.512" height="104.096"/>
					</defs>
					<clipPath id="SVGID_12_">
						<use xlink:href="#SVGID_11_"  overflow="visible"/>
					</clipPath>
					<g clip-path="url(#SVGID_12_)">
						<g enable-background="new    ">
							<path d="M92.928,46.481h4.981l-2.394,8.961h9.058l2.394-8.961h4.982l-6.082,22.645h-4.981l2.458-9.09h-9.058l-2.458,9.09
								h-4.982L92.928,46.481z"/>
						</g>
					</g>
				</g>
				<g>
					<defs>
						<rect id="SVGID_13_" x="8.354" y="5.626" width="111.512" height="104.096"/>
					</defs>
					<clipPath id="SVGID_14_">
						<use xlink:href="#SVGID_13_"  overflow="visible"/>
					</clipPath>
					<g clip-path="url(#SVGID_14_)">
						<g enable-background="new    ">
							<path d="M26.126,86.596h8.281v1.132h-8.281V86.596z"/>
						</g>
					</g>
				</g>
				<g>
					<defs>
						<rect id="SVGID_15_" x="8.354" y="5.626" width="111.512" height="104.096"/>
					</defs>
					<clipPath id="SVGID_16_">
						<use xlink:href="#SVGID_15_"  overflow="visible"/>
					</clipPath>
				</g>
				<g>
					<defs>
						<rect id="SVGID_17_" x="8.354" y="5.626" width="111.512" height="104.096"/>
					</defs>
					<clipPath id="SVGID_18_">
						<use xlink:href="#SVGID_17_"  overflow="visible"/>
					</clipPath>
					<g clip-path="url(#SVGID_18_)">
						<g enable-background="new    ">
							<path d="M44.855,87.08V74.141h4.982v12.811c0,3.688,1.844,5.597,4.884,5.597c3.041,0,4.885-1.845,4.885-5.435V74.141h4.982
								v12.778c0,6.857-3.85,10.222-9.931,10.222S44.855,93.744,44.855,87.08z"/>
						</g>
					</g>
				</g>
				<g>
					<defs>
						<rect id="SVGID_19_" x="8.354" y="5.626" width="111.512" height="104.096"/>
					</defs>
					<clipPath id="SVGID_20_">
						<use xlink:href="#SVGID_19_"  overflow="visible"/>
					</clipPath>
					<g clip-path="url(#SVGID_20_)">
						<g enable-background="new    ">
							<path d="M72.709,74.141h7.084c2.847,0,5.014,0.68,6.47,2.104c1.035,1.067,1.618,2.458,1.618,4.205
								c0,5.272-4.497,8.281-11.16,8.281h-5.37l-2.167,8.055h-2.555L72.709,74.141z M76.85,86.466c5.338,0,8.378-2.135,8.378-5.854
								c0-1.101-0.323-1.974-1.035-2.686c-0.938-0.938-2.458-1.423-4.497-1.423h-5.079l-2.652,9.963H76.85z"/>
						</g>
					</g>
				</g>
				<g>
					<defs>
						<rect id="SVGID_21_" x="8.354" y="5.626" width="111.512" height="104.096"/>
					</defs>
					<clipPath id="SVGID_22_">
						<use xlink:href="#SVGID_21_"  overflow="visible"/>
					</clipPath>
				</g>
				<g>
					<defs>
						<rect id="SVGID_23_" x="8.354" y="5.626" width="111.512" height="104.096"/>
					</defs>
					<clipPath id="SVGID_24_">
						<use xlink:href="#SVGID_23_"  overflow="visible"/>
					</clipPath>
					<g clip-path="url(#SVGID_24_)">
						<g enable-background="new    ">
							<path d="M95.419,74.788v-0.647h5.758v0.647l-1.521,14.298h-2.717L95.419,74.788z M95.678,91.609h5.241v5.176h-5.241V91.609z"
								/>
						</g>
					</g>
				</g>
			</g>
		</g>
		<g>
			<path fill="#FFFFFF" d="M18.679,149.795H16.71v-3.316h2.539l0.648-3.835h-2.281v-3.316h2.851l0.647-3.782h3.42l-0.647,3.782
				h3.757l0.648-3.782h3.42l-0.648,3.782h1.97v3.316h-2.54l-0.646,3.835h2.279v3.316h-2.85l-0.674,3.887h-3.42l0.674-3.887h-3.758
				l-0.673,3.887h-3.421L18.679,149.795z M26.427,146.479l0.646-3.835h-3.756l-0.648,3.835H26.427z"/>
			<path d="M35.702,139.793h3.938v1.996c0.959-1.296,2.28-2.254,4.327-2.254c3.239,0,6.321,2.539,6.321,7.176v0.053
				c0,4.637-3.031,7.177-6.321,7.177c-2.099,0-3.394-0.959-4.327-2.073v5.959h-3.938V139.793z M46.351,146.764v-0.053
				c0-2.305-1.555-3.834-3.395-3.834s-3.367,1.529-3.367,3.834v0.053c0,2.306,1.527,3.834,3.367,3.834
				S46.351,149.096,46.351,146.764z"/>
			<path d="M53.087,148.784v-8.991h3.938v7.748c0,1.865,0.881,2.824,2.384,2.824c1.502,0,2.461-0.959,2.461-2.824v-7.748h3.938
				v13.889H61.87v-1.97c-0.906,1.166-2.072,2.229-4.068,2.229C54.823,153.94,53.087,151.971,53.087,148.784z"/>
			<path d="M69.513,134.768h3.938v18.914h-3.938V134.768z"/>
			<path d="M77.156,139.793h3.938v1.996c0.959-1.296,2.279-2.254,4.326-2.254c3.239,0,6.322,2.539,6.322,7.176v0.053
				c0,4.637-3.031,7.177-6.322,7.177c-2.098,0-3.394-0.959-4.326-2.073v5.959h-3.938V139.793z M87.806,146.764v-0.053
				c0-2.305-1.555-3.834-3.395-3.834c-1.84,0-3.368,1.529-3.368,3.834v0.053c0,2.306,1.528,3.834,3.368,3.834
				C86.251,150.598,87.806,149.096,87.806,146.764z"/>
		</g>
		<g>
			<g>
				<g>
					<defs>
						<rect id="SVGID_25_" x="181.354" y="13.79" width="33.131" height="46.856"/>
					</defs>
					<clipPath id="SVGID_26_">
						<use xlink:href="#SVGID_25_"  overflow="visible"/>
					</clipPath>
					<g clip-path="url(#SVGID_26_)">
						<g>
							<defs>
								<rect id="SVGID_27_" x="181.354" y="13.79" width="33.131" height="46.856"/>
							</defs>
							<clipPath id="SVGID_28_">
								<use xlink:href="#SVGID_27_"  overflow="visible"/>
							</clipPath>
							<path clip-path="url(#SVGID_28_)" fill="#FFFFFF" d="M205.143,27.71c2.452,0,4.473-2.021,4.473-4.473
								c0-2.452-2.021-4.473-4.473-4.473s-4.473,2.021-4.473,4.473c0,0.464,0.065,0.895,0.197,1.325l-7.521,5.565
								c-0.729-0.695-1.724-1.093-2.783-1.093c-2.286,0-4.142,1.855-4.142,4.141c0,2.286,1.854,4.142,4.142,4.142
								c1.095,0,2.088-0.431,2.815-1.093l7.488,5.565c-0.133,0.431-0.199,0.861-0.199,1.325c0,2.452,2.021,4.473,4.474,4.473
								s4.474-2.021,4.474-4.473c0-2.451-2.021-4.473-4.474-4.473c-1.159,0-2.22,0.464-3.015,1.193l-7.556-5.633
								c0.101-0.331,0.134-0.662,0.134-1.027c0-0.364-0.066-0.695-0.134-1.026l7.556-5.633
								C202.89,27.246,203.95,27.71,205.143,27.71 M205.143,21.084c1.191,0,2.152,0.96,2.152,2.153c0,1.192-0.961,2.153-2.152,2.153
								s-2.152-0.961-2.152-2.153C202.989,22.044,203.95,21.084,205.143,21.084 M205.143,40.962c1.191,0,2.152,0.961,2.152,2.153
								c0,1.193-0.961,2.154-2.152,2.154s-2.152-0.961-2.152-2.154C202.989,41.923,203.95,40.962,205.143,40.962"/>
						</g>
					</g>
				</g>
				<g>
					<g>
						<g>
							<defs>
								<rect id="SVGID_29_" x="181.354" y="71.21" width="33.131" height="46.856"/>
							</defs>
							<clipPath id="SVGID_30_">
								<use xlink:href="#SVGID_29_"  overflow="visible"/>
							</clipPath>
							<g clip-path="url(#SVGID_30_)">
								<g>
									<defs>
										<rect id="SVGID_31_" x="181.354" y="71.21" width="33.131" height="46.856"/>
									</defs>
									<defs>
										<rect id="SVGID_32_" x="181.354" y="71.21" width="33.131" height="46.856"/>
									</defs>
									<defs>
										<rect id="SVGID_33_" x="181.354" y="71.21" width="33.131" height="46.856"/>
									</defs>
									<clipPath id="SVGID_34_">
										<use xlink:href="#SVGID_31_"  overflow="visible"/>
									</clipPath>
									<clipPath id="SVGID_35_" clip-path="url(#SVGID_34_)">
										<use xlink:href="#SVGID_32_"  overflow="visible"/>
									</clipPath>
									<clipPath id="SVGID_36_" clip-path="url(#SVGID_35_)">
										<use xlink:href="#SVGID_33_"  overflow="visible"/>
									</clipPath>
									<path clip-path="url(#SVGID_36_)" fill="#FFFFFF" d="M185.202,82.287c3.195-0.001,6.146,1.588,7.913,4.175
										c0.425,0.621,1.272,0.78,1.894,0.356c0.621-0.425,0.781-1.273,0.356-1.894v-0.001c-2.271-3.323-6.06-5.362-10.163-5.362
										c-0.752,0-1.363,0.609-1.363,1.362S184.45,82.287,185.202,82.287"/>
									<path clip-path="url(#SVGID_36_)" fill="#FFFFFF" d="M212,98.589c0-0.185-0.037-0.363-0.106-0.528l-0.206-0.308
										l-0.086-0.128l-4.626-4.626c-0.533-0.532-1.396-0.532-1.929,0.001c-0.531,0.532-0.531,1.395,0.002,1.927l0,0l2.294,2.293
										c-2.665-0.032-5.151-1.163-6.912-3.06c-0.513-0.552-1.374-0.584-1.927-0.072c-0.551,0.512-0.584,1.375-0.071,1.926
										c2.271,2.446,5.481,3.902,8.921,3.932l-2.307,2.306c-0.531,0.532-0.531,1.396,0,1.928c0.533,0.532,1.396,0.532,1.929,0
										l4.626-4.626l0.057-0.084l0.236-0.353C211.963,98.951,212,98.773,212,98.589"/>
									<path clip-path="url(#SVGID_36_)" fill="#FFFFFF" d="M211.687,81.569l-0.085-0.128l-4.626-4.626
										c-0.533-0.532-1.396-0.532-1.929,0c-0.531,0.532-0.531,1.396,0.002,1.928v-0.001l2.308,2.309
										c-4.694,0.039-8.963,2.738-10.996,6.976l-2.519,5.243c-1.594,3.324-4.954,5.438-8.641,5.438
										c-0.753,0-1.363,0.61-1.363,1.362c0,0.753,0.61,1.363,1.363,1.363v-0.001c4.734,0,9.049-2.715,11.098-6.983l2.519-5.243
										c1.577-3.288,4.884-5.384,8.522-5.43l-2.291,2.292c-0.533,0.531-0.533,1.395-0.002,1.927c0.533,0.532,1.396,0.532,1.929,0
										l4.626-4.626l0.057-0.084l0.236-0.353c0.068-0.165,0.105-0.343,0.105-0.527c0-0.184-0.037-0.362-0.105-0.527
										L211.687,81.569z"/>
								</g>
							</g>
						</g>
						<g>
							<g>
								<g>
									<defs>
										<rect id="SVGID_37_" x="177.267" y="121.227" width="41.296" height="58.403"/>
									</defs>
									<clipPath id="SVGID_38_">
										<use xlink:href="#SVGID_37_"  overflow="visible"/>
									</clipPath>
									<g clip-path="url(#SVGID_38_)">
										<g>
											<defs>
												<rect id="SVGID_39_" x="177.267" y="121.227" width="41.296" height="58.403"/>
											</defs>
											<clipPath id="SVGID_40_">
												<use xlink:href="#SVGID_39_"  overflow="visible"/>
											</clipPath>
											<path clip-path="url(#SVGID_40_)" fill="#FFFFFF" d="M210.633,155.673l-7.928-7.971c1.113-1.61,1.815-3.593,1.815-5.739
												c0-5.451-4.46-9.911-9.911-9.911c-5.449,0-9.91,4.46-9.91,9.911c0,5.45,4.461,9.91,9.91,9.91
												c2.146,0,4.131-0.701,5.74-1.816l7.971,7.97c0.66,0.661,1.693,0.661,2.354,0
												C211.293,157.365,211.293,156.292,210.633,155.673 M188.004,141.963c0-3.635,2.973-6.607,6.605-6.607
												c3.635,0,6.607,2.973,6.607,6.607c0,3.634-2.973,6.606-6.607,6.606C190.977,148.569,188.004,145.597,188.004,141.963"/>
										</g>
									</g>
								</g>
								<g>
									<path fill="#FFFFFF" d="M16.513,197.362h4.32c1.199,0,2.159,0.33,2.744,0.915c0.436,0.436,0.676,1.005,0.676,1.695v0.029
										c0,1.35-0.871,2.189-1.936,2.49c1.38,0.255,2.505,1.14,2.505,2.564v0.03c0,1.739-1.425,2.774-3.765,2.774h-4.545
										L16.513,197.362L16.513,197.362z M20.938,202.327c1.56,0,2.805-0.765,2.805-2.28v-0.029c0-1.32-1.08-2.19-2.925-2.19
										h-3.795v4.5L20.938,202.327L20.938,202.327z M21.072,207.396c2.024,0,3.226-0.869,3.226-2.295v-0.029
										c0-1.471-1.306-2.28-3.166-2.28h-4.109v4.604H21.072z"/>
									<path fill="#FFFFFF" d="M27.298,196.912h0.494v10.949h-0.494V196.912z"/>
									<path fill="#FFFFFF" d="M30.132,204.111v-0.029c0-2.115,1.605-3.96,3.93-3.96c2.311,0,3.9,1.815,3.9,3.93v0.03
										c0,2.115-1.59,3.96-3.914,3.96C31.737,208.042,30.132,206.227,30.132,204.111z M37.452,204.098v-0.031
										c0-1.904-1.455-3.494-3.42-3.494c-1.995,0-3.375,1.59-3.375,3.494v0.031c0,1.904,1.439,3.494,3.404,3.494
										C36.058,207.592,37.452,206.002,37.452,204.098z"/>
									<path fill="#FFFFFF" d="M39.162,200.303h0.54l2.37,6.93l2.385-6.975h0.39l2.385,6.975l2.385-6.93h0.496l-2.686,7.619
										h-0.404l-2.37-6.9l-2.386,6.9h-0.404L39.162,200.303z"/>
									<path fill="#FFFFFF" d="M56.562,203.332v-5.97h0.51v5.94c0,2.789,1.5,4.26,3.78,4.26c2.265,0,3.735-1.41,3.735-4.23v-5.97
										h0.51v5.925c0,3.135-1.725,4.74-4.26,4.74C58.317,208.027,56.562,206.438,56.562,203.332z"/>
									<path fill="#FFFFFF" d="M67.888,200.303h0.479v2.084c0.524-1.26,1.694-2.265,3.345-2.265c2.04,0,3.734,1.635,3.734,3.944
										v0.031c0,2.295-1.694,3.944-3.734,3.944c-1.665,0-2.835-0.99-3.345-2.235v4.455h-0.479V200.303z M74.937,204.111v-0.029
										c0-1.995-1.395-3.495-3.27-3.495c-1.859,0-3.33,1.53-3.33,3.479v0.031c0,1.949,1.485,3.479,3.33,3.479
										C73.571,207.576,74.937,206.137,74.937,204.111z"/>
									<path fill="#FFFFFF" d="M81.372,204.082v-0.09l2.535-3.105l0.33,0.24l-2.295,2.91l2.295,2.91l-0.33,0.24L81.372,204.082z
										 M84.116,204.082v-0.09l2.551-3.105l0.33,0.24l-2.295,2.91l2.295,2.91l-0.33,0.24L84.116,204.082z"/>
									<path fill="#FFFFFF" d="M93.776,197.362h3.75c2.46,0,3.975,1.185,3.975,3.18v0.03c0,2.1-1.695,3.255-4.095,3.255h-3.12
										v4.034h-0.51V197.362z M97.421,203.348c2.176,0,3.57-1.021,3.57-2.761v-0.03c0-1.725-1.35-2.729-3.51-2.729h-3.195v5.521
										L97.421,203.348L97.421,203.348z"/>
									<path fill="#FFFFFF" d="M103.571,204.727v-4.424h0.48v4.35c0,1.754,0.945,2.939,2.699,2.939
										c1.59,0,2.851-1.305,2.851-3.029v-4.26h0.479v7.559h-0.479v-1.799c-0.345,0.899-1.29,1.979-2.91,1.979
										C104.696,208.042,103.571,206.691,103.571,204.727z"/>
									<path fill="#FFFFFF" d="M112.961,196.912h0.495v10.949h-0.495V196.912z"/>
									<path fill="#FFFFFF" d="M116.336,200.303h0.479v2.084c0.525-1.26,1.695-2.265,3.346-2.265c2.039,0,3.734,1.635,3.734,3.944
										v0.031c0,2.295-1.695,3.944-3.734,3.944c-1.664,0-2.834-0.99-3.346-2.235v4.455h-0.479V200.303z M123.386,204.111v-0.029
										c0-1.995-1.396-3.495-3.271-3.495c-1.859,0-3.33,1.53-3.33,3.479v0.031c0,1.949,1.484,3.479,3.33,3.479
										C122.021,207.576,123.386,206.137,123.386,204.111z"/>
									<path fill="#FFFFFF" d="M130.676,197.362h7.32v0.465h-6.811v4.649h6.148v0.465h-6.148v4.92h-0.512v-10.499H130.676z"/>
									<path fill="#FFFFFF" d="M140.081,197.303h0.646v0.914h-0.646V197.303z M140.156,200.303h0.494v7.559h-0.494V200.303z"/>
									<path fill="#FFFFFF" d="M143.006,204.098v-0.031c0-2.129,1.68-3.944,3.869-3.944c1.396,0,2.279,0.63,3.016,1.396
										l-0.346,0.344c-0.659-0.704-1.484-1.289-2.686-1.289c-1.904,0-3.345,1.574-3.345,3.479v0.03c0,1.904,1.485,3.51,3.375,3.51
										c1.2,0,2.055-0.615,2.715-1.35l0.345,0.3c-0.734,0.854-1.68,1.5-3.09,1.5C144.686,208.042,143.006,206.242,143.006,204.098
										z"/>
									<path fill="#FFFFFF" d="M152.411,205.927v-5.188h-1.156v-0.436h1.156v-2.535h0.479v2.535h2.743v0.436h-2.743v5.145
										c0,1.11,0.585,1.665,1.573,1.665c0.375,0,0.75-0.09,1.142-0.27v0.465c-0.375,0.18-0.767,0.254-1.187,0.254
										C153.206,207.996,152.411,207.292,152.411,205.927z"/>
									<path fill="#FFFFFF" d="M157.78,197.303h0.645v0.914h-0.645V197.303z M157.855,200.303h0.494v7.559h-0.494V200.303z"/>
									<path fill="#FFFFFF" d="M160.689,204.111v-0.029c0-2.115,1.604-3.96,3.931-3.96c2.311,0,3.899,1.815,3.899,3.93v0.03
										c0,2.115-1.59,3.96-3.915,3.96C162.295,208.042,160.689,206.227,160.689,204.111z M168.01,204.098v-0.031
										c0-1.904-1.455-3.494-3.42-3.494c-1.995,0-3.375,1.59-3.375,3.494v0.031c0,1.904,1.439,3.494,3.404,3.494
										C166.614,207.592,168.01,206.002,168.01,204.098z"/>
									<path fill="#FFFFFF" d="M170.77,200.303h0.48v1.799c0.345-0.899,1.289-1.979,2.91-1.979c1.993,0,3.118,1.351,3.118,3.315
										v4.424h-0.479v-4.35c0-1.755-0.944-2.938-2.699-2.938c-1.59,0-2.85,1.305-2.85,3.029v4.26h-0.48V200.303z"/>
									<path fill="#FFFFFF" d="M15.823,222.082v-0.03c0-2.22,1.529-3.93,3.614-3.93c2.28,0,3.465,1.95,3.465,3.976
										c0,0.074,0,0.104,0,0.164h-6.555c0.09,2.055,1.545,3.33,3.239,3.33c1.17,0,2.115-0.615,2.715-1.395l0.36,0.285
										c-0.69,0.899-1.71,1.56-3.09,1.56C17.532,226.042,15.823,224.497,15.823,222.082z M22.378,221.827
										c-0.076-1.649-1.08-3.255-2.971-3.255c-1.709,0-2.97,1.395-3.06,3.255H22.378z"/>
									<path fill="#FFFFFF" d="M25.093,218.303h0.48v1.799c0.344-0.899,1.289-1.979,2.909-1.979c1.995,0,3.12,1.351,3.12,3.315
										v4.424h-0.48v-4.35c0-1.755-0.944-2.938-2.699-2.938c-1.59,0-2.85,1.305-2.85,3.029v4.26h-0.48V218.303z"/>
									<path fill="#FFFFFF" d="M38.007,224.361l0.375-0.359c0.811,0.9,1.995,1.574,3.27,1.574c1.815,0,3.09-1.199,3.09-2.834
										v-0.03c0-1.59-1.319-2.685-3.09-2.685c-0.885,0-1.754,0.225-2.609,0.689l-0.359-0.21l0.299-5.145h5.715v0.479h-5.25
										l-0.27,4.305c0.78-0.375,1.575-0.569,2.535-0.569c2.01,0,3.539,1.26,3.539,3.12v0.029c0,1.936-1.499,3.315-3.629,3.315
										C40.196,226.042,38.817,225.277,38.007,224.361z"/>
									<path fill="#FFFFFF" d="M51.837,218.303h0.48v1.694c0.33-0.885,1.229-1.875,2.579-1.875c1.515,0,2.341,0.915,2.67,1.995
										c0.375-0.99,1.335-1.995,2.715-1.995c1.726,0,2.865,1.17,2.865,3.226v4.514h-0.479v-4.469c0-1.83-0.961-2.82-2.416-2.82
										c-1.289,0-2.52,1.17-2.52,2.88v4.409h-0.48v-4.484c0-1.8-0.975-2.805-2.399-2.805c-1.319,0-2.534,1.26-2.534,2.895v4.396
										h-0.48L51.837,218.303L51.837,218.303z"/>
									<path fill="#FFFFFF" d="M65.862,215.303h0.645v0.914h-0.645V215.303z M65.937,218.303h0.495v7.559h-0.495V218.303z"/>
									<path fill="#FFFFFF" d="M69.312,218.303h0.48v1.799c0.344-0.899,1.289-1.979,2.909-1.979c1.995,0,3.12,1.351,3.12,3.315
										v4.424h-0.48v-4.35c0-1.755-0.944-2.938-2.699-2.938c-1.59,0-2.85,1.305-2.85,3.029v4.26h-0.48V218.303z"/>
									<path fill="#FFFFFF" d="M78.312,222.727v-4.424h0.48v4.35c0,1.754,0.944,2.939,2.699,2.939c1.59,0,2.85-1.305,2.85-3.029
										v-4.26h0.48v7.559h-0.48v-1.799c-0.345,0.899-1.289,1.979-2.91,1.979C79.437,226.042,78.312,224.691,78.312,222.727z"/>
									<path fill="#FFFFFF" d="M88.017,223.927v-5.188h-1.155v-0.436h1.155v-2.535h0.479v2.535h2.745v0.436h-2.745v5.145
										c0,1.11,0.585,1.665,1.575,1.665c0.375,0,0.75-0.09,1.14-0.27v0.465c-0.375,0.18-0.765,0.254-1.185,0.254
										C88.812,225.996,88.017,225.292,88.017,223.927z"/>
									<path fill="#FFFFFF" d="M92.621,222.082v-0.03c0-2.22,1.53-3.93,3.614-3.93c2.28,0,3.465,1.95,3.465,3.976
										c0,0.074,0,0.104,0,0.164h-6.555c0.09,2.055,1.545,3.33,3.24,3.33c1.17,0,2.115-0.615,2.715-1.395l0.359,0.285
										c-0.689,0.899-1.709,1.56-3.09,1.56C94.331,226.042,92.621,224.497,92.621,222.082z M99.176,221.827
										c-0.075-1.649-1.08-3.255-2.97-3.255c-1.71,0-2.971,1.395-3.061,3.255H99.176z"/>
									<path fill="#FFFFFF" d="M101.187,224.887l0.285-0.375c0.84,0.66,1.844,1.035,2.819,1.035c1.215,0,2.159-0.645,2.159-1.575
										v-0.03c0-1.064-1.139-1.395-2.295-1.709c-1.409-0.405-2.624-0.795-2.624-2.055v-0.031c0-1.125,1.034-1.979,2.579-1.979
										c0.871,0,1.86,0.3,2.655,0.841l-0.27,0.404c-0.72-0.51-1.604-0.795-2.4-0.795c-1.245,0-2.069,0.645-2.069,1.484v0.03
										c0,0.945,1.064,1.29,2.295,1.636c1.379,0.375,2.625,0.81,2.625,2.129v0.03c0,1.245-1.17,2.069-2.686,2.069
										C103.181,225.996,102.011,225.576,101.187,224.887z"/>
									<path fill="#FFFFFF" d="M113.126,224.947l2.294-2.91l-2.294-2.91l0.33-0.24l2.55,3.105v0.09l-2.55,3.105L113.126,224.947z
										 M115.886,224.947l2.295-2.91l-2.295-2.91l0.329-0.24l2.535,3.105v0.09l-2.535,3.105L115.886,224.947z"/>
									<path fill="#FFFFFF" d="M124.78,220.627v-0.029c0-2.865,1.62-5.416,4.32-5.416c2.715,0,4.318,2.521,4.318,5.416v0.029
										c0,2.865-1.619,5.415-4.318,5.415C126.386,226.042,124.78,223.521,124.78,220.627z M132.896,220.643v-0.031
										c0-2.579-1.426-4.964-3.812-4.964c-2.385,0-3.778,2.34-3.778,4.935v0.029c0,2.58,1.425,4.965,3.81,4.965
										S132.896,223.223,132.896,220.643z"/>
									<path fill="#FFFFFF" d="M135.265,224.361l0.375-0.359c0.812,0.9,1.995,1.574,3.271,1.574c1.814,0,3.09-1.199,3.09-2.834
										v-0.03c0-1.59-1.319-2.685-3.09-2.685c-0.886,0-1.756,0.225-2.609,0.689l-0.36-0.21l0.3-5.145h5.715v0.479h-5.248
										l-0.271,4.305c0.779-0.375,1.575-0.569,2.535-0.569c2.01,0,3.54,1.26,3.54,3.12v0.029c0,1.936-1.5,3.315-3.63,3.315
										C137.456,226.042,136.075,225.277,135.265,224.361z"/>
									<path fill="#FFFFFF" d="M144.491,218.303h0.719v0.975h-0.719V218.303z M144.491,224.887h0.719v0.975h-0.719V224.887z"/>
									<path fill="#FFFFFF" d="M147.34,220.627v-0.029c0-2.865,1.619-5.416,4.32-5.416c2.715,0,4.318,2.521,4.318,5.416v0.029
										c0,2.865-1.62,5.415-4.318,5.415C148.945,226.042,147.34,223.521,147.34,220.627z M155.454,220.643v-0.031
										c0-2.579-1.425-4.964-3.81-4.964c-2.386,0-3.779,2.34-3.779,4.935v0.029c0,2.58,1.425,4.965,3.81,4.965
										C154.06,225.577,155.454,223.223,155.454,220.643z"/>
									<path fill="#FFFFFF" d="M159.279,224.977c-0.84-0.824-1.274-2.024-1.274-4.049v-0.031c0-3.239,1.574-5.715,4.186-5.715
										c1.141,0,2.1,0.451,2.971,1.215l-0.33,0.391c-0.781-0.72-1.666-1.14-2.686-1.14c-2.25,0-3.615,2.235-3.63,5.249v0.031
										c0,0.254,0,0.646,0.015,0.959c0.33-1.32,1.62-2.475,3.375-2.475c2.024,0,3.645,1.335,3.645,3.21v0.03
										c0,1.859-1.574,3.39-3.629,3.39C160.81,226.042,159.895,225.607,159.279,224.977z M165.024,222.667v-0.03
										c0-1.59-1.335-2.775-3.135-2.775c-1.74,0-3.105,1.336-3.105,2.791v0.029c0,1.59,1.396,2.895,3.166,2.895
										C163.734,225.576,165.024,224.212,165.024,222.667z"/>
								</g>
								<g>
									<path fill="#FFFFFF" d="M21.972,252.33h1.141l1.949,10.574h-1.215l-0.479-2.774h-5.729l-1.98,2.774h-1.305L21.972,252.33z
										 M23.173,259.064l-0.945-5.385l-3.84,5.385H23.173z"/>
									<path fill="#FFFFFF" d="M28.692,255.15h1.154l-0.524,2.024c0.944-1.35,2.145-2.249,3.689-2.159l-0.329,1.244h-0.076
										c-1.694,0-3.389,1.245-4.004,3.585l-0.825,3.06h-1.155L28.692,255.15z"/>
									<path fill="#FFFFFF" d="M33.538,261.51c0-0.27,0.045-0.57,0.104-0.811l1.215-4.529h-1.065l0.271-1.02h1.08l0.63-2.34h1.14
										l-0.63,2.34h2.445l-0.271,1.02h-2.444l-1.2,4.47c-0.03,0.181-0.06,0.405-0.06,0.57c0,0.54,0.404,0.795,1.064,0.795
										c0.345,0,0.705-0.075,1.125-0.24l-0.285,1.05c-0.404,0.166-0.779,0.225-1.23,0.225
										C34.317,263.039,33.538,262.515,33.538,261.51z"/>
									<path fill="#FFFFFF" d="M40.138,259.74c0,1.41,0.899,2.34,2.34,2.34c1.004,0,1.68-0.346,2.385-0.915l0.6,0.765
										c-0.766,0.645-1.68,1.155-3.045,1.155c-2.055,0-3.435-1.335-3.435-3.3c0-2.37,1.92-4.801,4.515-4.801
										c1.965,0,3,1.351,3,2.971c0,0.525-0.105,1.035-0.285,1.515h-6.06C40.138,259.561,40.138,259.65,40.138,259.74z
										 M45.312,258.54c0.03-0.149,0.061-0.33,0.061-0.585c0-1.064-0.6-1.995-1.936-1.995c-1.529,0-2.685,1.155-3.119,2.58H45.312
										z"/>
									<path fill="#FFFFFF" d="M54.972,252.405h1.185l-2.819,10.499h-1.186L54.972,252.405z"/>
									<path fill="#FFFFFF" d="M58.286,255.15h1.155l-0.33,1.26c0.705-0.795,1.515-1.426,2.7-1.426c1.5,0,2.475,0.931,2.475,2.4
										c0,0.36-0.09,0.795-0.195,1.2l-1.14,4.319h-1.155l1.17-4.395c0.075-0.255,0.12-0.615,0.12-0.869
										c0-1.021-0.659-1.621-1.739-1.621c-1.2,0-2.4,1.035-2.805,2.506l-1.17,4.379h-1.156L58.286,255.15z"/>
									<path fill="#FFFFFF" d="M67.661,256.17h-1.064l0.27-1.02h1.064l0.256-0.93c0.404-1.561,1.319-2.295,2.654-2.295
										c0.6,0,1.141,0.119,1.545,0.33l-0.27,0.989c-0.45-0.21-0.825-0.315-1.275-0.315c-0.734,0-1.289,0.451-1.56,1.471
										l-0.195,0.75h2.535l-0.285,1.02h-2.521l-1.814,6.734h-1.154L67.661,256.17z"/>
									<path fill="#FFFFFF" d="M71.366,259.605c0-2.416,2.085-4.621,4.561-4.621c2.129,0,3.539,1.455,3.539,3.466
										c0,2.475-2.145,4.635-4.574,4.635C72.761,263.085,71.366,261.615,71.366,259.605z M78.281,258.495
										c0-1.575-0.99-2.49-2.431-2.49c-1.784,0-3.314,1.771-3.314,3.569c0,1.576,0.99,2.476,2.43,2.476
										C76.706,262.05,78.281,260.34,78.281,258.495z"/>
									<path fill="#FFFFFF" d="M85.376,259.125l0.03-0.12l3.329-3.239l0.75,0.629l-2.819,2.805l1.229,2.656l-0.944,0.465
										L85.376,259.125z M88.706,259.125l0.029-0.12l3.33-3.239l0.75,0.629l-2.819,2.805l1.229,2.656l-0.945,0.465L88.706,259.125
										z"/>
									<path fill="#FFFFFF" d="M100.721,252.405h3.78c1.319,0,2.31,0.33,2.954,0.96c0.45,0.465,0.69,1.095,0.69,1.814
										c0,0.916-0.346,1.68-0.93,2.28c-0.66,0.66-1.711,1.08-2.91,1.245l2.16,4.199H105.1l-2.07-4.08h-2.85l-1.096,4.08H97.9
										L100.721,252.405z M103.315,257.76c1.38,0,2.4-0.375,2.984-0.96c0.405-0.42,0.631-0.915,0.631-1.53
										c0-0.449-0.15-0.854-0.436-1.139c-0.404-0.406-1.064-0.631-2.055-0.631h-2.82l-1.154,4.26H103.315z"/>
									<path fill="#FFFFFF" d="M110.081,259.74c0,1.41,0.899,2.34,2.34,2.34c1.004,0,1.68-0.346,2.385-0.915l0.6,0.765
										c-0.766,0.645-1.68,1.155-3.045,1.155c-2.055,0-3.435-1.335-3.435-3.3c0-2.37,1.92-4.801,4.515-4.801
										c1.965,0,3,1.351,3,2.971c0,0.525-0.104,1.035-0.285,1.515h-6.06C110.081,259.561,110.081,259.65,110.081,259.74z
										 M115.254,258.54c0.031-0.149,0.062-0.33,0.062-0.585c0-1.064-0.601-1.995-1.936-1.995c-1.529,0-2.685,1.155-3.119,2.58
										H115.254z"/>
									<path fill="#FFFFFF" d="M119.366,255.15h1.154l-0.33,1.26c0.705-0.795,1.516-1.426,2.7-1.426c1.5,0,2.475,0.931,2.475,2.4
										c0,0.36-0.09,0.795-0.194,1.2l-1.141,4.319h-1.154l1.17-4.395c0.076-0.255,0.121-0.615,0.121-0.869
										c0-1.021-0.66-1.621-1.74-1.621c-1.2,0-2.399,1.035-2.805,2.506l-1.17,4.379h-1.156L119.366,255.15z"/>
									<path fill="#FFFFFF" d="M126.956,259.695c0-2.535,2.101-4.711,4.56-4.711c1.62,0,2.596,0.855,3.091,1.815l-0.932,0.585
										c-0.449-0.75-1.063-1.38-2.233-1.38c-1.755,0-3.3,1.726-3.3,3.66c0,1.53,1.095,2.399,2.311,2.399
										c0.914,0,1.619-0.404,2.295-1.02l0.674,0.75c-0.795,0.75-1.739,1.29-3.028,1.29
										C128.575,263.085,126.956,261.824,126.956,259.695z"/>
									<path fill="#FFFFFF" d="M135.236,259.605c0-2.416,2.085-4.621,4.56-4.621c2.131,0,3.541,1.455,3.541,3.466
										c0,2.475-2.146,4.635-4.575,4.635C136.631,263.085,135.236,261.615,135.236,259.605z M142.15,258.495
										c0-1.575-0.989-2.49-2.43-2.49c-1.785,0-3.314,1.771-3.314,3.569c0,1.576,0.989,2.476,2.431,2.476
										C140.577,262.05,142.15,260.34,142.15,258.495z"/>
									<path fill="#FFFFFF" d="M146.396,255.15h1.153l-0.329,1.26c0.704-0.795,1.516-1.426,2.7-1.426c1.5,0,2.475,0.931,2.475,2.4
										c0,0.36-0.09,0.795-0.193,1.2l-1.142,4.319h-1.154l1.171-4.395c0.074-0.255,0.119-0.615,0.119-0.869
										c0-1.021-0.66-1.621-1.74-1.621c-1.199,0-2.398,1.035-2.805,2.506l-1.17,4.379h-1.154L146.396,255.15z"/>
									<path fill="#FFFFFF" d="M154.405,261.51c0-0.27,0.045-0.57,0.105-0.811l1.215-4.529h-1.064l0.271-1.02h1.08l0.63-2.34h1.14
										l-0.63,2.34h2.445l-0.271,1.02h-2.443l-1.2,4.47c-0.03,0.181-0.062,0.405-0.062,0.57c0,0.54,0.405,0.795,1.065,0.795
										c0.345,0,0.705-0.075,1.125-0.24l-0.285,1.05c-0.405,0.166-0.78,0.225-1.229,0.225
										C155.186,263.039,154.405,262.515,154.405,261.51z"/>
									<path fill="#FFFFFF" d="M161.605,255.15h1.153l-0.523,2.024c0.944-1.35,2.145-2.249,3.689-2.159l-0.33,1.244h-0.074
										c-1.695,0-3.391,1.245-4.005,3.585l-0.825,3.06h-1.154L161.605,255.15z"/>
									<path fill="#FFFFFF" d="M167.11,259.74c0,1.41,0.898,2.34,2.34,2.34c1.006,0,1.68-0.346,2.385-0.915l0.601,0.765
										c-0.765,0.645-1.681,1.155-3.044,1.155c-2.057,0-3.436-1.335-3.436-3.3c0-2.37,1.92-4.801,4.515-4.801
										c1.965,0,3,1.351,3,2.971c0,0.525-0.104,1.035-0.285,1.515h-6.06C167.11,259.561,167.11,259.65,167.11,259.74z
										 M172.286,258.54c0.029-0.149,0.06-0.33,0.06-0.585c0-1.064-0.601-1.995-1.935-1.995c-1.531,0-2.686,1.155-3.121,2.58
										H172.286z"/>
									<path fill="#FFFFFF" d="M178.854,260.925c0-1.739,1.455-2.805,3.449-2.805c1.035,0,2.011,0.21,2.744,0.42l0.062-0.194
										c0.045-0.211,0.091-0.496,0.091-0.705c0-0.99-0.691-1.561-2.086-1.561c-0.824,0-1.5,0.15-2.189,0.404l-0.211-0.975
										c0.781-0.3,1.576-0.479,2.58-0.479c1.951,0,3.045,0.915,3.045,2.415c0,0.314-0.06,0.705-0.148,1.064l-1.17,4.395h-1.141
										l0.314-1.215c-0.705,0.825-1.665,1.381-2.896,1.381C179.995,263.07,178.854,262.305,178.854,260.925z M184.704,259.859
										l0.15-0.539c-0.676-0.18-1.545-0.346-2.505-0.346c-1.365,0-2.312,0.75-2.312,1.815c0,0.825,0.631,1.364,1.635,1.364
										C182.979,262.154,184.329,261.225,184.704,259.859z"/>
									<path fill="#FFFFFF" d="M188.081,255.15h1.215l0.869,6.435l4.289-6.435h1.307l-5.415,7.814h-1.021L188.081,255.15z"/>
									<path fill="#FFFFFF" d="M196.825,259.74c0,1.41,0.898,2.34,2.34,2.34c1.004,0,1.68-0.346,2.385-0.915l0.601,0.765
										c-0.767,0.645-1.681,1.155-3.045,1.155c-2.056,0-3.437-1.335-3.437-3.3c0-2.37,1.92-4.801,4.516-4.801
										c1.966,0,3,1.351,3,2.971c0,0.525-0.104,1.035-0.285,1.515h-6.061C196.825,259.561,196.825,259.65,196.825,259.74z
										 M201.999,258.54c0.03-0.149,0.061-0.33,0.061-0.585c0-1.064-0.6-1.995-1.936-1.995c-1.529,0-2.685,1.155-3.119,2.58
										H201.999z"/>
									<path fill="#FFFFFF" d="M204.504,259.695c0-2.535,2.101-4.711,4.56-4.711c1.62,0,2.597,0.855,3.091,1.815l-0.931,0.585
										c-0.45-0.75-1.063-1.38-2.233-1.38c-1.756,0-3.301,1.726-3.301,3.66c0,1.53,1.096,2.399,2.311,2.399
										c0.914,0,1.619-0.404,2.295-1.02l0.675,0.75c-0.796,0.75-1.74,1.29-3.029,1.29
										C206.124,263.085,204.504,261.824,204.504,259.695z"/>
									<path fill="#FFFFFF" d="M15.133,279.061l0.899-0.705c0.885,1.08,1.92,1.635,3.465,1.635c1.516,0,2.655-0.825,2.655-1.965
										c0-0.811-0.54-1.291-2.16-1.92c-1.935-0.766-2.88-1.44-2.88-2.805c0-1.74,1.605-3.045,3.87-3.045
										c1.635,0,2.925,0.659,3.72,1.59l-0.87,0.779c-0.765-0.84-1.725-1.305-2.954-1.305c-1.576,0-2.521,0.885-2.521,1.845
										c0,0.854,0.675,1.29,2.325,1.935c1.8,0.69,2.715,1.426,2.715,2.775c0,1.845-1.74,3.18-3.975,3.18
										C17.487,281.055,16.032,280.305,15.133,279.061z"/>
									<path fill="#FFFFFF" d="M25.573,279.51c0-0.27,0.045-0.57,0.104-0.811l1.215-4.529h-1.065l0.271-1.02h1.08l0.63-2.34h1.14
										l-0.63,2.34h2.445l-0.271,1.02h-2.444l-1.2,4.47c-0.03,0.181-0.06,0.405-0.06,0.57c0,0.54,0.404,0.795,1.064,0.795
										c0.345,0,0.705-0.075,1.125-0.24l-0.285,1.05c-0.404,0.166-0.779,0.225-1.23,0.225
										C26.353,281.039,25.573,280.515,25.573,279.51z"/>
									<path fill="#FFFFFF" d="M32.322,277.74c0,1.41,0.899,2.34,2.34,2.34c1.005,0,1.68-0.346,2.385-0.915l0.601,0.765
										c-0.766,0.645-1.681,1.155-3.045,1.155c-2.055,0-3.436-1.335-3.436-3.3c0-2.37,1.92-4.801,4.516-4.801
										c1.965,0,3,1.351,3,2.971c0,0.525-0.105,1.035-0.285,1.515h-6.061C32.322,277.561,32.322,277.65,32.322,277.74z
										 M37.497,276.54c0.029-0.149,0.061-0.33,0.061-0.585c0-1.064-0.601-1.995-1.936-1.995c-1.529,0-2.686,1.155-3.12,2.58
										H37.497z M37.002,269.805l1.2,0.556l-2.13,1.62h-1.08L37.002,269.805z"/>
									<path fill="#FFFFFF" d="M41.606,273.15h1.156l-0.36,1.334c0.749-0.84,1.694-1.5,2.939-1.5c1.755,0,3.075,1.306,3.075,3.285
										c0,2.745-2.085,4.815-4.35,4.815c-1.59,0-2.475-0.899-2.91-1.92l-1.109,4.14h-1.156L41.606,273.15z M47.202,276.375
										c0-1.439-0.885-2.37-2.189-2.37c-1.726,0-3.451,1.755-3.451,3.646c0,1.35,0.976,2.414,2.4,2.414
										C45.808,280.064,47.202,278.355,47.202,276.375z"/>
									<path fill="#FFFFFF" d="M52.362,269.955h1.154l-1.199,4.455c0.705-0.795,1.516-1.426,2.699-1.426
										c1.5,0,2.476,0.931,2.476,2.4c0,0.36-0.09,0.795-0.194,1.2l-1.141,4.319h-1.154l1.17-4.395
										c0.074-0.255,0.119-0.615,0.119-0.869c0-1.021-0.66-1.621-1.74-1.621c-1.199,0-2.399,1.035-2.805,2.506l-1.17,4.379h-1.154
										L52.362,269.955z"/>
									<path fill="#FFFFFF" d="M58.647,278.925c0-1.739,1.455-2.805,3.449-2.805c1.035,0,2.01,0.21,2.745,0.42l0.06-0.194
										c0.046-0.211,0.091-0.496,0.091-0.705c0-0.99-0.69-1.561-2.085-1.561c-0.825,0-1.5,0.15-2.189,0.404l-0.211-0.975
										c0.78-0.3,1.575-0.479,2.58-0.479c1.95,0,3.045,0.915,3.045,2.415c0,0.314-0.061,0.705-0.15,1.064l-1.17,4.395h-1.14
										l0.315-1.215c-0.705,0.825-1.665,1.381-2.895,1.381C59.787,281.07,58.647,280.305,58.647,278.925z M64.497,277.859
										l0.15-0.539c-0.676-0.18-1.545-0.346-2.506-0.346c-1.364,0-2.31,0.75-2.31,1.815c0,0.825,0.63,1.364,1.636,1.364
										C62.772,280.154,64.122,279.225,64.497,277.859z"/>
									<path fill="#FFFFFF" d="M69.327,273.15h1.154l-0.33,1.26c0.705-0.795,1.516-1.426,2.7-1.426c1.5,0,2.476,0.931,2.476,2.4
										c0,0.36-0.09,0.795-0.195,1.2l-1.141,4.319h-1.154l1.17-4.395c0.074-0.255,0.119-0.615,0.119-0.869
										c0-1.021-0.659-1.621-1.739-1.621c-1.2,0-2.399,1.035-2.805,2.506l-1.17,4.379h-1.155L69.327,273.15z"/>
									<path fill="#FFFFFF" d="M78.071,277.74c0,1.41,0.9,2.34,2.34,2.34c1.006,0,1.68-0.346,2.385-0.915l0.601,0.765
										c-0.765,0.645-1.68,1.155-3.045,1.155c-2.055,0-3.435-1.335-3.435-3.3c0-2.37,1.92-4.801,4.515-4.801
										c1.965,0,3,1.351,3,2.971c0,0.525-0.104,1.035-0.285,1.515h-6.06C78.071,277.561,78.071,277.65,78.071,277.74z
										 M83.247,276.54c0.029-0.149,0.06-0.33,0.06-0.585c0-1.064-0.601-1.995-1.935-1.995c-1.53,0-2.686,1.155-3.121,2.58H83.247
										z"/>
									<path fill="#FFFFFF" d="M92.802,270.405h3.93c2.055,0,3.254,0.96,3.254,2.444c0,1.5-1.14,2.461-2.625,2.76
										c1.035,0.315,1.86,0.99,1.86,2.176c0,1.814-1.649,3.119-4.409,3.119h-4.83L92.802,270.405z M94.946,279.84
										c1.89,0,3.074-0.795,3.074-2.1c0-1.065-1.004-1.605-2.414-1.605h-3.18l-0.99,3.705H94.946z M95.696,275.085
										c1.875,0,3.074-0.825,3.074-2.085c0-0.99-0.779-1.529-2.145-1.529H93.67l-0.96,3.614H95.696L95.696,275.085z"/>
									<path fill="#FFFFFF" d="M103.587,269.955h1.154l-2.939,10.949h-1.155L103.587,269.955z"/>
									<path fill="#FFFFFF" d="M104.531,278.925c0-1.739,1.454-2.805,3.45-2.805c1.035,0,2.01,0.21,2.744,0.42l0.061-0.194
										c0.045-0.211,0.09-0.496,0.09-0.705c0-0.99-0.689-1.561-2.085-1.561c-0.825,0-1.5,0.15-2.19,0.404l-0.209-0.975
										c0.779-0.3,1.574-0.479,2.579-0.479c1.95,0,3.045,0.915,3.045,2.415c0,0.314-0.06,0.705-0.149,1.064l-1.17,4.395h-1.141
										l0.315-1.215c-0.705,0.825-1.665,1.381-2.896,1.381C105.671,281.07,104.531,280.305,104.531,278.925z M110.381,277.859
										l0.149-0.539c-0.674-0.18-1.545-0.346-2.504-0.346c-1.365,0-2.311,0.75-2.311,1.815c0,0.825,0.631,1.364,1.635,1.364
										C108.655,280.154,110.006,279.225,110.381,277.859z"/>
									<path fill="#FFFFFF" d="M115.211,273.15h1.154l-0.33,1.26c0.705-0.795,1.516-1.426,2.7-1.426c1.5,0,2.476,0.931,2.476,2.4
										c0,0.36-0.09,0.795-0.195,1.2l-1.141,4.319h-1.154l1.17-4.395c0.074-0.255,0.12-0.615,0.12-0.869
										c0-1.021-0.66-1.621-1.739-1.621c-1.2,0-2.4,1.035-2.807,2.506l-1.169,4.379h-1.154L115.211,273.15z"/>
									<path fill="#FFFFFF" d="M128.846,279.57c-0.75,0.84-1.695,1.515-2.939,1.515c-1.755,0-3.074-1.32-3.074-3.285
										c0-2.745,2.084-4.815,4.35-4.815c1.59,0,2.49,0.886,2.91,1.906l0.465-1.74h1.154l-2.864,10.754h-1.155L128.846,279.57z
										 M129.686,276.404c0-1.35-0.975-2.399-2.398-2.399c-1.847,0-3.24,1.71-3.24,3.69c0,1.439,0.899,2.369,2.189,2.369
										C127.961,280.064,129.686,278.295,129.686,276.404z"/>
									<path fill="#FFFFFF" d="M132.836,278.67c0-0.359,0.09-0.795,0.194-1.2l1.14-4.319h1.154l-1.185,4.395
										c-0.06,0.255-0.104,0.615-0.104,0.87c0,1.021,0.659,1.62,1.726,1.62c1.2,0,2.415-1.035,2.805-2.52l1.17-4.365h1.155
										l-2.07,7.754h-1.154l0.346-1.26c-0.705,0.795-1.53,1.426-2.715,1.426C133.811,281.07,132.836,280.14,132.836,278.67z"/>
									<path fill="#FFFFFF" d="M143.036,277.74c0,1.41,0.899,2.34,2.34,2.34c1.006,0,1.681-0.346,2.386-0.915l0.6,0.765
										c-0.765,0.645-1.68,1.155-3.044,1.155c-2.056,0-3.436-1.335-3.436-3.3c0-2.37,1.92-4.801,4.515-4.801
										c1.965,0,3,1.351,3,2.971c0,0.525-0.104,1.035-0.285,1.515h-6.06C143.036,277.561,143.036,277.65,143.036,277.74z
										 M148.211,276.54c0.029-0.149,0.06-0.33,0.06-0.585c0-1.064-0.601-1.995-1.935-1.995c-1.53,0-2.686,1.155-3.121,2.58
										H148.211z"/>
									<path fill="#FFFFFF" d="M151.136,279.51c0-0.27,0.045-0.57,0.104-0.811l1.215-4.529h-1.064l0.271-1.02h1.08l0.629-2.34
										h1.141l-0.631,2.34h2.445l-0.271,1.02h-2.444l-1.199,4.47c-0.031,0.181-0.062,0.405-0.062,0.57
										c0,0.54,0.405,0.795,1.065,0.795c0.345,0,0.705-0.075,1.125-0.24l-0.285,1.05c-0.405,0.166-0.78,0.225-1.229,0.225
										C151.917,281.039,151.136,280.515,151.136,279.51z"/>
									<path fill="#FFFFFF" d="M155.336,282.21c0.869-0.226,1.289-0.66,1.41-1.306h-0.557l0.436-1.574h1.365l-0.359,1.35
										c-0.36,1.305-0.977,1.814-2.176,2.04L155.336,282.21z"/>
									<path fill="#FFFFFF" d="M164.62,278.925c0-1.739,1.455-2.805,3.449-2.805c1.035,0,2.012,0.21,2.745,0.42l0.062-0.194
										c0.045-0.211,0.09-0.496,0.09-0.705c0-0.99-0.69-1.561-2.086-1.561c-0.824,0-1.5,0.15-2.189,0.404l-0.21-0.975
										c0.78-0.3,1.575-0.479,2.58-0.479c1.95,0,3.045,0.915,3.045,2.415c0,0.314-0.06,0.705-0.149,1.064l-1.17,4.395h-1.141
										l0.314-1.215c-0.705,0.825-1.664,1.381-2.896,1.381C165.76,281.07,164.62,280.305,164.62,278.925z M170.47,277.859
										l0.149-0.539c-0.676-0.18-1.545-0.346-2.505-0.346c-1.364,0-2.311,0.75-2.311,1.815c0,0.825,0.63,1.364,1.635,1.364
										C168.745,280.154,170.095,279.225,170.47,277.859z"/>
									<path fill="#FFFFFF" d="M175.299,273.15h1.154l-0.523,2.024c0.943-1.35,2.145-2.249,3.689-2.159l-0.33,1.244h-0.076
										c-1.693,0-3.389,1.245-4.004,3.585l-0.824,3.06h-1.155L175.299,273.15z"/>
									<path fill="#FFFFFF" d="M180.145,279.51c0-0.27,0.045-0.57,0.105-0.811l1.215-4.529H180.4l0.271-1.02h1.08l0.631-2.34h1.14
										l-0.63,2.34h2.445l-0.271,1.02h-2.443l-1.201,4.47c-0.029,0.181-0.061,0.405-0.061,0.57c0,0.54,0.405,0.795,1.064,0.795
										c0.346,0,0.705-0.075,1.125-0.24l-0.284,1.05c-0.405,0.166-0.78,0.225-1.229,0.225
										C180.924,281.039,180.145,280.515,180.145,279.51z"/>
									<path fill="#FFFFFF" d="M187.465,273.15h1.154l-2.086,7.754h-1.154L187.465,273.15z M188.185,270.18h1.319l-0.346,1.275
										h-1.318L188.185,270.18z"/>
									<path fill="#FFFFFF" d="M188.89,279.72l0.75-0.75c0.84,0.811,1.771,1.14,2.698,1.14c0.887,0,1.711-0.51,1.711-1.289
										c0-0.51-0.346-0.885-1.471-1.32c-1.395-0.54-2.188-1.05-2.188-2.13c0-1.319,1.14-2.386,2.938-2.386
										c1.142,0,2.221,0.511,2.865,1.066l-0.675,0.795c-0.646-0.525-1.455-0.9-2.295-0.9c-1.097,0-1.681,0.585-1.681,1.229
										c0,0.511,0.314,0.841,1.545,1.32c1.396,0.569,2.115,1.125,2.115,2.13c0,1.439-1.32,2.445-2.971,2.445
										C191.034,281.07,189.79,280.619,188.89,279.72z"/>
									<path fill="#FFFFFF" d="M197.409,279.51c0-0.27,0.045-0.57,0.105-0.811l1.215-4.529h-1.064l0.271-1.02h1.08l0.63-2.34
										h1.141l-0.631,2.34h2.445l-0.271,1.02h-2.443l-1.2,4.47c-0.03,0.181-0.062,0.405-0.062,0.57
										c0,0.54,0.405,0.795,1.065,0.795c0.345,0,0.705-0.075,1.125-0.24l-0.285,1.05c-0.405,0.166-0.78,0.225-1.229,0.225
										C198.189,281.039,197.409,280.515,197.409,279.51z"/>
									<path fill="#FFFFFF" d="M204.008,277.74c0,1.41,0.9,2.34,2.341,2.34c1.005,0,1.68-0.346,2.385-0.915l0.601,0.765
										c-0.766,0.645-1.681,1.155-3.045,1.155c-2.056,0-3.436-1.335-3.436-3.3c0-2.37,1.92-4.801,4.516-4.801
										c1.965,0,3,1.351,3,2.971c0,0.525-0.104,1.035-0.285,1.515h-6.061C204.008,277.561,204.008,277.65,204.008,277.74z
										 M209.184,276.54c0.029-0.149,0.061-0.33,0.061-0.585c0-1.064-0.601-1.995-1.936-1.995c-1.53,0-2.686,1.155-3.12,2.58
										H209.184z"/>
									<path fill="#FFFFFF" d="M18.147,287.955h1.154l-1.199,4.455c0.705-0.795,1.516-1.426,2.699-1.426
										c1.5,0,2.476,0.931,2.476,2.4c0,0.36-0.09,0.795-0.194,1.2l-1.141,4.319h-1.154l1.17-4.395
										c0.074-0.255,0.119-0.615,0.119-0.869c0-1.021-0.66-1.621-1.74-1.621c-1.199,0-2.399,1.035-2.805,2.506l-1.17,4.379h-1.154
										L18.147,287.955z"/>
									<path fill="#FFFFFF" d="M24.882,295.605c0-2.416,2.086-4.621,4.561-4.621c2.13,0,3.539,1.455,3.539,3.466
										c0,2.475-2.145,4.635-4.574,4.635C26.277,299.085,24.882,297.615,24.882,295.605z M31.798,294.495
										c0-1.575-0.99-2.49-2.431-2.49c-1.784,0-3.315,1.771-3.315,3.569c0,1.576,0.99,2.476,2.431,2.476
										C30.222,298.05,31.798,296.34,31.798,294.495z"/>
									<path fill="#FFFFFF" d="M36.042,291.15h1.155l-0.524,2.024c0.944-1.35,2.145-2.249,3.689-2.159l-0.33,1.244h-0.075
										c-1.694,0-3.39,1.245-4.005,3.585l-0.824,3.06h-1.156L36.042,291.15z"/>
									<path fill="#FFFFFF" d="M39.657,297.72l0.75-0.75c0.84,0.811,1.77,1.14,2.699,1.14c0.885,0,1.711-0.51,1.711-1.289
										c0-0.51-0.346-0.885-1.471-1.32c-1.395-0.54-2.189-1.05-2.189-2.13c0-1.319,1.14-2.386,2.939-2.386
										c1.141,0,2.221,0.511,2.865,1.066l-0.676,0.795c-0.645-0.525-1.454-0.9-2.295-0.9c-1.094,0-1.68,0.585-1.68,1.229
										c0,0.511,0.315,0.841,1.545,1.32c1.396,0.569,2.115,1.125,2.115,2.13c0,1.439-1.32,2.445-2.97,2.445
										C41.802,299.07,40.558,298.619,39.657,297.72z"/>
									<path fill="#FFFFFF" d="M54.012,291.15h1.155l-0.33,1.26c0.705-0.795,1.516-1.426,2.699-1.426c1.5,0,2.476,0.931,2.476,2.4
										c0,0.36-0.09,0.795-0.194,1.2l-1.141,4.319h-1.154l1.17-4.395c0.074-0.255,0.119-0.615,0.119-0.869
										c0-1.021-0.66-1.621-1.74-1.621c-1.199,0-2.399,1.035-2.805,2.506l-1.17,4.379h-1.154L54.012,291.15z"/>
									<path fill="#FFFFFF" d="M61.616,295.605c0-2.416,2.086-4.621,4.561-4.621c2.13,0,3.539,1.455,3.539,3.466
										c0,2.475-2.145,4.635-4.574,4.635C63.012,299.085,61.616,297.615,61.616,295.605z M68.532,294.495
										c0-1.575-0.99-2.49-2.431-2.49c-1.784,0-3.315,1.771-3.315,3.569c0,1.576,0.99,2.476,2.431,2.476
										C66.956,298.05,68.532,296.34,68.532,294.495z"/>
									<path fill="#FFFFFF" d="M72.776,291.15h1.155l-0.524,2.024c0.944-1.35,2.145-2.249,3.689-2.159l-0.33,1.244h-0.075
										c-1.694,0-3.39,1.245-4.005,3.585l-0.824,3.06h-1.156L72.776,291.15z"/>
									<path fill="#FFFFFF" d="M78.806,291.15h1.156l-0.33,1.26c0.705-0.795,1.439-1.426,2.58-1.426
										c1.305,0,1.994,0.855,2.204,1.756c0.69-1.064,1.74-1.756,3.12-1.756c1.395,0,2.369,0.961,2.369,2.4
										c0,0.36-0.119,0.795-0.209,1.2l-1.155,4.319h-1.155l1.186-4.395c0.06-0.255,0.104-0.615,0.104-0.869
										c0-1.006-0.6-1.621-1.604-1.621c-1.141,0-2.295,1.065-2.686,2.506l-1.154,4.379h-1.155l1.17-4.396
										c0.075-0.255,0.12-0.615,0.12-0.869c0-1.006-0.615-1.621-1.62-1.621c-1.14,0-2.295,1.065-2.685,2.506l-1.17,4.379h-1.155
										L78.806,291.15z"/>
									<path fill="#FFFFFF" d="M92.606,295.74c0,1.41,0.9,2.34,2.34,2.34c1.005,0,1.68-0.346,2.385-0.915l0.6,0.765
										c-0.765,0.645-1.68,1.155-3.045,1.155c-2.055,0-3.435-1.335-3.435-3.3c0-2.37,1.92-4.801,4.515-4.801
										c1.965,0,3,1.351,3,2.971c0,0.525-0.104,1.035-0.285,1.515h-6.059C92.606,295.561,92.606,295.65,92.606,295.74z
										 M97.781,294.54c0.03-0.149,0.06-0.33,0.06-0.585c0-1.064-0.6-1.995-1.935-1.995c-1.53,0-2.685,1.155-3.12,2.58H97.781z"/>
									<path fill="#FFFFFF" d="M99.476,297.72l0.75-0.75c0.84,0.811,1.77,1.14,2.7,1.14c0.885,0,1.71-0.51,1.71-1.289
										c0-0.51-0.346-0.885-1.47-1.32c-1.396-0.54-2.19-1.05-2.19-2.13c0-1.319,1.141-2.386,2.939-2.386
										c1.141,0,2.221,0.511,2.865,1.066l-0.675,0.795c-0.646-0.525-1.454-0.9-2.295-0.9c-1.095,0-1.68,0.585-1.68,1.229
										c0,0.511,0.315,0.841,1.545,1.32c1.396,0.569,2.114,1.125,2.114,2.13c0,1.439-1.319,2.445-2.969,2.445
										C101.62,299.07,100.376,298.619,99.476,297.72z"/>
									<path fill="#FFFFFF" d="M111.626,297.705l2.805-2.805l-1.23-2.655l0.945-0.465l1.575,3.194l-0.03,0.12l-3.314,3.24
										L111.626,297.705z M114.956,297.705l2.806-2.805l-1.23-2.655l0.945-0.465l1.575,3.194l-0.03,0.12l-3.33,3.24
										L114.956,297.705z"/>
									<path fill="#FFFFFF" d="M125.411,295.035c0-3.314,2.234-6.811,5.459-6.811c2.342,0,3.676,1.695,3.676,4.051
										c0,3.314-2.234,6.81-5.459,6.81C126.73,299.085,125.411,297.39,125.411,295.035z M133.315,292.275
										c0-1.711-0.885-2.971-2.535-2.971c-2.295,0-4.14,2.971-4.14,5.73c0,1.709,0.87,2.97,2.521,2.97
										C131.471,298.005,133.315,295.035,133.315,292.275z"/>
									<path fill="#FFFFFF" d="M134.741,297.975l6.014-4.56c1.156-0.87,1.756-1.575,1.756-2.476c0-0.93-0.735-1.604-1.995-1.604
										c-1.17,0-2.101,0.646-2.88,1.44l-0.779-0.75c0.943-1.006,2.13-1.77,3.704-1.77c1.892,0,3.18,1.064,3.18,2.609
										c0,1.26-0.765,2.175-2.249,3.285l-4.846,3.674h5.609l-0.284,1.08h-7.47L134.741,297.975z"/>
									<path fill="#FFFFFF" d="M144.415,297.33h1.381l-0.42,1.574h-1.381L144.415,297.33z M146.081,291.15h1.379l-0.436,1.574
										h-1.38L146.081,291.15z"/>
									<path fill="#FFFFFF" d="M147.73,297.045l0.931-0.6c0.555,0.975,1.409,1.56,2.805,1.56c1.649,0,2.896-0.99,2.896-2.325
										c0-1.199-1.065-1.785-2.715-1.785h-0.479l-0.149-0.674l4.244-3.75h-5.175l0.301-1.064h6.84l-0.24,0.87l-4.275,3.734
										c1.576,0.135,2.881,0.975,2.881,2.58c0,2.025-1.904,3.495-4.186,3.495C149.575,299.085,148.346,298.275,147.73,297.045z"/>
									<path fill="#FFFFFF" d="M156.82,297.21l0.915-0.675c0.676,0.93,1.545,1.484,2.805,1.484c1.847,0,3.045-1.229,3.045-2.58
										c0-1.26-0.959-2.01-2.354-2.01c-0.646,0-1.425,0.18-2.146,0.57l-0.674-0.54l1.649-5.055h5.864l-0.314,1.095h-4.785
										l-1.109,3.3c0.436-0.21,1.244-0.405,1.801-0.405c1.995,0,3.314,1.141,3.314,2.955c0,1.995-1.74,3.735-4.381,3.735
										C158.741,299.085,157.511,298.244,156.82,297.21z"/>
								</g>
								<g>
									<path fill="#FFFFFF" d="M19.257,325.388h-3.734v-0.465h7.994v0.465h-3.749v10.034h-0.511V325.388z"/>
									<path fill="#FFFFFF" d="M24.042,327.863h0.48v2.309c0.449-1.289,1.605-2.504,3.21-2.459v0.494c-0.015,0-0.06,0-0.075,0
										c-1.83,0-3.135,1.771-3.135,3.631v3.584h-0.48V327.863z"/>
									<path fill="#FFFFFF" d="M28.452,333.293v-0.031c0-1.574,1.426-2.43,3.346-2.43c1.049,0,1.965,0.181,2.699,0.42v-0.51
										c0-1.709-1.02-2.549-2.699-2.549c-0.931,0-1.711,0.254-2.461,0.629l-0.18-0.42c0.84-0.404,1.665-0.66,2.67-0.66
										c1.035,0,1.846,0.271,2.4,0.826c0.479,0.494,0.75,1.215,0.75,2.145v4.709h-0.48v-1.574c-0.39,0.824-1.439,1.755-3.18,1.755
										C29.862,335.603,28.452,334.822,28.452,333.293z M34.513,332.633v-0.93c-0.735-0.24-1.605-0.42-2.73-0.42
										c-1.665,0-2.82,0.704-2.82,1.949v0.029c0,1.246,1.125,1.891,2.385,1.891C33.177,335.152,34.513,333.982,34.513,332.633z"/>
									<path fill="#FFFFFF" d="M37.093,331.658v-0.031c0-2.129,1.68-3.944,3.869-3.944c1.395,0,2.279,0.63,3.016,1.396
										l-0.346,0.344c-0.66-0.704-1.484-1.289-2.686-1.289c-1.904,0-3.344,1.574-3.344,3.479v0.03c0,1.904,1.484,3.51,3.375,3.51
										c1.199,0,2.055-0.615,2.715-1.35l0.344,0.3c-0.734,0.854-1.68,1.5-3.09,1.5C38.772,335.603,37.093,333.803,37.093,331.658z
										"/>
									<path fill="#FFFFFF" d="M46.093,324.473h0.479v8.279l5.024-4.889h0.646l-3.479,3.344l3.659,4.215h-0.601l-3.389-3.885
										l-1.86,1.785v2.1h-0.479V324.473z"/>
									<path fill="#FFFFFF" d="M53.638,334.447l0.285-0.375c0.84,0.66,1.844,1.035,2.819,1.035c1.215,0,2.159-0.645,2.159-1.575
										v-0.03c0-1.064-1.139-1.395-2.295-1.709c-1.409-0.405-2.624-0.795-2.624-2.055v-0.031c0-1.125,1.034-1.979,2.579-1.979
										c0.871,0,1.86,0.3,2.655,0.841l-0.27,0.404c-0.72-0.51-1.604-0.795-2.4-0.795c-1.245,0-2.069,0.645-2.069,1.484v0.03
										c0,0.945,1.064,1.29,2.295,1.636c1.379,0.375,2.625,0.81,2.625,2.129v0.03c0,1.245-1.17,2.069-2.686,2.069
										C55.632,335.557,54.462,335.137,53.638,334.447z"/>
									<path fill="#FFFFFF" d="M65.367,331.643v-0.09l2.534-3.105l0.33,0.24l-2.295,2.91l2.295,2.91l-0.33,0.24L65.367,331.643z
										 M68.112,331.643v-0.09l2.55-3.105l0.329,0.24l-2.295,2.91l2.295,2.91l-0.329,0.24L68.112,331.643z"/>
									<path fill="#FFFFFF" d="M77.622,330.893v-5.97h0.51v5.94c0,2.789,1.5,4.26,3.779,4.26c2.266,0,3.734-1.41,3.734-4.23v-5.97
										h0.511v5.925c0,3.135-1.726,4.74-4.26,4.74C79.376,335.588,77.622,333.998,77.622,330.893z"/>
									<path fill="#FFFFFF" d="M88.946,327.863h0.48v1.799c0.344-0.899,1.289-1.979,2.909-1.979c1.995,0,3.12,1.351,3.12,3.315
										v4.424h-0.48v-4.35c0-1.755-0.944-2.939-2.699-2.939c-1.59,0-2.85,1.305-2.85,3.029v4.26h-0.48V327.863z"/>
									<path fill="#FFFFFF" d="M101.921,331.658v-0.031c0-2.295,1.695-3.944,3.734-3.944c1.666,0,2.836,0.99,3.346,2.235v-5.445
										h0.479v10.949h-0.479v-2.084c-0.525,1.26-1.695,2.265-3.346,2.265C103.616,335.603,101.921,333.967,101.921,331.658z
										 M109.03,331.658v-0.031c0-1.949-1.484-3.479-3.33-3.479c-1.904,0-3.27,1.44-3.27,3.465v0.03
										c0,1.994,1.395,3.494,3.27,3.494C107.561,335.137,109.03,333.607,109.03,331.658z"/>
									<path fill="#FFFFFF" d="M111.731,331.672v-0.029c0-2.115,1.604-3.96,3.93-3.96c2.311,0,3.899,1.815,3.899,3.93v0.03
										c0,2.115-1.59,3.96-3.915,3.96C113.336,335.603,111.731,333.787,111.731,331.672z M119.051,331.658v-0.031
										c0-1.904-1.455-3.494-3.42-3.494c-1.995,0-3.375,1.59-3.375,3.494v0.031c0,1.904,1.44,3.494,3.405,3.494
										C117.655,335.152,119.051,333.562,119.051,331.658z"/>
									<path fill="#FFFFFF" d="M121.286,331.658v-0.031c0-2.129,1.68-3.944,3.87-3.944c1.396,0,2.279,0.63,3.015,1.396
										l-0.344,0.344c-0.66-0.704-1.486-1.289-2.687-1.289c-1.904,0-3.345,1.574-3.345,3.479v0.03c0,1.904,1.484,3.51,3.375,3.51
										c1.199,0,2.055-0.615,2.715-1.35l0.345,0.3c-0.733,0.854-1.681,1.5-3.09,1.5
										C122.965,335.603,121.286,333.803,121.286,331.658z"/>
									<path fill="#FFFFFF" d="M130.136,332.287v-4.424h0.479v4.35c0,1.754,0.944,2.939,2.699,2.939c1.59,0,2.85-1.305,2.85-3.029
										v-4.26h0.48v7.559h-0.48v-1.799c-0.345,0.899-1.289,1.979-2.908,1.979C131.261,335.603,130.136,334.252,130.136,332.287z"
										/>
									<path fill="#FFFFFF" d="M139.435,327.863h0.479v1.694c0.33-0.885,1.229-1.875,2.58-1.875c1.516,0,2.34,0.915,2.67,1.995
										c0.375-0.99,1.336-1.995,2.715-1.995c1.726,0,2.865,1.17,2.865,3.226v4.514h-0.479v-4.469c0-1.83-0.96-2.82-2.415-2.82
										c-1.29,0-2.52,1.17-2.52,2.88v4.409h-0.48v-4.484c0-1.8-0.975-2.805-2.398-2.805c-1.32,0-2.535,1.26-2.535,2.895v4.395
										h-0.48L139.435,327.863L139.435,327.863z"/>
									<path fill="#FFFFFF" d="M152.92,331.643v-0.03c0-2.22,1.529-3.93,3.615-3.93c2.279,0,3.465,1.95,3.465,3.976
										c0,0.074,0,0.104,0,0.164h-6.556c0.091,2.055,1.546,3.33,3.24,3.33c1.17,0,2.114-0.615,2.715-1.395l0.36,0.285
										c-0.69,0.899-1.711,1.56-3.09,1.56C154.631,335.603,152.92,334.058,152.92,331.643z M159.476,331.388
										c-0.075-1.649-1.08-3.255-2.97-3.255c-1.711,0-2.971,1.395-3.062,3.255H159.476z"/>
									<path fill="#FFFFFF" d="M162.189,327.863h0.479v1.799c0.346-0.899,1.291-1.979,2.91-1.979c1.994,0,3.119,1.351,3.119,3.315
										v4.424h-0.479v-4.35c0-1.755-0.945-2.939-2.7-2.939c-1.59,0-2.851,1.305-2.851,3.029v4.26h-0.479V327.863z"/>
									<path fill="#FFFFFF" d="M171.745,333.487v-5.189h-1.154v-0.435h1.154v-2.535h0.48v2.535h2.744v0.435h-2.744v5.145
										c0,1.11,0.585,1.665,1.574,1.665c0.375,0,0.75-0.09,1.141-0.27v0.465c-0.375,0.18-0.766,0.254-1.186,0.254
										C172.54,335.557,171.745,334.853,171.745,333.487z"/>
									<path fill="#FFFFFF" d="M176.47,333.293v-0.031c0-1.574,1.425-2.43,3.345-2.43c1.051,0,1.966,0.181,2.7,0.42v-0.51
										c0-1.709-1.021-2.549-2.7-2.549c-0.93,0-1.71,0.254-2.459,0.629l-0.182-0.42c0.841-0.404,1.666-0.66,2.671-0.66
										c1.034,0,1.845,0.271,2.399,0.826c0.479,0.494,0.75,1.215,0.75,2.145v4.709h-0.479v-1.574
										c-0.39,0.824-1.438,1.755-3.181,1.755C177.879,335.603,176.47,334.822,176.47,333.293z M182.53,332.633v-0.93
										c-0.734-0.24-1.605-0.42-2.73-0.42c-1.664,0-2.818,0.704-2.818,1.949v0.029c0,1.246,1.124,1.891,2.385,1.891
										C181.195,335.152,182.53,333.982,182.53,332.633z"/>
									<path fill="#FFFFFF" d="M185.649,324.863h0.645v0.914h-0.645V324.863z M185.725,327.863h0.494v7.559h-0.494V327.863z"/>
									<path fill="#FFFFFF" d="M189.099,327.863h0.479v2.309c0.45-1.289,1.604-2.504,3.211-2.459v0.494c-0.017,0-0.062,0-0.076,0
										c-1.83,0-3.135,1.771-3.135,3.631v3.584h-0.479V327.863L189.099,327.863z"/>
									<path fill="#FFFFFF" d="M193.614,331.643v-0.03c0-2.22,1.529-3.93,3.614-3.93c2.28,0,3.465,1.95,3.465,3.976
										c0,0.074,0,0.104,0,0.164h-6.555c0.091,2.055,1.545,3.33,3.239,3.33c1.17,0,2.115-0.615,2.715-1.395l0.361,0.285
										c-0.69,0.899-1.711,1.56-3.091,1.56C195.325,335.603,193.614,334.058,193.614,331.643z M200.168,331.388
										c-0.074-1.649-1.08-3.255-2.969-3.255c-1.711,0-2.971,1.395-3.062,3.255H200.168z"/>
									<path fill="#FFFFFF" d="M15.643,352.447l0.285-0.375c0.84,0.66,1.845,1.035,2.819,1.035c1.215,0,2.16-0.645,2.16-1.575
										v-0.03c0-1.064-1.14-1.395-2.295-1.709c-1.41-0.405-2.625-0.795-2.625-2.055v-0.031c0-1.125,1.035-1.979,2.58-1.979
										c0.87,0,1.859,0.3,2.654,0.841l-0.27,0.404c-0.72-0.51-1.604-0.795-2.399-0.795c-1.245,0-2.07,0.645-2.07,1.484v0.03
										c0,0.945,1.065,1.29,2.295,1.636c1.38,0.375,2.625,0.81,2.625,2.129v0.03c0,1.245-1.17,2.069-2.685,2.069
										C17.638,353.557,16.468,353.137,15.643,352.447z"/>
									<path fill="#FFFFFF" d="M23.593,350.287v-4.424h0.48v4.35c0,1.754,0.944,2.939,2.699,2.939c1.59,0,2.85-1.305,2.85-3.029
										v-4.26h0.48v7.559h-0.48v-1.799c-0.345,0.899-1.289,1.979-2.91,1.979C24.718,353.603,23.593,352.252,23.593,350.287z"/>
									<path fill="#FFFFFF" d="M32.893,345.863h0.479v2.309c0.45-1.289,1.605-2.504,3.211-2.459v0.494c-0.016,0-0.061,0-0.076,0
										c-1.83,0-3.135,1.771-3.135,3.631v3.584h-0.479V345.863z"/>
									<path fill="#FFFFFF" d="M42.776,342.923h3.75c2.461,0,3.975,1.185,3.975,3.18v0.03c0,2.1-1.694,3.255-4.094,3.255h-3.121
										v4.034h-0.51V342.923z M46.422,348.908c2.175,0,3.569-1.021,3.569-2.761v-0.03c0-1.725-1.35-2.729-3.51-2.729h-3.195v5.521
										L46.422,348.908L46.422,348.908z"/>
									<path fill="#FFFFFF" d="M52.572,350.287v-4.424h0.479v4.35c0,1.754,0.945,2.939,2.7,2.939c1.59,0,2.851-1.305,2.851-3.029
										v-4.26h0.479v7.559h-0.479v-1.799c-0.346,0.899-1.291,1.979-2.91,1.979C53.697,353.603,52.572,352.252,52.572,350.287z"/>
									<path fill="#FFFFFF" d="M61.962,342.473h0.494v10.949h-0.494V342.473z"/>
									<path fill="#FFFFFF" d="M65.337,345.863h0.479v2.084c0.524-1.26,1.694-2.265,3.345-2.265c2.04,0,3.734,1.635,3.734,3.944
										v0.031c0,2.295-1.694,3.944-3.734,3.944c-1.665,0-2.835-0.99-3.345-2.235v4.455h-0.479V345.863z M72.386,349.672v-0.029
										c0-1.995-1.395-3.495-3.27-3.495c-1.859,0-3.33,1.53-3.33,3.479v0.031c0,1.949,1.485,3.479,3.33,3.479
										C71.021,353.137,72.386,351.697,72.386,349.672z"/>
									<path fill="#FFFFFF" d="M74.472,354.532c0.449-0.226,0.6-0.555,0.57-1.11h-0.33v-0.975h0.72v0.855
										c0,0.885-0.24,1.26-0.825,1.484L74.472,354.532z"/>
									<path fill="#FFFFFF" d="M82.062,354.697l0.285-0.391c0.945,0.721,1.994,1.096,3.164,1.096c1.905,0,3.195-1.08,3.195-3.195
										v-1.365c-0.585,1.156-1.77,2.025-3.3,2.025c-1.965,0-3.69-1.529-3.69-3.57v-0.029c0-2.055,1.726-3.585,3.69-3.585
										c1.53,0,2.715,0.87,3.3,1.995v-1.814h0.495v6.404c0,1.109-0.36,1.994-0.976,2.609c-0.645,0.646-1.604,0.99-2.715,0.99
										C84.236,355.867,83.097,355.477,82.062,354.697z M88.751,349.297v-0.029c0-1.755-1.545-3.12-3.3-3.12
										c-1.771,0-3.21,1.32-3.21,3.104v0.031c0,1.754,1.455,3.119,3.21,3.119C87.206,352.402,88.751,351.053,88.751,349.297z"/>
									<path fill="#FFFFFF" d="M91.991,345.863h0.48v2.309c0.449-1.289,1.604-2.504,3.209-2.459v0.494c-0.015,0-0.06,0-0.074,0
										c-1.83,0-3.135,1.771-3.135,3.631v3.584h-0.48V345.863z"/>
									<path fill="#FFFFFF" d="M96.491,349.672v-0.029c0-2.115,1.605-3.96,3.93-3.96c2.311,0,3.9,1.815,3.9,3.93v0.03
										c0,2.115-1.59,3.96-3.915,3.96C98.097,353.603,96.491,351.787,96.491,349.672z M103.812,349.658v-0.031
										c0-1.904-1.455-3.494-3.42-3.494c-1.996,0-3.375,1.59-3.375,3.494v0.031c0,1.904,1.439,3.494,3.404,3.494
										C102.416,353.152,103.812,351.562,103.812,349.658z"/>
									<path fill="#FFFFFF" d="M106.421,350.287v-4.424h0.48v4.35c0,1.754,0.944,2.939,2.699,2.939c1.59,0,2.85-1.305,2.85-3.029
										v-4.26h0.48v7.559h-0.48v-1.799c-0.345,0.899-1.289,1.979-2.91,1.979C107.546,353.603,106.421,352.252,106.421,350.287z"/>
									<path fill="#FFFFFF" d="M115.721,345.863h0.479v2.084c0.525-1.26,1.695-2.265,3.346-2.265c2.039,0,3.734,1.635,3.734,3.944
										v0.031c0,2.295-1.695,3.944-3.734,3.944c-1.664,0-2.834-0.99-3.346-2.235v4.455h-0.479V345.863z M122.771,349.672v-0.029
										c0-1.995-1.396-3.495-3.271-3.495c-1.859,0-3.33,1.53-3.33,3.479v0.031c0,1.949,1.484,3.479,3.33,3.479
										C121.405,353.137,122.771,351.697,122.771,349.672z"/>
									<path fill="#FFFFFF" d="M125.051,349.643v-0.03c0-2.22,1.529-3.93,3.613-3.93c2.28,0,3.465,1.95,3.465,3.976
										c0,0.074,0,0.104,0,0.164h-6.555c0.092,2.055,1.545,3.33,3.24,3.33c1.17,0,2.115-0.615,2.715-1.395l0.36,0.285
										c-0.69,0.899-1.71,1.56-3.091,1.56C126.761,353.603,125.051,352.058,125.051,349.643z M131.605,349.388
										c-0.075-1.649-1.08-3.255-2.97-3.255c-1.711,0-2.971,1.395-3.061,3.255H131.605z"/>
									<path fill="#FFFFFF" d="M138.64,345.863h0.479v2.084c0.525-1.26,1.695-2.265,3.346-2.265c2.039,0,3.734,1.635,3.734,3.944
										v0.031c0,2.295-1.695,3.944-3.734,3.944c-1.666,0-2.836-0.99-3.346-2.235v4.455h-0.479V345.863z M145.689,349.672v-0.029
										c0-1.995-1.396-3.495-3.271-3.495c-1.859,0-3.33,1.53-3.33,3.479v0.031c0,1.949,1.486,3.479,3.33,3.479
										C144.325,353.137,145.689,351.697,145.689,349.672z"/>
									<path fill="#FFFFFF" d="M148.495,342.473h0.48v5.189c0.345-0.899,1.29-1.979,2.91-1.979c1.994,0,3.119,1.351,3.119,3.315
										v4.424h-0.479v-4.35c0-1.755-0.944-2.939-2.7-2.939c-1.59,0-2.85,1.305-2.85,3.029v4.26h-0.48V342.473z"/>
									<path fill="#FFFFFF" d="M157.015,351.293v-0.031c0-1.574,1.425-2.43,3.345-2.43c1.051,0,1.967,0.181,2.7,0.42v-0.51
										c0-1.709-1.021-2.549-2.7-2.549c-0.93,0-1.71,0.254-2.459,0.629l-0.181-0.42c0.84-0.404,1.665-0.66,2.67-0.66
										c1.034,0,1.845,0.271,2.399,0.826c0.479,0.494,0.75,1.215,0.75,2.145v4.709h-0.479v-1.574
										c-0.39,0.824-1.438,1.755-3.181,1.755C158.424,353.603,157.015,352.822,157.015,351.293z M163.075,350.633v-0.93
										c-0.734-0.24-1.604-0.42-2.729-0.42c-1.665,0-2.819,0.704-2.819,1.949v0.029c0,1.246,1.124,1.891,2.385,1.891
										C161.741,353.152,163.075,351.982,163.075,350.633z"/>
									<path fill="#FFFFFF" d="M166.18,345.863h0.48v2.309c0.449-1.289,1.604-2.504,3.209-2.459v0.494c-0.016,0-0.061,0-0.074,0
										c-1.83,0-3.135,1.771-3.135,3.631v3.584h-0.48V345.863L166.18,345.863z"/>
									<path fill="#FFFFFF" d="M170.695,349.643v-0.03c0-2.22,1.53-3.93,3.614-3.93c2.279,0,3.465,1.95,3.465,3.976
										c0,0.074,0,0.104,0,0.164h-6.555c0.091,2.055,1.545,3.33,3.24,3.33c1.17,0,2.115-0.615,2.715-1.395l0.359,0.285
										c-0.689,0.899-1.709,1.56-3.09,1.56C172.405,353.603,170.695,352.058,170.695,349.643z M177.25,349.388
										c-0.076-1.649-1.08-3.255-2.971-3.255c-1.71,0-2.97,1.395-3.061,3.255H177.25z"/>
									<path fill="#FFFFFF" d="M15.853,367.658v-0.031c0-2.295,1.695-3.943,3.734-3.943c1.666,0,2.836,0.989,3.346,2.234v-5.445
										h0.479v10.949h-0.479v-2.084c-0.525,1.26-1.695,2.266-3.346,2.266C17.548,371.604,15.853,369.967,15.853,367.658z
										 M22.962,367.658v-0.031c0-1.949-1.484-3.479-3.33-3.479c-1.904,0-3.27,1.439-3.27,3.465v0.029
										c0,1.994,1.395,3.494,3.27,3.494C21.492,371.137,22.962,369.607,22.962,367.658z"/>
									<path fill="#FFFFFF" d="M25.678,367.643v-0.029c0-2.221,1.53-3.93,3.614-3.93c2.28,0,3.465,1.949,3.465,3.976
										c0,0.073,0,0.104,0,0.164h-6.555c0.09,2.055,1.545,3.329,3.24,3.329c1.17,0,2.115-0.614,2.715-1.395l0.359,0.285
										c-0.689,0.898-1.709,1.561-3.09,1.561C27.388,371.604,25.678,370.059,25.678,367.643z M32.232,367.389
										c-0.075-1.649-1.08-3.256-2.97-3.256c-1.71,0-2.971,1.395-3.061,3.256H32.232z"/>
									<path fill="#FFFFFF" d="M39.357,360.473h0.495v10.949h-0.495V360.473z"/>
									<path fill="#FFFFFF" d="M42.103,369.293v-0.031c0-1.574,1.425-2.43,3.345-2.43c1.05,0,1.965,0.182,2.7,0.42v-0.51
										c0-1.709-1.021-2.549-2.7-2.549c-0.931,0-1.71,0.254-2.46,0.629l-0.18-0.42c0.84-0.404,1.664-0.66,2.67-0.66
										c1.035,0,1.845,0.271,2.399,0.826c0.479,0.494,0.75,1.215,0.75,2.145v4.709h-0.479v-1.574
										c-0.391,0.824-1.44,1.756-3.18,1.756C43.513,371.604,42.103,370.822,42.103,369.293z M48.162,368.633v-0.93
										c-0.735-0.24-1.604-0.42-2.729-0.42c-1.666,0-2.82,0.703-2.82,1.949v0.028c0,1.246,1.125,1.892,2.385,1.892
										C46.827,371.152,48.162,369.982,48.162,368.633z"/>
									<path fill="#FFFFFF" d="M55.752,360.923h4.319c1.2,0,2.16,0.33,2.745,0.915c0.435,0.436,0.675,1.005,0.675,1.695v0.029
										c0,1.35-0.869,2.188-1.935,2.489c1.38,0.255,2.505,1.14,2.505,2.564v0.03c0,1.738-1.425,2.773-3.765,2.773h-4.545
										L55.752,360.923L55.752,360.923z M60.177,365.889c1.561,0,2.805-0.766,2.805-2.281v-0.028c0-1.32-1.08-2.19-2.925-2.19
										h-3.795v4.5H60.177L60.177,365.889z M60.312,370.957c2.025,0,3.225-0.869,3.225-2.295v-0.029
										c0-1.471-1.305-2.279-3.164-2.279h-4.11v4.604H60.312z"/>
									<path fill="#FFFFFF" d="M66.446,363.863h0.48v2.309c0.449-1.289,1.605-2.504,3.21-2.459v0.494c-0.015,0-0.06,0-0.075,0
										c-1.83,0-3.135,1.771-3.135,3.631v3.584h-0.48V363.863z"/>
									<path fill="#FFFFFF" d="M71.877,360.863h0.645v0.914h-0.645V360.863z M71.952,363.863h0.494v7.559h-0.494V363.863z"/>
									<path fill="#FFFFFF" d="M75.731,369.486v-5.188h-1.154v-0.435h1.154v-2.535h0.48v2.535h2.744v0.435h-2.744v5.146
										c0,1.109,0.584,1.664,1.574,1.664c0.375,0,0.75-0.09,1.141-0.27v0.465c-0.375,0.18-0.766,0.254-1.186,0.254
										C76.526,371.557,75.731,370.854,75.731,369.486z"/>
									<path fill="#FFFFFF" d="M85.556,360.923h3.75c2.461,0,3.975,1.185,3.975,3.181v0.029c0,2.1-1.694,3.256-4.094,3.256h-3.121
										v4.033h-0.51V360.923z M89.201,366.908c2.175,0,3.569-1.021,3.569-2.762v-0.029c0-1.725-1.35-2.729-3.51-2.729h-3.195
										v5.521L89.201,366.908L89.201,366.908z"/>
									<path fill="#FFFFFF" d="M94.812,367.672v-0.029c0-2.115,1.605-3.959,3.93-3.959c2.311,0,3.9,1.814,3.9,3.93v0.029
										c0,2.115-1.59,3.961-3.915,3.961C96.417,371.604,94.812,369.787,94.812,367.672z M102.132,367.658v-0.031
										c0-1.904-1.455-3.494-3.42-3.494c-1.996,0-3.375,1.59-3.375,3.494v0.031c0,1.904,1.439,3.494,3.404,3.494
										C100.736,371.152,102.132,369.562,102.132,367.658z"/>
									<path fill="#FFFFFF" d="M104.892,363.863h0.479v2.084c0.524-1.26,1.694-2.266,3.345-2.266c2.04,0,3.734,1.635,3.734,3.944
										v0.031c0,2.295-1.694,3.944-3.734,3.944c-1.665,0-2.835-0.99-3.345-2.235v4.454h-0.479V363.863z M111.94,367.672v-0.029
										c0-1.994-1.395-3.494-3.27-3.494c-1.859,0-3.33,1.529-3.33,3.479v0.031c0,1.949,1.485,3.479,3.33,3.479
										C110.575,371.137,111.94,369.697,111.94,367.672z"/>
									<path fill="#FFFFFF" d="M118.586,370.508l2.295-2.91l-2.295-2.91l0.33-0.239l2.549,3.104v0.09l-2.549,3.105
										L118.586,370.508z M121.346,370.508l2.295-2.91l-2.295-2.91l0.33-0.239l2.535,3.104v0.09l-2.535,3.105L121.346,370.508z"/>
									<path fill="#FFFFFF" d="M130.241,366.188v-0.028c0-2.865,1.62-5.416,4.32-5.416c2.715,0,4.318,2.521,4.318,5.416v0.028
										c0,2.865-1.619,5.416-4.318,5.416C131.847,371.604,130.241,369.082,130.241,366.188z M138.356,366.203v-0.031
										c0-2.579-1.426-4.964-3.811-4.964s-3.779,2.34-3.779,4.935v0.029c0,2.58,1.425,4.965,3.811,4.965
										C136.961,371.137,138.356,368.783,138.356,366.203z"/>
									<path fill="#FFFFFF" d="M140.726,369.922l0.375-0.359c0.812,0.9,1.995,1.574,3.271,1.574c1.814,0,3.09-1.199,3.09-2.834
										v-0.029c0-1.59-1.319-2.686-3.09-2.686c-0.886,0-1.756,0.225-2.609,0.689l-0.36-0.211l0.3-5.145h5.715v0.479h-5.248
										l-0.271,4.306c0.78-0.375,1.575-0.569,2.535-0.569c2.01,0,3.54,1.26,3.54,3.12v0.029c0,1.937-1.5,3.315-3.63,3.315
										C142.917,371.604,141.536,370.838,140.726,369.922z"/>
									<path fill="#FFFFFF" d="M149.952,363.863h0.719v0.975h-0.719V363.863z M149.952,370.447h0.719v0.975h-0.719V370.447z"/>
									<path fill="#FFFFFF" d="M154.42,361.402l-1.98,0.795l-0.165-0.404l2.25-0.945h0.392v10.574h-0.496V361.402L154.42,361.402z
										"/>
									<path fill="#FFFFFF" d="M157.48,369.922l0.375-0.359c0.812,0.9,1.995,1.574,3.271,1.574c1.814,0,3.09-1.199,3.09-2.834
										v-0.029c0-1.59-1.319-2.686-3.09-2.686c-0.885,0-1.756,0.225-2.609,0.689l-0.36-0.211l0.3-5.145h5.715v0.479h-5.248
										l-0.271,4.306c0.78-0.375,1.575-0.569,2.535-0.569c2.01,0,3.54,1.26,3.54,3.12v0.029c0,1.937-1.5,3.315-3.63,3.315
										C159.67,371.604,158.292,370.838,157.48,369.922z"/>
								</g>
								<g>
									<path fill="#FFFFFF" d="M16.513,397.441h4.32c1.199,0,2.159,0.33,2.744,0.914c0.436,0.436,0.676,1.006,0.676,1.694v0.029
										c0,1.351-0.871,2.189-1.936,2.49c1.38,0.256,2.505,1.141,2.505,2.564v0.03c0,1.739-1.425,2.773-3.765,2.773h-4.545
										L16.513,397.441L16.513,397.441z M20.938,402.406c1.56,0,2.805-0.767,2.805-2.28v-0.03c0-1.319-1.08-2.188-2.925-2.188
										h-3.795v4.5L20.938,402.406L20.938,402.406z M21.072,407.476c2.024,0,3.226-0.869,3.226-2.295v-0.029
										c0-1.471-1.306-2.279-3.166-2.279h-4.109v4.604H21.072z"/>
									<path fill="#FFFFFF" d="M27.223,397.381h0.645v0.915h-0.645V397.381z M27.298,400.381h0.494v7.561h-0.494V400.381z"/>
									<path fill="#FFFFFF" d="M33.582,397.906h-3.735v-0.465h7.995v0.465h-3.749v10.034h-0.511V397.906z"/>
									<path fill="#FFFFFF" d="M39.058,406.41l0.345-0.375c1.11,1.051,2.34,1.59,3.87,1.59c1.814,0,3-0.99,3-2.31v-0.03
										c0-1.229-0.705-1.891-3.24-2.414c-2.564-0.51-3.57-1.32-3.57-2.836v-0.029c0-1.5,1.426-2.715,3.405-2.715
										c1.44,0,2.58,0.449,3.569,1.23l-0.314,0.403c-0.96-0.766-2.055-1.17-3.285-1.17c-1.725,0-2.865,1.035-2.865,2.205v0.029
										c0,1.215,0.705,1.891,3.256,2.416c2.609,0.523,3.555,1.363,3.555,2.834v0.029c0,1.62-1.395,2.819-3.54,2.819
										C41.607,408.09,40.242,407.506,39.058,406.41z"/>
									<path fill="#FFFFFF" d="M52.812,404.16v-0.09l2.535-3.104l0.33,0.239l-2.295,2.91l2.295,2.91l-0.33,0.239L52.812,404.16z
										 M55.557,404.16v-0.09l2.55-3.104l0.33,0.239l-2.295,2.91l2.295,2.91l-0.33,0.239L55.557,404.16z"/>
									<path fill="#FFFFFF" d="M65.217,397.441h3.75c2.46,0,3.975,1.185,3.975,3.18v0.029c0,2.1-1.694,3.256-4.095,3.256h-3.12
										v4.034h-0.51V397.441z M68.862,403.426c2.174,0,3.569-1.02,3.569-2.76v-0.03c0-1.726-1.351-2.729-3.51-2.729h-3.195v5.52
										L68.862,403.426L68.862,403.426z"/>
									<path fill="#FFFFFF" d="M75.012,404.806v-4.425h0.479v4.351c0,1.755,0.945,2.938,2.7,2.938c1.59,0,2.851-1.305,2.851-3.029
										v-4.26h0.479v7.561h-0.479v-1.801c-0.346,0.9-1.291,1.98-2.91,1.98C76.137,408.121,75.012,406.771,75.012,404.806z"/>
									<path fill="#FFFFFF" d="M84.401,396.99h0.495v10.95h-0.495V396.99z"/>
									<path fill="#FFFFFF" d="M87.776,400.381h0.48v2.085c0.524-1.261,1.694-2.265,3.344-2.265c2.041,0,3.735,1.635,3.735,3.943
										v0.03c0,2.295-1.694,3.945-3.735,3.945c-1.664,0-2.834-0.99-3.344-2.235v4.454h-0.48V400.381z M94.826,404.19v-0.03
										c0-1.994-1.396-3.494-3.271-3.494c-1.859,0-3.33,1.529-3.33,3.479v0.03c0,1.949,1.486,3.479,3.33,3.479
										C93.461,407.655,94.826,406.215,94.826,404.19z"/>
									<path fill="#FFFFFF" d="M96.911,409.051c0.45-0.226,0.6-0.555,0.57-1.109h-0.33v-0.977h0.721v0.855
										c0,0.885-0.24,1.26-0.826,1.483L96.911,409.051z"/>
									<path fill="#FFFFFF" d="M104.651,400.381h0.479v2.085c0.524-1.261,1.694-2.265,3.345-2.265c2.04,0,3.734,1.635,3.734,3.943
										v0.03c0,2.295-1.694,3.945-3.734,3.945c-1.665,0-2.835-0.99-3.345-2.235v4.454h-0.479V400.381z M111.7,404.19v-0.03
										c0-1.994-1.395-3.494-3.27-3.494c-1.859,0-3.33,1.529-3.33,3.479v0.03c0,1.949,1.485,3.479,3.33,3.479
										C110.335,407.655,111.7,406.215,111.7,404.19z"/>
									<path fill="#FFFFFF" d="M113.966,404.19v-0.03c0-2.114,1.604-3.959,3.93-3.959c2.31,0,3.899,1.813,3.899,3.93v0.029
										c0,2.115-1.59,3.961-3.914,3.961C115.57,408.121,113.966,406.306,113.966,404.19z M121.286,404.176v-0.029
										c0-1.905-1.455-3.495-3.42-3.495c-1.994,0-3.375,1.59-3.375,3.495v0.029c0,1.904,1.439,3.494,3.404,3.494
										C119.891,407.67,121.286,406.08,121.286,404.176z"/>
									<path fill="#FFFFFF" d="M124.045,400.381h0.479v2.085c0.524-1.261,1.695-2.265,3.345-2.265
										c2.041,0,3.735,1.635,3.735,3.943v0.03c0,2.295-1.694,3.945-3.735,3.945c-1.664,0-2.834-0.99-3.345-2.235v4.454h-0.479
										V400.381z M131.095,404.19v-0.03c0-1.994-1.396-3.494-3.271-3.494c-1.859,0-3.33,1.529-3.33,3.479v0.03
										c0,1.949,1.485,3.479,3.33,3.479C129.73,407.655,131.095,406.215,131.095,404.19z"/>
									<path fill="#FFFFFF" d="M133.75,404.806v-4.425h0.479v4.351c0,1.755,0.944,2.938,2.7,2.938c1.59,0,2.85-1.305,2.85-3.029
										v-4.26h0.48v7.561h-0.48v-1.801c-0.345,0.9-1.289,1.98-2.908,1.98C134.875,408.121,133.75,406.771,133.75,404.806z"/>
									<path fill="#FFFFFF" d="M143.141,396.99h0.494v10.95h-0.494V396.99z"/>
									<path fill="#FFFFFF" d="M145.885,405.811v-0.029c0-1.575,1.425-2.431,3.345-2.431c1.051,0,1.966,0.182,2.7,0.421v-0.511
										c0-1.71-1.02-2.55-2.7-2.55c-0.931,0-1.709,0.255-2.459,0.63l-0.181-0.42c0.84-0.405,1.664-0.66,2.67-0.66
										c1.035,0,1.845,0.271,2.4,0.825c0.479,0.494,0.75,1.215,0.75,2.146v4.71h-0.48v-1.575c-0.391,0.825-1.439,1.756-3.18,1.756
										C147.295,408.121,145.885,407.34,145.885,405.811z M151.945,405.15v-0.931c-0.735-0.239-1.604-0.42-2.729-0.42
										c-1.666,0-2.819,0.705-2.819,1.949v0.03c0,1.245,1.125,1.89,2.385,1.89C150.61,407.67,151.945,406.5,151.945,405.15z"/>
									<path fill="#FFFFFF" d="M155.065,397.381h0.645v0.915h-0.645V397.381z M155.141,400.381h0.494v7.561h-0.494V400.381z"/>
									<path fill="#FFFFFF" d="M158.515,400.381h0.479v2.311c0.45-1.29,1.604-2.506,3.211-2.46v0.494c-0.017,0-0.062,0-0.076,0
										c-1.83,0-3.135,1.771-3.135,3.631v3.585h-0.479V400.381L158.515,400.381z"/>
									<path fill="#FFFFFF" d="M163.03,404.16v-0.029c0-2.221,1.529-3.93,3.614-3.93c2.28,0,3.465,1.949,3.465,3.975
										c0,0.074,0,0.105,0,0.165h-6.555c0.091,2.056,1.545,3.329,3.239,3.329c1.17,0,2.115-0.614,2.715-1.395l0.361,0.285
										c-0.69,0.899-1.711,1.561-3.091,1.561C164.741,408.121,163.03,406.576,163.03,404.16z M169.584,403.906
										c-0.074-1.65-1.08-3.256-2.969-3.256c-1.711,0-2.971,1.396-3.062,3.256H169.584z"/>
									<path fill="#FFFFFF" d="M15.853,422.176v-0.029c0-2.296,1.695-3.944,3.734-3.944c1.666,0,2.836,0.99,3.346,2.233v-5.444
										h0.479v10.95h-0.479v-2.085c-0.525,1.26-1.695,2.266-3.346,2.266C17.548,426.121,15.853,424.485,15.853,422.176z
										 M22.962,422.176v-0.029c0-1.95-1.484-3.479-3.33-3.479c-1.904,0-3.27,1.439-3.27,3.465v0.029
										c0,1.995,1.395,3.495,3.27,3.495C21.492,425.655,22.962,424.125,22.962,422.176z"/>
									<path fill="#FFFFFF" d="M26.053,422.806v-4.425h0.479v4.351c0,1.755,0.945,2.938,2.7,2.938c1.59,0,2.851-1.305,2.851-3.029
										v-4.26h0.479v7.561h-0.479v-1.801c-0.346,0.9-1.291,1.98-2.91,1.98C27.178,426.121,26.053,424.771,26.053,422.806z"/>
									<path fill="#FFFFFF" d="M43.167,420.601l-4.095-5.158h0.601l3.795,4.813l3.795-4.813h0.6l-4.08,5.145l4.229,5.354h-0.6
										l-3.944-5.011l-3.945,5.011h-0.6L43.167,420.601z"/>
									<path fill="#FFFFFF" d="M53.547,420.601l-4.095-5.158h0.6l3.795,4.813l3.795-4.813h0.6l-4.079,5.145l4.229,5.354h-0.6
										l-3.945-5.011l-3.944,5.011h-0.601L53.547,420.601z"/>
									<path fill="#FFFFFF" d="M59.308,422.16v-0.029c0-2.221,1.529-3.93,3.614-3.93c2.28,0,3.465,1.949,3.465,3.975
										c0,0.074,0,0.105,0,0.165h-6.555c0.09,2.056,1.545,3.329,3.239,3.329c1.17,0,2.115-0.614,2.715-1.395l0.36,0.285
										c-0.69,0.899-1.71,1.561-3.09,1.561C61.017,426.121,59.308,424.576,59.308,422.16z M65.862,421.906
										c-0.076-1.65-1.08-3.256-2.971-3.256c-1.709,0-2.97,1.396-3.06,3.256H65.862z"/>
									<path fill="#FFFFFF" d="M72.192,424.965l0.285-0.375c0.84,0.66,1.844,1.035,2.819,1.035c1.215,0,2.159-0.645,2.159-1.574
										v-0.029c0-1.065-1.139-1.396-2.295-1.711c-1.409-0.403-2.624-0.795-2.624-2.055v-0.03c0-1.125,1.034-1.979,2.579-1.979
										c0.871,0,1.86,0.3,2.655,0.84l-0.27,0.404c-0.72-0.51-1.604-0.795-2.4-0.795c-1.245,0-2.069,0.646-2.069,1.484v0.03
										c0,0.945,1.064,1.289,2.295,1.635c1.379,0.375,2.625,0.812,2.625,2.13v0.03c0,1.244-1.17,2.069-2.686,2.069
										C74.187,426.075,73.017,425.655,72.192,424.965z"/>
									<path fill="#FFFFFF" d="M80.307,415.381h0.645v0.915h-0.645V415.381z M80.382,418.381h0.494v7.561h-0.494V418.381z"/>
									<path fill="#FFFFFF" d="M83.231,422.16v-0.029c0-2.221,1.529-3.93,3.615-3.93c2.279,0,3.465,1.949,3.465,3.975
										c0,0.074,0,0.105,0,0.165h-6.555c0.09,2.056,1.545,3.329,3.239,3.329c1.17,0,2.114-0.614,2.715-1.395l0.36,0.285
										c-0.69,0.899-1.71,1.561-3.09,1.561C84.941,426.121,83.231,424.576,83.231,422.16z M89.786,421.906
										c-0.075-1.65-1.08-3.256-2.971-3.256c-1.709,0-2.969,1.396-3.059,3.256H89.786z M85.166,415.396l0.585-0.302l1.395,1.92
										h-0.375L85.166,415.396z"/>
									<path fill="#FFFFFF" d="M91.977,422.176v-0.029c0-2.131,1.68-3.944,3.87-3.944c1.395,0,2.279,0.629,3.015,1.395
										l-0.345,0.346c-0.66-0.704-1.485-1.29-2.686-1.29c-1.904,0-3.345,1.574-3.345,3.479v0.029c0,1.905,1.485,3.51,3.375,3.51
										c1.2,0,2.055-0.614,2.715-1.35l0.345,0.301c-0.734,0.854-1.68,1.5-3.09,1.5C93.656,426.121,91.977,424.32,91.977,422.176z"
										/>
									<path fill="#FFFFFF" d="M101.065,414.99h0.496v10.95h-0.496V414.99z"/>
									<path fill="#FFFFFF" d="M103.916,422.16v-0.029c0-2.221,1.53-3.93,3.614-3.93c2.28,0,3.465,1.949,3.465,3.975
										c0,0.074,0,0.105,0,0.165h-6.555c0.09,2.056,1.545,3.329,3.24,3.329c1.17,0,2.115-0.614,2.715-1.395l0.359,0.285
										c-0.689,0.899-1.709,1.561-3.09,1.561C105.626,426.121,103.916,424.576,103.916,422.16z M110.471,421.906
										c-0.075-1.65-1.08-3.256-2.97-3.256c-1.71,0-2.971,1.396-3.061,3.256H110.471z"/>
									<path fill="#FFFFFF" d="M117.026,425.025l2.295-2.91l-2.295-2.91l0.33-0.239l2.55,3.104v0.09l-2.55,3.104L117.026,425.025z
										 M119.786,425.025l2.295-2.91l-2.295-2.91l0.33-0.239l2.535,3.104v0.09l-2.535,3.104L119.786,425.025z"/>
									<path fill="#FFFFFF" d="M128.32,425.596l4.425-4.186c1.666-1.561,2.057-2.444,2.057-3.344c0-1.307-1.125-2.326-2.61-2.326
										c-1.455,0-2.46,0.826-3.194,2.056l-0.404-0.255c0.779-1.335,1.875-2.25,3.63-2.25c1.83,0,3.104,1.215,3.104,2.729v0.03
										c0,1.125-0.479,2.01-2.25,3.689l-3.931,3.721h6.315v0.479h-7.142V425.596L128.32,425.596z"/>
									<path fill="#FFFFFF" d="M136.959,425.596l4.426-4.186c1.664-1.561,2.056-2.444,2.056-3.344c0-1.307-1.125-2.326-2.61-2.326
										c-1.455,0-2.459,0.826-3.193,2.056l-0.405-0.255c0.78-1.335,1.875-2.25,3.63-2.25c1.83,0,3.104,1.215,3.104,2.729v0.03
										c0,1.125-0.479,2.01-2.25,3.689l-3.93,3.721h6.315v0.479h-7.142V425.596L136.959,425.596z"/>
									<path fill="#FFFFFF" d="M146.065,418.381h0.721v0.976h-0.721V418.381z M146.065,424.965h0.721v0.977h-0.721V424.965z"/>
									<path fill="#FFFFFF" d="M148.75,424.44l0.375-0.36c0.811,0.9,1.994,1.575,3.27,1.575c1.814,0,3.09-1.2,3.09-2.835v-0.029
										c0-1.59-1.318-2.686-3.09-2.686c-0.885,0-1.755,0.225-2.609,0.688l-0.359-0.209l0.3-5.145h5.715v0.479h-5.249l-0.271,4.305
										c0.781-0.375,1.576-0.568,2.535-0.568c2.01,0,3.541,1.26,3.541,3.119v0.029c0,1.936-1.5,3.315-3.631,3.315
										C150.94,426.121,149.561,425.355,148.75,424.44z"/>
									<path fill="#FFFFFF" d="M157.209,424.246l0.391-0.33c0.795,1.049,1.965,1.739,3.42,1.739c1.561,0,2.88-1.021,2.88-2.476
										v-0.029c0-1.71-1.515-2.476-3.659-2.476h-0.436l-0.149-0.301l3.899-4.454h-5.79v-0.479h6.479v0.358l-3.854,4.41
										c2.354,0.045,4.021,0.959,4.021,2.925c0,0,0,0.016,0,0.03c0,1.739-1.574,2.955-3.404,2.955
										C159.34,426.121,158.036,425.34,157.209,424.246z"/>
								</g>
							</g>
						</g>
					</g>
				</g>
			</g>
		</g>
	</g>
</g>
</svg>
